<?xml version="1.0" encoding="utf-8"?>
<!-- Generator: Adobe Illustrator 16.0.0, SVG Export Plug-In . SVG Version: 6.00 Build 0)  -->
<!DOCTYPE svg PUBLIC "-//W3C//DTD SVG 1.1//EN" "http://www.w3.org/Graphics/SVG/1.1/DTD/svg11.dtd">
<svg version="1.1" id="Capa_1" xmlns="http://www.w3.org/2000/svg" xmlns:xlink="http://www.w3.org/1999/xlink" x="0px" y="0px"
	 width="157.496px" height="120px" viewBox="0 0 157.496 120" enable-background="new 0 0 157.496 120" xml:space="preserve">
<path fill="#8C2325" d="M157.496,10.421v109.528H0V10.421h24.621V0.052h15.555v10.37H157.496L157.496,10.421z M149.497,18.423H7.99
	v32.826h43.208c6.49-8.217,16.424-13.392,27.653-13.392c11.011,0,20.945,5.174,27.448,13.392h43.197V18.423L149.497,18.423z
	 M78.852,43.684c-16.207,0-29.381,13.175-29.381,29.392c0,16.219,13.174,29.35,29.381,29.35c15.99,0,29.164-13.131,29.164-29.35
	C108.016,56.859,94.841,43.684,78.852,43.684z M78.852,56.207c-9.294,0-17.067,7.564-17.067,16.869
	c0,9.262,7.773,16.828,17.067,16.828s16.859-7.566,16.859-16.828C95.711,63.771,88.146,56.207,78.852,56.207z"/>
</svg>
