<?xml version="1.0" encoding="utf-8"?>
<!-- Generator: Adobe Illustrator 16.0.0, SVG Export Plug-In . SVG Version: 6.00 Build 0)  -->
<!DOCTYPE svg PUBLIC "-//W3C//DTD SVG 1.1//EN" "http://www.w3.org/Graphics/SVG/1.1/DTD/svg11.dtd">
<svg version="1.1" id="Capa_1" xmlns="http://www.w3.org/2000/svg" xmlns:xlink="http://www.w3.org/1999/xlink" x="0px" y="0px"
	 width="36px" height="36px" viewBox="0 0 36 36" enable-background="new 0 0 36 36" xml:space="preserve">
<path fill="#8B2223" d="M19.073,17.961L35.67,1.307c0.298-0.3,0.298-0.785-0.004-1.083c-0.299-0.296-0.784-0.3-1.083,0.003
	L17.992,16.875L1.4,0.227c-0.3-0.302-0.784-0.3-1.083-0.003c-0.302,0.3-0.302,0.784-0.004,1.083L16.91,17.961L0.313,34.615
	c-0.298,0.302-0.298,0.785,0.004,1.083c0.149,0.149,0.344,0.225,0.54,0.225c0.197,0,0.394-0.075,0.543-0.227l16.592-16.649
	l16.591,16.649c0.149,0.151,0.348,0.227,0.544,0.227c0.195,0,0.39-0.075,0.539-0.225c0.302-0.3,0.302-0.781,0.004-1.083
	L19.073,17.961z"/>
</svg>
