<?xml version="1.0" encoding="utf-8"?>
<!-- Generator: Adobe Illustrator 16.0.0, SVG Export Plug-In . SVG Version: 6.00 Build 0)  -->
<!DOCTYPE svg PUBLIC "-//W3C//DTD SVG 1.1//EN" "http://www.w3.org/Graphics/SVG/1.1/DTD/svg11.dtd">
<svg version="1.1" id="Capa_1" xmlns="http://www.w3.org/2000/svg" xmlns:xlink="http://www.w3.org/1999/xlink" x="0px" y="0px"
	 width="36px" height="36px" viewBox="0 0 36 36" enable-background="new 0 0 36 36" xml:space="preserve">
<g id="location-icons">
	<path fill="#8C2224" d="M23.3,11.4c0-2.9-2.4-5.4-5.4-5.4c-2.9,0-5.4,2.4-5.4,5.4c0,2.9,2.4,5.3,5.4,5.3
		C20.9,16.7,23.3,14.4,23.3,11.4z M13.8,11.4c0-2.3,1.9-4.2,4.2-4.2s4.2,1.9,4.2,4.2c0,2.3-1.9,4.1-4.2,4.1S13.8,13.7,13.8,11.4z"/>
	<path fill="#8C2224" d="M35.1,26.6l-3.6-5.2c0,0,0,0,0,0l0,0c0,0,0,0-0.1-0.1l0,0c0,0-0.1,0-0.1,0h0c0,0-0.1,0-0.1,0c0,0,0,0-0.1,0
		c0,0-0.1,0-0.2,0c-0.1,0-5.2,1.8-7.2,2.5c0.3,0.7-1.8,0.8-1.3,1.6l7.6-2.6l-3.3,6.2l-16.3,5.5l3.2-6.2l1.9-0.6l0.9,1.2
		c0.4,0.5,0.9,0.8,1.6,0.8c0.6,0,1.2-0.3,1.6-0.8l2.6-3.3l0.3-0.1c-0.5-0.8,1.6-0.9,1.3-1.6c-0.1,0-0.2,0.1-0.3,0.1l0.1-0.1l0.1-0.1
		c0,0,0,0-0.1-0.1c0,0,0,0,0.1,0.1l3.9-5c0.9-1.3,1.5-2.7,1.9-4.3c0.2-0.8,0.3-1.7,0.3-2.5c0-6.4-5.2-11.7-11.7-11.7
		c-6.5,0-11.7,5.2-11.7,11.7c0,0.8,0.1,1.7,0.3,2.5c0.4,1.5,1,3,1.9,4.3l6.2,7.9c0.8,0,0.8,0.1,0.8,1c0-0.9,0-1-0.8-1l0.1,0.1
		L13.4,27l-3.3-4.8c0,0,0,0,0,0l0,0c0,0,0,0-0.1-0.1l0,0c0,0-0.1,0-0.1,0h0c0,0-0.1,0-0.1,0h0c0,0-0.1,0-0.2,0l-4.4,1.6
		c-0.2,0-0.2,0.2-0.3,0.3l-4,7.5c-0.1,0.2-0.1,0.5,0.1,0.7c0.1,0.1,0.3,0.2,0.4,0.2c0.1,0,0.1,0,0.2,0l3.9-1.4l3.3,4.8c0,0,0,0,0,0
		l0,0l0,0c0,0,0,0,0.1,0c0,0,0,0,0,0c0,0,0,0,0.1,0h0c0,0,0.1,0,0.1,0c0.1,0,0.1,0,0.2,0l17.4-5.9l0,0.1l3.3,4.8
		c0.1,0.2,0.3,0.2,0.5,0.2h0c0.2,0,0.4-0.1,0.5-0.3l4-7.5C35.3,27,35.3,26.8,35.1,26.6z M9.4,17.9C8.6,16.7,8,15.4,7.7,14
		c-0.2-0.8-0.2-1.5-0.2-2.3C7.4,6,12.2,1.3,18,1.3S28.5,6,28.5,11.8c0,0.8-0.1,1.5-0.2,2.3c-0.3,1.4-0.9,2.7-1.7,3.8l-5.1,6.5
		l-1.4,1.7L18.6,28c-0.3,0.4-0.9,0.4-1.2,0l-0.6-0.8l-0.8-1L9.4,17.9z M5.2,29.7l-2.7,1l3.1-6l2.7-1L5.2,29.7z M9.1,34.2l-2.8-4.1
		l3.3-6.4l2.8,4.1L9.1,34.2z M30.6,33.4l-2.8-4.1l3.3-6.4l2.8,4.1L30.6,33.4z"/>
</g>
</svg>
