<?xml version="1.0" encoding="utf-8"?>
<!-- Generator: Adobe Illustrator 16.0.0, SVG Export Plug-In . SVG Version: 6.00 Build 0)  -->
<!DOCTYPE svg PUBLIC "-//W3C//DTD SVG 1.1//EN" "http://www.w3.org/Graphics/SVG/1.1/DTD/svg11.dtd">
<svg version="1.1" id="Capa_2" xmlns="http://www.w3.org/2000/svg" xmlns:xlink="http://www.w3.org/1999/xlink" x="0px" y="0px"
	 width="36px" height="36px" viewBox="0 0 36 36" enable-background="new 0 0 36 36" xml:space="preserve">
<polygon fill="none" stroke="#8B2223" stroke-miterlimit="10" points="34.457,1.258 14.435,0.5 14.327,2.845 3.267,2.401 
	2.31,16.584 14.344,17.217 33.667,17.831 "/>
<polyline fill="none" stroke="#8B2223" stroke-miterlimit="10" points="14.435,0.5 14.169,6.263 17.163,6.783 16.746,13.106 
	13.347,13.385 13.19,16.61 "/>
<line fill="none" stroke="#8B2223" stroke-miterlimit="10" x1="12.826" y1="14.643" x2="2.486" y2="13.996"/>
<line fill="none" stroke="#8B2223" stroke-miterlimit="10" x1="12.981" y1="17.781" x2="12.154" y2="32.393"/>
<polyline fill="none" stroke="#8B2223" stroke-miterlimit="10" points="31.826,18 31.117,32.174 8.75,32.242 "/>
<polyline fill="none" stroke="#8B2223" stroke-miterlimit="10" points="31.117,32.174 35.254,31.726 35.264,35.471 "/>
<line fill="none" stroke="#8B2223" stroke-miterlimit="10" x1="10.315" y1="14.914" x2="9.415" y2="32.242"/>
<path fill="none" stroke="#8B2223" stroke-miterlimit="10" d="M12.542,41.104"/>
<path fill="none" stroke="#8B2223" stroke-miterlimit="10" d="M20.308,40.618"/>
<line fill="none" stroke="#8B2223" stroke-miterlimit="10" x1="31.322" y1="33.274" x2="31.181" y2="35.019"/>
<line fill="none" stroke="#8B2223" stroke-miterlimit="10" x1="28.818" y1="33.471" x2="28.825" y2="35.693"/>
<polyline fill="none" stroke="#8B2223" stroke-miterlimit="10" points="35.262,34.836 24.383,35.556 24.354,32.596 "/>
<path fill="none" stroke="#8B2223" stroke-miterlimit="10" d="M6.551,21.272c-1.67,3.651,0.158,8.229,0.158,8.229"/>
<path fill="none" stroke="#8B2223" stroke-miterlimit="10" d="M5.391,20.354c-5.176,0.468-6.178,9.329,0.221,9.749"/>
</svg>
