<?xml version="1.0" encoding="utf-8"?>
<!-- Generator: Adobe Illustrator 16.0.0, SVG Export Plug-In . SVG Version: 6.00 Build 0)  -->
<!DOCTYPE svg PUBLIC "-//W3C//DTD SVG 1.1//EN" "http://www.w3.org/Graphics/SVG/1.1/DTD/svg11.dtd">
<svg version="1.1" xmlns="http://www.w3.org/2000/svg" xmlns:xlink="http://www.w3.org/1999/xlink" x="0px" y="0px" width="1200px"
	 height="758px" viewBox="0 0 1200 758" enable-background="new 0 0 1200 758" xml:space="preserve">
<g id="plano_fondo">
	<image overflow="visible" width="1200" height="758" xlink:href="hipocausto.jpg" >
	</image>
</g>
<g id="puntos">
	<circle id="c1" opacity="0.6" fill="#8A2223" enable-background="new    " cx="409.374" cy="260.371" r="23.249"/>
	<circle id="c2" opacity="0.6" fill="#8A2223" enable-background="new    " cx="990.117" cy="224.86" r="23.249"/>
	<circle id="c3" opacity="0.6" fill="#8A2223" enable-background="new    " cx="1085.621" cy="511.362" r="23.249"/>
</g>
<g id="habitaculos" display="none">
	<polyline id="hab10_m" display="inline" opacity="0.5" fill="#8C2224" points="925,396 1184,396 1184,713 925,713 	"/>
	<polyline id="hab9_m" display="inline" opacity="0.5" fill="#8C2224" points="723,151 1143,151 1143,390 1043,390 1042,341 
		723,350 	"/>
	<polyline id="hab7_m" display="inline" opacity="0.5" fill="#8C2224" points="443,151 674,151 674,390 443,390 	"/>
	<polyline id="hab6_m" display="inline" opacity="0.5" fill="#8C2224" points="165,108 397,99 391,385 172,390 	"/>
	<g id="agujeros" display="inline" opacity="0.5">
		<path fill="#8A2223" d="M1000.345,588.729c0,5.263-1.172,6.833-7.334,6.833c-6.163,0-8.5-1.654-8.5-6.917
			c0-5.262,1.087-6.916,7.25-6.916C997.923,581.729,1000.345,583.468,1000.345,588.729z"/>
		<circle fill="#8C2224" cx="999.104" cy="654.754" r="8.941"/>
		<path fill="#8C2224" d="M1008.046,701.812c0,2.762-3.67,2.094-8.608,2.094s-9.274,0.668-9.274-2.094s3.023-5.812,7.962-5.812
			S1008.046,699.051,1008.046,701.812z"/>
	</g>
</g>
<g id="fotos" display="none">
	<g id="f6_m" display="inline">
		<polygon fill="#8B2224" points="68.485,265.815 68.185,293.077 84.17,279.445 		"/>
		<path fill="#8B2224" d="M63.523,262.958v31.546H18.121v-31.546h7.117v-2.982h4.46v2.982H63.523L63.523,262.958z M61.193,265.263
			H20.426v9.447h12.453c1.88-2.355,4.736-3.858,7.969-3.858c3.182,0,6.038,1.503,7.893,3.858h12.453V265.263L61.193,265.263z
			 M40.848,272.555c-4.686,0-8.469,3.784-8.469,8.444c0,4.686,3.784,8.469,8.469,8.469c4.61,0,8.395-3.784,8.395-8.469
			C49.242,276.338,45.458,272.555,40.848,272.555z M40.848,276.164c-2.682,0-4.936,2.154-4.936,4.835
			c0,2.681,2.254,4.861,4.936,4.861s4.861-2.18,4.861-4.861C45.709,278.317,43.529,276.164,40.848,276.164z"/>
	</g>
	<g id="f7_m" display="inline">
		<polygon fill="#8B2224" points="363.652,292.75 390.914,292.4 376.933,276.765 		"/>
		<path fill="#8B2224" d="M393.32,295.982v31.572h-45.377v-31.572h7.091v-2.981h4.485v2.981H393.32L393.32,295.982z
			 M391.014,298.289h-40.767v9.472h12.454c1.854-2.381,4.71-3.885,7.968-3.885c3.157,0,6.014,1.503,7.918,3.885h12.427V298.289
			L391.014,298.289z M370.668,305.58c-4.66,0-8.469,3.783-8.469,8.469c0,4.661,3.809,8.444,8.469,8.444
			c4.611,0,8.394-3.783,8.394-8.444C379.062,309.363,375.279,305.58,370.668,305.58z M370.668,309.188
			c-2.681,0-4.911,2.18-4.911,4.861c0,2.656,2.205,4.861,4.911,4.861c2.656,0,4.861-2.206,4.861-4.861
			C375.529,311.343,373.325,309.188,370.668,309.188z"/>
	</g>
	<g id="f8_m" display="inline">
		<polygon fill="#8B2224" points="472.9,260.428 472.599,287.689 488.586,274.058 		"/>
		<path fill="#8C2224" d="M467.938,257.571v31.572h-45.403v-31.572h7.116v-2.982h4.46v2.982H467.938L467.938,257.571z
			 M465.633,259.876h-40.792v9.472h12.453c1.879-2.38,4.736-3.859,7.969-3.859c3.182,0,6.039,1.479,7.893,3.859h12.478V259.876
			L465.633,259.876z M445.263,267.143c-4.686,0-8.47,3.808-8.47,8.469c0,4.686,3.784,8.469,8.47,8.469
			c4.61,0,8.394-3.783,8.394-8.469C453.656,270.951,449.873,267.143,445.263,267.143z M445.263,270.751
			c-2.682,0-4.937,2.205-4.937,4.86c0,2.681,2.255,4.861,4.937,4.861c2.681,0,4.86-2.18,4.86-4.861
			C450.123,272.956,447.944,270.751,445.263,270.751z"/>
	</g>
	<g id="f9_m" display="inline">
		<polygon fill="#8B2224" points="589.688,139.454 562.427,139.466 576.233,155.277 		"/>
		<path fill="#8B2224" d="M599.26,105.252v31.558h-45.377v-31.558h7.066v-2.995h4.51v2.995H599.26L599.26,105.252z M596.956,107.557
			h-40.767v9.459h12.427c1.904-2.367,4.761-3.859,7.969-3.859c3.207,0,6.063,1.492,7.918,3.859h12.453V107.557L596.956,107.557z
			 M576.584,114.836c-4.661,0-8.469,3.796-8.469,8.457c0,4.673,3.809,8.456,8.469,8.456c4.61,0,8.418-3.783,8.418-8.456
			C585.003,118.632,581.194,114.836,576.584,114.836z M576.584,118.444c-2.656,0-4.912,2.18-4.912,4.862
			c0,2.667,2.256,4.848,4.912,4.848c2.706,0,4.861-2.18,4.861-4.848C581.445,120.624,579.29,118.444,576.584,118.444z"/>
	</g>
	<g id="f10_m" display="inline">
		<polygon fill="#8B2224" points="365.733,151.719 365.457,178.981 381.393,165.351 		"/>
		<path fill="#8B2224" d="M360.746,148.862v31.56h-45.378v-31.56h7.091v-2.981h4.485v2.981H360.746L360.746,148.862z
			 M358.441,151.168h-40.768v9.458h12.453c1.854-2.367,4.711-3.858,7.969-3.858c3.158,0,6.013,1.491,7.917,3.858h12.429V151.168
			L358.441,151.168z M338.095,158.447c-4.661,0-8.47,3.796-8.47,8.469s3.809,8.457,8.47,8.457c4.61,0,8.394-3.784,8.394-8.457
			S342.705,158.447,338.095,158.447z M338.095,162.056c-2.681,0-4.911,2.18-4.911,4.873c0,2.669,2.23,4.848,4.911,4.848
			s4.86-2.179,4.86-4.848C342.955,164.235,340.776,162.056,338.095,162.056z"/>
	</g>
	<g id="f11_m" display="inline">
		<polygon fill="#8B2224" points="573.477,257.897 546.216,257.972 560.072,273.757 		"/>
		<path fill="#8B2224" d="M582.197,222.492v31.546h-45.378v-31.546h7.091v-3.007h4.486v3.007H582.197L582.197,222.492z
			 M579.891,224.797h-40.767v9.447h12.453c1.854-2.38,4.711-3.859,7.969-3.859c3.157,0,6.013,1.479,7.917,3.859h12.428V224.797
			L579.891,224.797z M559.546,232.063c-4.686,0-8.47,3.809-8.47,8.47s3.784,8.469,8.47,8.469c4.61,0,8.394-3.809,8.394-8.469
			S564.156,232.063,559.546,232.063z M559.546,235.672c-2.682,0-4.911,2.179-4.911,4.861c0,2.656,2.206,4.86,4.911,4.86
			c2.656,0,4.861-2.205,4.861-4.86C564.407,237.851,562.202,235.672,559.546,235.672z"/>
	</g>
	<g id="f12_m" display="inline">
		<polygon fill="#8B2224" points="1127.981,262.232 1128.257,234.97 1112.295,248.601 		"/>
		<path fill="#8B2224" d="M1179.423,232.114v31.546h-45.377v-31.546h7.091v-3.007h4.484v3.007H1179.423L1179.423,232.114z
			 M1177.117,234.419h-40.767v9.446h12.451c1.881-2.38,4.736-3.859,7.97-3.859c3.183,0,6.038,1.479,7.893,3.859h12.453V234.419
			L1177.117,234.419z M1156.771,241.686c-4.686,0-8.469,3.809-8.469,8.469c0,4.661,3.783,8.469,8.469,8.469
			c4.586,0,8.395-3.809,8.395-8.469C1165.166,245.494,1161.357,241.686,1156.771,241.686z M1156.771,245.293
			c-2.682,0-4.936,2.18-4.936,4.861c0,2.656,2.254,4.861,4.936,4.861c2.681,0,4.835-2.205,4.835-4.861
			C1161.606,247.473,1159.452,245.293,1156.771,245.293z"/>
	</g>
	<g id="f13_m" display="inline">
		<polygon fill="#8B2224" points="904.727,249.253 905.002,221.99 889.04,235.621 		"/>
		<path fill="#8B2224" d="M956.168,219.084v31.571H910.79v-31.571h7.091v-2.981h4.486v2.981H956.168L956.168,219.084z
			 M953.862,221.389h-40.767v9.471h12.453c1.879-2.355,4.734-3.858,7.968-3.858c3.182,0,6.038,1.503,7.893,3.858h12.453V221.389
			L953.862,221.389z M933.517,228.681c-4.686,0-8.469,3.783-8.469,8.444c0,4.686,3.783,8.469,8.469,8.469
			c4.61,0,8.395-3.784,8.395-8.469C941.911,232.464,938.127,228.681,933.517,228.681z M933.517,232.289
			c-2.682,0-4.936,2.18-4.936,4.861c0,2.682,2.254,4.836,4.936,4.836c2.681,0,4.836-2.154,4.836-4.836
			C938.353,234.469,936.197,232.289,933.517,232.289z"/>
	</g>
	<g id="f14_m" display="inline">
		<polygon fill="#8B2224" points="1071.755,209.612 1044.492,209.337 1058.148,225.298 		"/>
		<path fill="#8B2224" d="M1080.824,174.709v31.546h-45.401v-31.546h7.115v-2.982h4.46v2.982H1080.824L1080.824,174.709z
			 M1078.52,177.014h-40.793v9.458h12.479c1.854-2.367,4.71-3.858,7.968-3.858c3.157,0,6.013,1.491,7.867,3.858h12.479V177.014
			L1078.52,177.014z M1058.174,184.292c-4.712,0-8.47,3.796-8.47,8.47s3.784,8.457,8.47,8.457c4.61,0,8.395-3.783,8.395-8.457
			S1062.784,184.292,1058.174,184.292z M1058.174,187.901c-2.707,0-4.937,2.18-4.937,4.861c0,2.668,2.229,4.849,4.937,4.849
			c2.656,0,4.861-2.181,4.861-4.849C1063.035,190.081,1060.83,187.901,1058.174,187.901z"/>
	</g>
</g>
</svg>
