<?xml version="1.0" encoding="utf-8"?>
<!-- Generator: Adobe Illustrator 16.0.0, SVG Export Plug-In . SVG Version: 6.00 Build 0)  -->
<!DOCTYPE svg PUBLIC "-//W3C//DTD SVG 1.1//EN" "http://www.w3.org/Graphics/SVG/1.1/DTD/svg11.dtd">
<svg version="1.1" id="lareira" xmlns="http://www.w3.org/2000/svg" xmlns:xlink="http://www.w3.org/1999/xlink" x="0px" y="0px"
	 width="1200px" height="1030px" viewBox="0 0 1200 1030" enable-background="new 0 0 1200 1030" xml:space="preserve">
<image overflow="visible" width="1200" height="1030" id="plano" xlink:href="lareira.jpg" >
</image>
<g id="fotos">
	<g id="f15_m">
		<polygon fill="#8C2325" points="1056.465,566.932 1057.311,514.532 1026.467,540.604 		"/>
		<path fill="#8C2325" d="M1156.857,512.176l0.259,60.634l-87.209,0.373l-0.292-60.649l13.636-0.034l-0.032-5.713l8.637-0.034v5.715
			L1156.857,512.176L1156.857,512.176z M1152.441,516.658l-78.378,0.34l0.13,18.15l23.896-0.098c3.57-4.529,9.091-7.42,15.259-7.451
			c6.202-0.033,11.655,2.824,15.261,7.32l23.927-0.115L1152.441,516.658L1152.441,516.658z M1113.349,530.764
			c-8.993,0.033-16.233,7.371-16.169,16.348c0.033,8.979,7.337,16.234,16.301,16.234c8.895-0.033,16.103-7.387,16.103-16.363
			S1122.245,530.715,1113.349,530.764z M1113.414,537.746c-5.162,0-9.447,4.188-9.417,9.334c0,5.162,4.32,9.35,9.483,9.316
			c5.127,0,9.285-4.219,9.285-9.381C1122.766,541.869,1118.544,537.713,1113.414,537.746z"/>
		<g>
			<path fill="#8C2325" d="M1176.921,521.545h-0.195l-10.097,5.484l-1.526-5.975l12.695-6.85l6.688-0.03l0.227,58.003h-7.596
				L1176.921,521.545z"/>
		</g>
	</g>
	<g id="f17_m">
		<polygon fill="#8C2325" points="655.942,98.846 604.725,97.918 630.131,128.066 		"/>
		<path fill="#8C2325" d="M672.241,30.291v59.221h-85.163V30.291h13.296v-5.586h8.409v5.617h63.458V30.291z M667.89,34.639h-76.493
			v17.729h23.377c3.489-4.415,8.863-7.241,14.95-7.241c5.957,0,11.284,2.793,14.821,7.241h23.344V34.639L667.89,34.639z
			 M629.692,48.277c-8.75,0-15.893,7.142-15.893,15.892c0,8.783,7.11,15.894,15.893,15.894c8.653,0,15.796-7.08,15.796-15.894
			C645.488,55.418,638.346,48.277,629.692,48.277z M629.692,55.063c-5.016,0-9.237,4.123-9.237,9.139s4.222,9.108,9.237,9.108
			c5.017,0,9.074-4.092,9.074-9.108C638.799,59.152,634.741,55.063,629.692,55.063z"/>
		<g>
			<path fill="#8D2325" d="M545.877,86.149v-4.527l5.714-5.586c13.832-13.165,20.081-20.112,20.146-28.262
				c0-5.521-2.646-10.602-10.729-10.602c-4.888,0-9.01,2.533-11.478,4.594l-2.322-5.195c3.75-3.165,9.042-5.488,15.324-5.488
				c11.64,0,16.559,7.988,16.559,15.732c0,9.968-7.24,18.052-18.652,29.058l-4.319,3.994v0.162h24.303v6.088h-34.546V86.149z"/>
		</g>
	</g>
</g>
<g id="puntos">
	<circle id="c1" opacity="0.6" fill="#8A2223" enable-background="new    " cx="687.189" cy="535.684" r="31.249"/>
</g>
<rect id="area" x="520" y="325" opacity="0.5" fill="#8A2223" width="167.191" height="134"/>
</svg>
