<?xml version="1.0" encoding="utf-8"?>
<!-- Generator: Adobe Illustrator 16.0.0, SVG Export Plug-In . SVG Version: 6.00 Build 0)  -->
<!DOCTYPE svg PUBLIC "-//W3C//DTD SVG 1.1//EN" "http://www.w3.org/Graphics/SVG/1.1/DTD/svg11.dtd">
<svg version="1.1" id="Capa_1" xmlns="http://www.w3.org/2000/svg" xmlns:xlink="http://www.w3.org/1999/xlink" x="0px" y="0px"
	 width="76.25px" height="120px" viewBox="0 0 76.25 120" enable-background="new 0 0 76.25 120" xml:space="preserve">
<path id="m3_m" fill="#8C2325" d="M67.745,51.405c0.955-7.713,2.589-12.305,2.773-12.783c3.49-7.309,3.471-12.782-0.074-16.272
	c-3.562-3.525-9.641-3.93-12.8-3.856c1.689-7.677,3.838-11.607,4.408-12.526h1.194c1.745,0,3.159-1.102,3.159-2.534V3.177
	c0-1.396-1.414-2.534-3.159-2.534H13.163c-1.745,0-3.177,1.139-3.177,2.534v0.257c0,1.433,1.433,2.534,3.177,2.534h1.046
	c0.552,0.919,2.7,4.849,4.408,12.526C15.44,18.42,9.38,18.825,5.799,22.35c-3.545,3.49-3.545,8.963-0.037,16.272
	c0.165,0.478,1.799,5.069,2.736,12.783c-8.833,9.037-14.856,27.402,13.205,61.89v6.062H54.54v-6.062
	C82.602,78.807,76.597,60.441,67.745,51.405z M20.73,43.691c0,0-4.188,1.286-8.724,4.665c-1.028-6.722-2.461-10.505-2.534-10.726
	c0-0.037-0.019-0.037-0.056-0.11c-2.919-6.097-3.14-10.689-0.569-13.224c2.773-2.792,8.301-2.754,10.376-2.644
	C20.251,27.31,20.949,34.583,20.73,43.691z M57.02,21.653c2.094-0.11,7.622-0.147,10.376,2.644c2.571,2.535,2.37,7.126-0.569,13.224
	c-0.019,0.073-0.019,0.073-0.055,0.11c-0.055,0.221-1.487,4.004-2.516,10.726c-4.537-3.379-8.743-4.665-8.743-4.665
	C55.312,34.583,56.01,27.31,57.02,21.653z"/>
</svg>
