<?xml version="1.0" encoding="utf-8"?>
<!-- Generator: Adobe Illustrator 16.0.0, SVG Export Plug-In . SVG Version: 6.00 Build 0)  -->
<!DOCTYPE svg PUBLIC "-//W3C//DTD SVG 1.1//EN" "http://www.w3.org/Graphics/SVG/1.1/DTD/svg11.dtd">
<svg version="1.1" id="Capa_1" xmlns="http://www.w3.org/2000/svg" xmlns:xlink="http://www.w3.org/1999/xlink" x="0px" y="0px"
	 width="36px" height="26.81px" viewBox="0 0 36 26.81" enable-background="new 0 0 36 26.81" xml:space="preserve">
<g>
	<path fill="#8B2223" d="M35.496,2.45h-1.713V0.612c0-0.291-0.205-0.527-0.461-0.527h-13.26c-0.904,0-1.7,0.524-2.174,1.321
		c-0.478-0.797-1.274-1.321-2.177-1.321H2.452c-0.254,0-0.46,0.236-0.46,0.527V2.45h-1.49c-0.254,0-0.459,0.236-0.459,0.526v23.307
		c0,0.29,0.205,0.527,0.459,0.527h17.386h17.608c0.258,0,0.463-0.237,0.463-0.527V2.976C35.959,2.686,35.752,2.45,35.496,2.45z
		 M35.039,25.756H18.417c0.202-0.828,0.859-1.44,1.646-1.44h13.26c0.256,0,0.461-0.238,0.461-0.527V3.502h1.256V25.756
		L35.039,25.756z M0.961,25.756V3.502h1.031v20.287c0,0.289,0.206,0.525,0.46,0.525h13.26c0.787,0,1.443,0.614,1.645,1.442H0.961
		L0.961,25.756z M2.911,1.138h12.801c0.746,0,1.375,0.55,1.61,1.312c0.054,0.167,0.084,0.343,0.096,0.527
		c0.001,0.043,0.011,0.086,0.011,0.129v0.396v20.491c-0.462-0.457-1.061-0.732-1.717-0.732H2.911V1.138z M20.062,1.138h12.799
		v22.124H20.062c-0.654,0-1.254,0.275-1.716,0.73V3.502V3.105c0-0.042,0.008-0.086,0.011-0.13c0.01-0.182,0.043-0.36,0.092-0.527
		C18.689,1.688,19.32,1.138,20.062,1.138z"/>
	<path fill="#8B2223" d="M4.79,4.407h10.758c0.252,0,0.458-0.233,0.458-0.526c0-0.149-0.056-0.282-0.143-0.379
		c-0.083-0.091-0.194-0.147-0.316-0.147H4.79c-0.123,0-0.235,0.058-0.316,0.147C4.386,3.6,4.332,3.732,4.332,3.881
		C4.332,4.174,4.537,4.407,4.79,4.407z"/>
	<path fill="#8B2223" d="M4.79,6.751h10.758c0.252,0,0.458-0.234,0.458-0.525c0-0.293-0.206-0.528-0.458-0.528H4.79
		c-0.253,0-0.458,0.237-0.458,0.528C4.332,6.517,4.537,6.751,4.79,6.751z"/>
	<path fill="#8B2223" d="M4.79,9.097h10.758c0.252,0,0.458-0.239,0.458-0.526c0-0.293-0.206-0.527-0.458-0.527H4.79
		c-0.253,0-0.458,0.234-0.458,0.527C4.332,8.858,4.537,9.097,4.79,9.097z"/>
	<path fill="#8B2223" d="M4.79,11.44h10.758c0.252,0,0.458-0.233,0.458-0.524c0-0.293-0.206-0.527-0.458-0.527H4.79
		c-0.253,0-0.458,0.234-0.458,0.527C4.332,11.207,4.537,11.44,4.79,11.44z"/>
	<path fill="#8B2223" d="M4.79,13.787h10.758c0.252,0,0.458-0.236,0.458-0.527c0-0.292-0.206-0.527-0.458-0.527H4.79
		c-0.253,0-0.458,0.235-0.458,0.527C4.332,13.55,4.537,13.787,4.79,13.787z"/>
	<path fill="#8B2223" d="M4.79,16.128h10.758c0.252,0,0.458-0.234,0.458-0.525c0-0.288-0.206-0.526-0.458-0.526H4.79
		c-0.253,0-0.458,0.238-0.458,0.526C4.332,15.894,4.537,16.128,4.79,16.128z"/>
	<path fill="#8B2223" d="M4.79,18.475h10.758c0.252,0,0.458-0.236,0.458-0.526c0-0.295-0.206-0.527-0.458-0.527H4.79
		c-0.253,0-0.458,0.232-0.458,0.527C4.332,18.239,4.537,18.475,4.79,18.475z"/>
	<path fill="#8B2223" d="M4.79,20.82h10.758c0.252,0,0.458-0.237,0.458-0.526c0-0.293-0.206-0.528-0.458-0.528H4.79
		c-0.253,0-0.458,0.235-0.458,0.528C4.332,20.583,4.537,20.82,4.79,20.82z"/>
	<path fill="#8B2223" d="M20.227,4.407h10.758c0.252,0,0.455-0.233,0.455-0.526c0-0.149-0.055-0.282-0.139-0.379
		c-0.084-0.091-0.195-0.147-0.316-0.147H20.227c-0.123,0-0.234,0.058-0.316,0.147c-0.086,0.097-0.143,0.229-0.143,0.379
		C19.768,4.174,19.973,4.407,20.227,4.407z"/>
	<path fill="#8B2223" d="M20.227,6.751h10.758c0.252,0,0.455-0.234,0.455-0.525c0-0.293-0.205-0.528-0.455-0.528H20.227
		c-0.254,0-0.459,0.237-0.459,0.528C19.768,6.517,19.973,6.751,20.227,6.751z"/>
	<path fill="#8B2223" d="M20.227,9.097h10.758c0.252,0,0.455-0.239,0.455-0.526c0-0.293-0.205-0.527-0.455-0.527H20.227
		c-0.254,0-0.459,0.234-0.459,0.527C19.768,8.858,19.973,9.097,20.227,9.097z"/>
	<path fill="#8B2223" d="M20.227,11.44h10.758c0.252,0,0.455-0.233,0.455-0.524c0-0.293-0.205-0.527-0.455-0.527H20.227
		c-0.254,0-0.459,0.234-0.459,0.527C19.768,11.207,19.973,11.44,20.227,11.44z"/>
	<path fill="#8B2223" d="M20.227,13.787h10.758c0.252,0,0.455-0.236,0.455-0.527c0-0.292-0.205-0.527-0.455-0.527H20.227
		c-0.254,0-0.459,0.235-0.459,0.527C19.768,13.55,19.973,13.787,20.227,13.787z"/>
	<path fill="#8B2223" d="M20.227,16.128h10.758c0.252,0,0.455-0.234,0.455-0.525c0-0.288-0.205-0.526-0.455-0.526H20.227
		c-0.254,0-0.459,0.238-0.459,0.526C19.768,15.894,19.973,16.128,20.227,16.128z"/>
	<path fill="#8B2223" d="M20.227,18.475h10.758c0.252,0,0.455-0.236,0.455-0.526c0-0.295-0.205-0.527-0.455-0.527H20.227
		c-0.254,0-0.459,0.232-0.459,0.527C19.768,18.239,19.973,18.475,20.227,18.475z"/>
	<path fill="#8B2223" d="M20.227,20.82h10.758c0.252,0,0.455-0.237,0.455-0.526c0-0.293-0.205-0.528-0.455-0.528H20.227
		c-0.254,0-0.459,0.235-0.459,0.528C19.768,20.583,19.973,20.82,20.227,20.82z"/>
</g>
</svg>
