<?xml version="1.0" encoding="utf-8"?>
<!-- Generator: Adobe Illustrator 16.0.0, SVG Export Plug-In . SVG Version: 6.00 Build 0)  -->
<!DOCTYPE svg PUBLIC "-//W3C//DTD SVG 1.1//EN" "http://www.w3.org/Graphics/SVG/1.1/DTD/svg11.dtd">
<svg version="1.1" id="Capa_1" xmlns="http://www.w3.org/2000/svg" xmlns:xlink="http://www.w3.org/1999/xlink" x="0px" y="0px"
	 width="48.8px" height="47.1px" viewBox="0 0 48.8 47.1" enable-background="new 0 0 48.8 47.1" xml:space="preserve">
<g id="corona" opacity="0.8">
	<path fill="#8B2224" d="M18.5,3.1c-0.3,0.6-0.8,0.9-1.2,1.5C17.9,4.7,18,4.3,18.3,4c0.5-0.6,1.1-1.3,1.6-1.7
		c-0.5,0.8-1.2,1.3-1.6,2.1c1.2-0.1,2-0.8,2.9-1.3c0.5-0.3,1.1-0.6,1.5-0.9c0-0.1,0.1-0.2,0.1-0.4c0.1-0.1,0.3-0.2,0.3-0.4
		c-0.5,0.4-0.9,1.1-1.5,1.4c0.1-0.5,0.8-0.8,1.1-1.3c-0.3,0-0.3,0.3-0.5,0.4c-0.3,0.3-0.7,0.6-0.9,1c-0.2,0-0.2,0.1-0.3,0.1
		c0.4-0.5,0.8-1,1.2-1.5c-0.7,0.4-1,1.5-1.9,1.8c0.5-0.6,1.1-1.1,1.5-1.8c-0.2-0.1-0.3,0.2-0.4,0.3c-0.5,0.5-1,1-1.4,1.7
		c-0.2,0.1-0.2,0.2-0.4,0.2c0.6-0.7,1.1-1.4,1.7-2.1c-0.8,0.1-1.3,0.4-2,0.6c0-0.2,0.3-0.4,0.5-0.4c1.1-0.4,2.8-0.8,4.1-0.6
		c-0.7,1.3-2.2,2-3.5,2.8c-0.5,0.3-1,0.5-1.6,0.7C20,5.2,21.8,5.1,22.6,6c-0.2,0.3-0.6,0.5-1.1,0.5c-0.2,0-0.3-0.1-0.5-0.1
		c-0.5,0-1,0.3-1.5,0.3c-0.4,0-0.7-0.1-1,0C16.8,6.7,15.8,5.8,14,6c0.5,0.1,0.9,1.2,0,1.2c-0.2-0.1-0.2-0.3-0.4-0.4
		c-0.5,0.1-0.7,0.5-1.1,0.7c0.3-0.5,0.9-0.7,1.2-1.2c-0.2,0-0.4,0.3-0.7,0.6c-0.3,0.3-0.8,0.6-0.5,0.9c1.8,0,3.6,0,4.8,0.5
		c-0.2,0.5-0.8,0.6-1.3,0.7c-0.5,0.2-0.9,0.6-1.3,0.7c-0.6,0.2-1.2-0.1-1.7,0.2c1,0.3,2.1,0.6,3.4,0.5c0,0.2,0,0.4,0,0.7
		c-0.9,0.5-1.9,1.2-3.1,1.1c-1.3-0.1-2.5-0.8-3.4-1.3c-0.8-0.3-1.4,0.1-1.8,0.4c0-0.4,0.3-0.4,0.3-0.8C9,10,9.6,9.3,10.3,8.9
		c0.2-0.5,0.5-0.9,1-1.1c0-0.3,0.4-0.4,0.6-0.6c0.3-0.4,0.5-1,0.7-1.5c0.2-0.6,0.7-1.5,0.5-2.1c-0.4,0.1-0.6,0.4-0.8,0.7
		c-0.3,0.4-0.6,0.8-1.2,1C10.8,6,10,6.3,9.8,7.1c-0.1,0-0.1,0.2-0.3,0.2c-0.6,1.3-1,2.8-1.7,4c0.3,1.6-0.3,3-0.7,4.2
		c0.4-0.1,0.2-1.1,0.7-1.2c0,0.5-0.4,0.8-0.4,1.4c0,0.2-0.2,0.2-0.2,0.3c0.5-0.2,1.1-0.8,1.6-1.1c0.1-0.3,0.3-0.6,0.4-0.9
		c0.1-0.3,0.2-0.7,0.6-0.8c-0.2,0.5-0.5,1-0.7,1.5c0.2,0,0.5-0.2,0.7-0.3c0.1-0.3,0.3-0.6,0.5-1c0.1-0.2,0.2-0.6,0.5-0.6
		c0,0.5-0.5,0.6-0.5,1.1c0.3-0.3,0.6-0.8,0.8-1.3c-0.4,0-0.6,0.1-0.9,0.3c0,0.1,0,0.2,0,0.3c-0.3,0.4-0.3,1.1-0.9,1.3
		c0.2-0.5,0.6-0.9,0.7-1.5c-0.4,0-0.5,0.2-0.8,0.3c-0.1,0.5-0.4,1.5-0.8,1.8c0.2-0.6,0.5-1.1,0.7-1.6c-0.7,0.2-0.5,1.7-1.3,2
		c0.3-0.5,0.5-1.1,0.7-1.6c-0.4,0-0.6,0.4-0.9,0.5c0.3-0.5,0.9-0.9,1.5-1.2c0.8-0.4,1.4-0.8,2.2-0.7c-0.2,0.7-0.4,1.3-0.8,1.8
		c0.8-0.3,1.9-0.8,2.9-0.5c-0.1,0.5-0.6,0.9-1.1,1.1c-0.1,0-0.1,0.2-0.1,0.2c-0.4,0.1-0.7,0.3-1.1,0.5c0,0.1-0.1,0.2-0.1,0.3
		c-0.6,0.5-1.2,1.1-2,1.3c-0.1,0.1-0.2,0.2-0.3,0.4c-0.1,0-0.2,0.1-0.4,0c-0.5,0.3-1.6,0.2-1.7,0.9c-0.4,0-0.5,0.1-0.6,0.3
		c0.3,0.1,0.8-0.1,0.9,0.3c0.7-0.3,1-1.6,2-1.1c-0.2,1-0.6,1.8-0.9,2.7c0.9-0.6,1.4-1.6,2.6-1.8c0,0.2-0.2,0.2-0.2,0.3
		c0,0.8-0.2,1.3-0.5,1.9c-0.4,0.8-0.5,1.4-1.2,1.7c-0.3,0.6-0.7,1.1-1.2,1.5C7.1,24.7,5.9,25,5.9,26c0.2,0,0.3-0.2,0.5-0.3
		c0.9-0.3,0.9,0.9,1.3,1.4c-0.1,0.2-0.2-0.2-0.3-0.3c-0.2,0.2-0.2,0.5-0.4,0.8c0.3,0.4,0.8,0.7,0.8,1.5c0.4-0.6-0.5-1-0.6-1.6
		c0.3,0,0.3,0.4,0.6,0.6c0.1-0.4-0.5-0.5-0.4-0.9c0.2-0.1,0.3,0.3,0.5,0.4c0.1-0.5-0.4-0.7-0.3-1.2c0.1-0.1,0.3,0.1,0.3,0.2
		C8,26.9,8,27.4,8.1,27.7c0.5-0.7,0.5-1.9,0.8-2.8c0.2-0.1,0.3-0.2,0.5-0.2c0.3,0.1,0.2,0.3,0.3,0.6c0,0.3,0.3,0.6,0.3,0.8
		c0.1,0.7,0.5,1.5,0.6,2c0,0.6-0.2,0.9-0.3,1.3c0,0.2,0,0.4,0,0.7c0,0.5-0.3,1.1-0.5,1.5C9.5,32.1,9,32.6,9,33
		c0,0.3,0.5,0.6,0.4,0.9c0,0.1,0.1,0,0.2,0c-0.1,0.2,0,0.5,0.2,0.6c0.1-0.2-0.1-0.4,0.1-0.5c0-0.1-0.3,0-0.3-0.2
		c0.2-0.1,0.3-0.1,0.5-0.1c-0.2-1.5,0.3-2.7,0.7-3.7c0.6,0.4,0.7,1.3,1.1,1.9c0.1-0.6,0.4-1.2,0.3-1.8c0.3,0,0.3,0.2,0.4,0.3
		c0.8,0.7,1,2,1.4,3.1c0.1,0.2,0,0.4,0,0.6c0,0.2,0.1,0.1,0.1,0.3c0.3,1.2-0.5,3.1-0.2,4c0.1,0.3,0.5,0.4,0.8,0.7
		c0-0.1,0-0.2-0.1-0.3c0.2-0.1,0.3,0.3,0.5,0.4c-0.1-0.3-0.4-0.4-0.3-0.7c0.2-0.1,0.4,0.1,0.6,0c-0.1-0.4-0.8-0.3-0.7,0.1
		c-0.1-0.1-0.1-0.2-0.1-0.3c0.3,0,0.4-0.2,0.6-0.3c0.1,0.1,0.3,0.1,0.4,0.2c0.3,0.4,0.2,0.8-0.2,0.9c0.1,0.4,0.7,0.4,1,0.6
		c0-0.4-0.4-0.4-0.6-0.7c0-0.1,0.2-0.3,0.1-0.4c0.4,0.1,0.5,0.7,0.9,1c0.1,0.1,0.4,0.2,0.6,0.3c0.3,0.2,0.5,0.4,0.9,0.5
		c0-0.4-0.5-0.5-0.7-0.8c-0.5-0.6-0.8-1.4-1.1-2.2c0.7,1.1,1,2.4,2.2,2.9c-0.4-0.5-0.7-1-1-1.6c-0.1-0.2-0.2-0.4-0.3-0.6
		c-0.3-0.7-0.2-1.6-0.6-2.3c-0.2-0.1-0.5-0.1-0.7-0.3c0.1-0.1,0.3,0.1,0.4,0.1c-0.4-0.6-0.8-1.2-1.6-1.5c-0.2-0.1-0.5,0-0.6-0.2
		c1.3-0.3,1.9,0.9,2.7,1.5c0.8,1.2,0.5,3.4,1.6,4.2c0,0.1,0,0.1,0,0.2c0.2,0.1,0.3,0.2,0.5,0.2c0,0.1-0.1,0.2,0,0.3
		c0.3,0.3,0.9,0.2,1,0.6c0.8-0.1,1.4,0.4,2,0.4c-0.1-0.2-0.4-0.2-0.6-0.3c-0.8-0.2-1.5-0.5-2.1-0.8c0.3,0,0.6,0.3,1,0.3
		c-0.4-0.5-1.2-0.7-1.4-1.4c0.1,0,0.2,0,0.2,0c0-0.1-0.2,0-0.2,0c0,0-0.1,0-0.1,0c-0.3-0.6-1.1-1.3-0.6-1.9c0.7-0.8,2.7-1.3,4.2-1.1
		c0.5,0.8,0.5,1.8,1,2.6c0,0.1,0,0.2,0,0.3c0.3,0.2,0.3,0.6,0.8,0.6c-0.1,0.3,0,0.7,0,1c-0.2-0.1,0-0.4-0.1-0.6
		C24,40.3,24,40.6,24,40.8c-0.2-0.1-0.1-0.5,0-0.7c-0.4,0.1-0.2,0.9-0.3,1.3c-0.2-0.2-0.1-0.5-0.2-0.7c-0.3,0.3-0.4,0.9-0.3,1.3
		c0,0.1-0.1,0.1-0.2,0c0,0.3,0.1,0.4,0.1,0.7c-0.1,0-0.1,0.1-0.3,0.1c-0.1-0.2-0.1-0.3-0.1-0.5c-0.2,0-0.3,0.2-0.3,0
		c-0.9,0.4-2.1,0.6-2.9,1.2c-0.1,0-0.2,0-0.3,0c0.3,0.4,0.9,0.4,1.2,0.8c1.1-0.3,1.6-1.1,2.7-1.4c0.1,0.2,0,0.4,0.2,0.5
		c0.2-0.1-0.1-0.4,0-0.7c0.1,0.1,0.2,0.2,0.2,0.4c0.2,0.1,0.6,0,0.9,0.1c0.1,0.1,0,0.3,0.3,0.4c0.2-0.1,0-0.2,0-0.4
		c0.2,0,0.2-0.1,0.4-0.1c0-0.1-0.3,0-0.4,0c0-0.3,0.6-0.2,0.6,0c0-0.6,0.2-1.3-0.1-1.8c0.1-0.3,0.4-0.5,0.6-0.8
		c-0.5-0.2-0.8,0.3-1,0.7c-0.1-0.3,0-0.7-0.3-0.9c0-0.3,0.1-0.4,0.2-0.7c0.1-0.1,0.2,0,0.3,0c0-0.1-0.2,0-0.2-0.1
		c0.1-0.6,0.4-1,0.6-1.5c0.3-0.6,0.4-1.6,1.5-1.5c0.8,0.1,2.4,0.9,2.5,1.6c0.1,0.2-0.1,0.6-0.1,1c-0.1,0.6-0.2,1-0.5,1.4
		c0.3-0.1,0.3-0.3,0.5-0.4c0-0.2,0.1-0.2,0-0.3c0.8-1,0.9-2.5,1.8-3.3c0.3-1.2,1.1-2.1,2.1-2.7c0.1,0,0.1-0.1,0.1-0.2
		c0.2,0,0.3-0.1,0.6-0.1c0,2.1-0.6,4-1.6,5.3c0.2,0,0.4-0.3,0.6-0.3c1.6-1.1,1.3-4.1,2.3-5.7c0.1-0.6,0.5-0.9,0.9-1.3
		c0.4-0.5,0.7-1,1.2-1.1C37.2,31,37.1,32,37.1,33c-0.1,1.1-0.3,1.9-0.7,2.7c0.6-0.2,0.9-1,1.5-1.4c0-0.2,0.2-0.3,0.3-0.4
		c0.1,0,0.1,0,0.2,0c-0.1-1.4-0.8-2.5-0.8-4c0-1.2,0.3-2.2,0.6-3.2c0.3-0.8,0.3-1.8,0.9-2.2c0.2,0.4,0.4,0.9,0.5,1.4
		c0.2-0.1,0.1-0.5,0.4-0.5c0.2,0.1,0.3,0.4,0.4,0.7c0.1,0.3,0.2,0.5,0.3,0.7c0.1,0.3,0,0.4,0,0.7c0,0.6,0.6,1.1,0.4,1.8
		c0.8-0.4,0-1.1,0-1.8c0.3,0,0.3-0.2,0.4-0.3c-1.3-1.9-3-4.4-2.5-7.5c0.7,0.5,1.5,0.8,1.7,1.8c-0.2-0.1-0.3-0.4-0.5-0.5
		c-0.3-0.3-0.5-0.7-1-0.9c0,0.8,0.1,2.1,0.5,2.9c0.3,0.2,0.7,0.3,0.9,0.6c0.1,0.1,0.4,0,0.4,0.2c-0.3,0.1-0.5-0.3-0.8-0.3
		c0,0.3,0.6,0.4,0.8,0.7c-0.4,0-0.5-0.3-0.9-0.3c0.1,0.3,0.7,0.3,0.8,0.7c-0.2-0.2-0.5-0.3-0.8-0.4c0.1,0.3,0.7,0.5,1,0.7
		c-0.3,0.1-0.5-0.3-0.9-0.3c0,1.1,0.9,1.7,1.3,2.6c0.1-0.2,0.2,0,0.3,0c0-0.3-0.5-0.2-0.5-0.4c0.2,0,0.2,0.2,0.4,0.1
		c0-0.3-0.7-0.3-0.8-0.7c0.2,0.1,0.4,0.3,0.6,0.4c0.1-0.6-0.9-0.4-1-0.9c0.3,0.1,0.5,0.4,0.9,0.5c0-0.2-0.1-0.3-0.3-0.4
		c0.1-0.3-0.1-0.9-0.4-1.1c-0.1-0.1,0.1,0,0.1-0.1c-0.3-1.3-0.7-2.9,0-3.9c-0.1,0.8-0.1,1.7,0,2.5c0.1,2,1.6,3.7,0.6,5.6
		c0.2,0.3-0.2,0.5-0.1,0.7c0.7-1.2,1.2-2.7,1.5-4.3c0.1,0,0,0.1,0,0.2c0-0.7,0.1-1.7-0.3-2.3c-0.1,0,0,0.2-0.1,0.1
		c-0.1-0.5-0.5-0.7-0.7-1.1c-0.2-0.5-0.2-1.2-0.5-1.5c-0.1-0.1-0.2-0.1-0.3-0.2c0.2-0.7-0.4-0.6-0.8-0.8c-0.1-0.1-0.2-0.2-0.3-0.3
		c-0.4-0.2-0.9-0.3-1.3-0.6c-0.7-0.5-1-1.1-1.5-1.8c-0.3-0.5-0.7-0.9-0.7-1.4c1.9,0.1,3.1,0.9,4.3,1.7c0.2,0-0.1-0.1,0-0.1
		c0.2,0,0.4,0.2,0.6,0.1c-0.3-0.4-1.3-0.1-1.5-0.7c-0.4,0-0.5-0.3-0.9-0.4c-0.2-0.9-0.8-1.3-0.9-2.2c0.4,0,0.5,0.2,0.7,0.2
		c0,0.1,0,0.2-0.1,0.2c0.1,0.2,0.3,0.2,0.4,0.2c0,0.1-0.2,0-0.2,0c0.1,0.3,0.8,0.1,0.9,0.4c-0.3,0-0.4-0.2-0.7-0.1
		c0.2,0.3,1,0.2,1.2,0.4c-0.5,0-0.9-0.2-1.3-0.2c0,0-0.1,0-0.1,0c0,0,0.1,0,0.1,0c0.5,0.2,1.1,0.3,1.6,0.4c-0.3,0.1-0.7-0.1-1-0.1
		c0.2,0.4,1,0.2,1.3,0.5c-0.3,0.1-0.8-0.1-1.2-0.2c0.1,0.2,0.8,0.3,1.3,0.3c-0.3-1-1.2-1.3-2-1.8c0-0.3,0.2-0.5,0-0.8
		c-1.4-0.2-3-0.1-4.1-0.5c-0.5-0.1-0.8-0.4-1.3-0.6c-1-0.3-1.8-0.7-2.4-1.3c1-0.4,2.5-0.7,3.9-0.4c-0.8,0.2-1.7,0-2.5,0.2
		c-0.3,0.1-0.5,0.3-0.8,0.2c0,0.2,0.2,0.1,0.4,0.1c0.8,0.4,1.6,0.7,2.6,1.1c1.3,0.5,2.6,0.5,4.3,0.7c0.1-0.2-0.5-0.4-0.2-0.4
		C39,12,38.8,12,38.6,12c0,0.2,0.4,0.2,0.4,0.4c-0.4-0.2-0.6-0.7-1.2-0.7c0,0.3,0.3,0.3,0.4,0.5c-0.3,0.1-0.3-0.3-0.6-0.3
		c-0.1,0,0.1,0.1,0,0.2c-0.2-0.2-0.4-0.3-0.5-0.5c0.2,0.1,0.3,0.2,0.5,0.2c-0.3-0.2-0.7-0.3-1.3-0.3c0,0.1,0.4,0.3,0.5,0.6
		c-0.2-0.2-0.7-0.4-0.7-0.7c-0.7,0-1.4-0.1-2-0.3c-0.1,0.1,0.4,0.1,0.3,0.3c-0.3,0-0.4-0.3-0.6-0.4c-0.2,0.2-0.5-0.1-0.6-0.2
		c0.3-0.1,0.5,0.1,0.6,0.1c0.9,0.3,1.9,0.2,2.8,0.4c0.9,0.2,1.6,0.6,2.5,0.7c-0.2-0.1-0.1-0.2-0.1-0.2c-0.1-0.3-0.6-0.5-1-0.7
		c-0.2-0.3-0.5-0.4-0.9-0.5c0.2,0.2,0.8,0.7,1,1.1c-0.2,0-0.3-0.2-0.4-0.4c-0.3-0.3-0.8-0.5-0.9-1c0.7,0.2,1.2,0.6,1.9,0.8
		c-0.1-0.5-0.5-0.9-0.8-1.2c-0.3-0.3-0.7-0.6-1.4-0.7c-0.1,0.2-0.2,0.5-0.4,0.6c-0.4-0.1-0.8-0.2-1-0.4c0.1-0.1,0-0.3,0.1-0.4
		c0.5-0.2,1.5-0.3,1.8,0.1c-0.2,0-0.9-0.4-1.2,0c0.4,0.1,1,0.1,1.5,0c-0.1-0.3-0.5-0.4-0.8-0.5c-0.3-0.1-0.7-0.3-1-0.3
		C34.7,8,34,8.4,33.3,8.4c-1.1,0.1-2,0-2.8-0.2c-0.4-0.1-0.8-0.4-1.2-0.6c-0.3-0.1-0.7-0.2-0.9-0.3c-0.9-0.4-1.4-0.9-2.2-1.4
		C26,5.6,25.8,5.4,25.8,5c1-0.3,2.5-0.2,3.3,0.2c0.1-0.1,0.1-0.2,0.2-0.1c-0.1-0.4-0.5-0.5-0.7-0.8c-0.7-0.8-1.4-1.5-2.2-2.3
		c0-0.3-0.1-0.4-0.1-0.6c0.7,0,1.3,0.3,1.9,0.6c0.7,0.3,1.5,0.7,2.2,1C30,2,29,1.4,28.8,0.2c1,0.5,2,0.7,2.8,1.3
		c0.2,0.1,0.3,0.4,0.5,0.5c0.4,0.3,0.8,0.5,1.2,0.7c0.7,0.5,1.3,1.2,1.8,2c0.3,0.5,0.5,1.2,0.9,1.5c0,0.1,0,0.2,0,0.2
		c0.4-0.4,1.2,0.1,1.1,0.9c0,0.2-0.2,0-0.3,0.1c0.3,0.2,0.6,0.4,0.9,0.7c-0.5-1.4-0.8-2.9-0.6-4.8c0.6,0.2,0.9,0.7,1.2,1.1
		c0.6,0.4,0.8,1.1,1.1,1.8c0.2-0.1,0.2-0.4,0.2-0.7c0.3,0.7-0.1,1.6-0.1,2.4c0,0.7,0.1,1.7,0.3,2.3c0,0,0,0.1,0,0.1
		c0.4,0.6,0.5,1.4,0.7,2.1c0.3-1-0.2-2.1-0.3-3.1c-0.1-1.1-0.1-2.2-0.3-3.3c0.3,0.7,0.4,1.8,0.5,2.8c0.1,1.1,0.2,1.9,0.3,2.9
		c0.6-1.3,0.5-3.3,0-4.6c-0.2-0.6-0.6-1.8-1.1-1.6c-0.2-0.1-0.2-0.5-0.1-0.8C40,5,40.3,5.5,40.6,6c0.3,0.4,0.7,0.9,0.7,1.5
		c0,0.2-0.1,0.4,0,0.6c0,0.3,0.3,0.6,0.3,0.9c0.1,0.5,0,1.1,0,1.7c0.2,0.2,0.1,0.5,0.2,0.8c0.5,0.1,0.3,0.9,0.7,1.1
		c0.3-0.9,0.4-2,0.8-2.8c0.1-0.3,0.2-0.6,0.5-0.8c0.2,0.2,0.3,0.6,0.4,0.9c0.1,0.3,0.2,0.7,0.2,1.1c0.3-0.2,0.2-0.7,0.7-0.7
		c0,0.8,0.5,1.4,0.6,2.2c0,0.3,0,0.6,0,0.9c0.1,0.6,0.3,1.1,0.3,1.7c0.1,1.5-0.3,2.8-0.9,3.9c0,0-0.1,0.1-0.2,0
		c-0.1,0.1,0.2,0.2,0,0.2c-0.5,1.1-0.9,2.4-1.3,3.5c1.2-1.3,2.1-3.2,3.8-4.2c0.2,1.2-0.5,1.9-0.6,2.9c0.8-0.6,1.3-1.4,2.1-1.9
		c0,0.7-0.1,1.3-0.3,1.8c-0.3,1.2-0.9,2.3-1.6,3.1c-0.8,0.8-1.7,1.6-2.8,2.1c0.2-0.2,0.5-0.4,0.7-0.6c-0.1,0-0.2-0.3-0.1-0.4
		C45,25.7,44.9,26,45,26c0.1-0.1-0.2-0.6,0.2-0.7c0.1,0,0,0.3,0.1,0.3c0.2-0.1-0.2-0.4,0-0.6c0.1,0,0.1,0.2,0.2,0.4
		c0.6-0.3,1-0.8,1.5-1.2c0-0.6-0.4-0.9-0.3-1.7c0.3,0.2,0.2,1,0.5,1.2c0.2-0.5-0.7-1.4-0.3-1.7c0.1,0.5,0.4,0.8,0.4,1.4
		c0.3-0.5-0.4-1-0.3-1.7c-0.9,0.7-0.8,1.9-1.4,2.8c-0.6,0.9-1.3,1.5-2.3,2c-0.2,0.4-0.5,0.8-0.9,1c-0.1,0.8-0.7,1.1-0.9,1.7
		c1.4-0.7,2.6-1.7,3.9-2.6c0.6-0.4,1-0.9,1.8-1c0.3,1.5-1,1.8-1.7,2.5c-0.2,0.2-0.3,0.6-0.5,0.9c-0.2,0.3-0.6,0.4-0.8,0.7
		c0.6-0.2,1.1-0.5,1.7-0.6c0,0.2-0.2,0.2-0.5,0.2c-1.3,0.6-2.5,1.4-3.7,2.2c0,0.1,0.1,0,0.1,0c-0.1,0.5-0.7,0.9-0.9,1.5
		c0.6-0.3,0.9-1.5,1.5-1.8c-0.3,0.7-0.9,1.1-1.2,1.8c-0.1,0-0.1,0.1-0.2,0c0.8,0.1,1.5-0.3,1.9-0.7c0-0.1-0.2,0.1-0.1-0.1
		c0.3-0.4,0.6-0.9,0.9-1.3c0.3-0.4,0.6-0.9,1-1.2c-0.4,0.7-1.1,1.6-1.5,2.5c0.3-0.1,0.5-0.5,0.9-0.6c0.1-0.1-0.1-0.1,0-0.2
		c0.5-0.6,0.8-1.5,1.5-2c-0.4,0.7-0.9,1.3-1.3,2c0.1,0.1,0.3-0.1,0.4-0.2c0.2-0.7,0.7-1.5,1.4-2c0,0.1-0.2,0.2-0.2,0.3
		c0.2-0.1,0.2-0.3,0.3-0.4c0-0.1-0.1,0-0.2,0c0.1-0.2,0.3-0.2,0.6-0.3c-0.2,1-0.6,1.6-1.2,2.2c-0.3,0.3-0.6,0.5-0.9,0.7
		c-0.5,0.4-1.3,1.1-1.9,1.3c-0.8,0.3-1.6,0.3-2.4,0.6c-0.1,0.1,0.1,0.3-0.2,0.3c0.4,0.7-0.8,1-1.1,0.4c-0.5,0.2-0.8,0.5-1.2,0.9
		c0.4,0,1-0.2,1.2-0.6c0.1,0.1,0.3,0.1,0.3,0.3c-0.9,0.3-1.8,0.7-2.5,1.2c0.1,0.1,0.1-0.1,0.2,0c-0.1,0.2-0.2,0.3-0.3,0.4
		c0.6,0,0.9-0.3,1.5-0.4c0-0.1-0.1-0.1-0.2-0.1c0.2-0.2,0.3-0.4,0.6-0.5c0.1-0.2,0.2-0.4,0.5-0.4c-0.2,0.4-0.7,0.6-0.8,1.1
		c-1.6,0.3-3.1,0.8-4.3,1.5c0.9,0.1,1.8,0.1,2.8,0.2c1,0.1,1.9-0.1,2.9-0.3c0.2,0,0.5,0,0.7,0c0.7-0.1,1.2-0.6,1.7-0.7
		c0.5-0.2,0.8-0.1,0.9-0.6c-0.5-0.2-1.2,0.1-1.7-0.1c0.7-0.1,1.9-0.2,2.3,0.2c-0.4,0.7-1.1,0.8-1.9,1.2c-1,0.4-2.3,0.8-3.6,0.8
		c0,0.3,0.4,0.1,0.6,0.2c0.1,0.1,0.2,0.1,0.2,0.2c0.7,0,1.2,0.2,1.7,0.4c0,0.4-0.2,0.5-0.3,0.7c-0.4,0.2-1.2,0-1.4,0.4
		c-1.4-0.3-2,0.4-3.3,0.4c0.4,0.5,1.4,0.7,1.8,1.3c-0.1,0.1-0.2,0.1-0.2,0.2c-0.4,0-0.6,0-0.8,0.2c-0.3,0-0.7,0-0.9,0
		c-1.4,0.1-2.6,0-3.6-0.3c-0.4-0.1-0.9-0.1-1.3-0.2c-1.3-0.2-2.3-0.7-3.7-0.4c0.1,0.2,0.4,0.2,0.6,0.2c-0.2,0.1-0.4-0.1-0.6-0.1
		c0.7,0.5,1.8,0.9,3,0.8c0.2,0,0.3-0.1,0.5-0.1c1.1-0.1,1.8,0.6,2,1.2c0.8,0.3,2,0.3,2.9,0.6c0,0.2,0.2,0.2,0.2,0.3
		c-0.8,0.3-1.6,0.7-2.6,0.6c-0.4,0-0.7-0.4-1.1-0.3c-0.4,0.1-0.5,0.8-0.7,1.1c-0.3,0.4-0.9,0.4-1.2,0.9c0,0.1,0.1,0.1,0.2,0.2
		c0,0.3-0.6,0.2-0.7,0c0.1-0.5-0.1-1.2,0.3-1.3c-0.3,0-0.4,0.2-0.6,0.3c0,0.1,0.1,0.1,0.1,0.2c-0.2,0-0.4,0-0.5-0.1
		c0-1.1,1.3-1,1.6-1.9c-0.1-0.4-0.6,0.1-0.6-0.1c-0.3,0.2-0.6,0.5-0.8,0.9c-0.7,0.2-1.4,0.4-2.1,0.6c-0.6-0.5-1.1-1-1.7-1.5
		c-0.1,0-0.1,0.1-0.2,0.1c-0.1-0.1,0.1-0.1,0.1-0.3c-0.2-0.3-0.5,0-0.8,0c-0.1,0-0.3-0.1-0.4-0.1c-0.3,0-0.5,0.4-0.8,0.4
		c-0.6,0.5-1.1,1.3-1.7,1.6c0,0-0.1,0-0.1,0c-1,0.3-2-0.2-2.5-0.5c-0.7-0.4-1.1-1.2-1.9-0.7c0.7,0.3,1.4,0.7,1.7,1.3
		c-0.6,0.2-1.1-0.1-1.5-0.3c-0.1,0.3,0.3,0.7,0.3,0.9c-1-0.1-1.2-1-1.9-1.4c-0.8,0-1.6,0-2.1-0.2c-0.2-0.1-0.3-0.2-0.4-0.2
		c-0.3,0-0.4,0.3-0.6,0.2c-0.1-0.1,0.2-0.2,0.3-0.3c0.5-0.2,1.2-0.3,1.7-0.6c0.7-0.3,1.2-0.9,2.1-0.9c-0.1,0.3-0.7,0.2-0.9,0.4
		c0.4,0.3,0.8,0.1,1.2,0.1c0.5,0.1,0.8,0.6,1.2,0.9c0.3,0.2,0.6,0.3,0.9,0.5c0.2-0.4,0.4-0.7,0.8-0.9c-0.2,0.3-0.5,0.6-0.7,0.9
		c0,0.1,0.1,0.1,0.1,0.2c0.4-0.2,0.4-0.7,0.7-1c0.1,0.4-0.7,0.8-0.4,1.2c0.4-0.2,0.3-0.8,0.6-1.1c0.2,0.5-0.5,0.8-0.2,1.3
		c0.3-0.2,0.2-0.8,0.4-1.1c0.3,0.4-0.4,0.9-0.1,1.2c0.4-0.1,0.1-0.9,0.5-1.1c0.2,0.3-0.4,0.9,0,1.1c0.2-0.2,0.1-0.8,0.2-1.1
		c0.4,0.2-0.1,0.8,0.1,1.1c0.4-0.1,0-0.8,0.1-1c0.4-0.1,0.1,0.6,0.2,0.9c0.7-0.4,1.4-1.2,2-1.8c0-0.2-0.1-0.3-0.2-0.4
		c-0.8,0.3-1.2,0.9-2,1.2c-1.3-0.6-2.1-1.7-4.2-1.4c0.2-0.3,1-0.1,1.3-0.3c0,0.1,0,0.1,0,0.2c1.4-0.4,2.7-0.8,4-1.3
		c-0.1-0.1-0.3-0.1-0.3,0.1c-0.6,0-1-0.4-1.5-0.5c-1.2-0.2-2,0.6-2.9,0.9c-0.7,0.2-1.4,0.5-2.3,0.6c-1.6,0.1-2.5-0.3-4.2-0.4
		c0.5-0.6,1.4-0.9,2.2-1.2c1-0.4,2-0.9,3-1.1c-0.7-0.1-1.5-0.7-2.2-0.7c-0.2,0-0.5,0.1-0.7,0.1c-0.7,0-1.3,0.3-2,0.3
		c-1.9,0.1-3.3-0.7-4.9-1.5c-0.1-0.6,0.4-0.6,0.9-0.7c-0.8-1.1-2.4-1.4-2.9-2.7c0.4-0.3,1-0.2,1.4,0c-0.1-0.4-0.5-0.5-0.5-1.1
		c0.7-0.3,1.3,0.3,2,0.4c0.2,0,0.4,0,0.6,0c0.6,0.1,1.3,0.5,1.8,0.7c-0.1-0.5-0.6-0.6-0.9-0.9c-1,0-1.7-0.5-2.4-0.9
		C5,32.6,4.4,32.2,4,31.8c-0.5-0.5-0.7-1.1-1.2-1.6C2.1,29.4,1.2,29,1.1,28C2.7,27.7,3,29,4,29.4c0-1.1-1.5-1.9-1.1-3.1
		c1.1,0.2,1.8,1.1,2.6,1.8c-0.1-1.1-0.7-2-1.5-2.6c-0.1,0,0,0.2-0.1,0.1C2.9,25.4,2,24.8,1.3,24c-0.6-0.7-1-1.7-1.1-2.6
		c-0.1-1.3-0.4-2.5-0.1-3.6C0.4,18,0.6,18.3,1,18.5c0.1,0.3,0.2,0.6,0.5,0.8c0.1-0.7-0.3-2,0.3-2.5c0.4,0.2,0.7,0.5,0.9,0.7
		c0.4,0.5,0.6,1.2,0.9,1.8c0.1,0.3,0.4,0.4,0.5,0.7c0.2,0.3,0.2,0.6,0.4,0.8c0.1-0.4,0.3-1.3,0.2-1.8c-0.1-0.2-0.3-0.3-0.4-0.4
		c-0.6-0.8-1.1-2.3-1.4-3.4c0-0.1,0-0.2,0-0.2c-0.2-1.2-0.1-2.6,0.5-3.5c0.3,0.1,0.6,0.3,0.7,0.5c0.1-0.4-0.3-0.4-0.6-0.6
		c0-0.2,0.1-0.4,0.2-0.6c0.6,0.3,0.5,1,0.8,1.6c0.2,0.4,0.4,0.7,0.5,1.1c0.1-0.5-0.3-1-0.5-1.4C5,11,5.3,9.9,6.3,9.3
		c0.4,1,0,2.1,0,3.3c0.4-0.6,0.6-1.4,1.4-1.7c0.1-0.3,0.1-0.4,0.1-0.7c-0.2,0-0.1,0.2-0.3,0.2C7.3,10.3,7.2,10.1,7,10
		c0-0.3,0.1-0.6,0.3-0.7C8,9.3,8,9.8,8,10.5c0.4-0.7,0.1-1.4,0.1-2.2C8,6.9,8.3,6.1,8.9,5.1c0.4-0.7,1-1.8,1.7-2.1
		c0.1,0.8,0.4,1.5,0.2,2.3c0.3-0.1,0.5-0.4,0.7-0.6c0.8-0.3,0.9-1.3,1.7-1.7c0.5,0.7,0.2,1.6,0,2.2c0.2,0,0.3-0.4,0.6-0.5
		c0.2,0,0.2,0.1,0.3,0.2c0.1-0.2,0.2-0.3,0.3-0.4c0.4-1.2,1.4-2,2.4-2.8C17.7,1,19.4-0.2,20.7,0c0,0.9-0.7,1.2-1.2,1.7
		c-0.4,0.4-0.6,0.9-0.9,1.2c-1.1,1.2-2.4,2-4,2.6c1,0.1,1.8,0.6,3,0.7c0.8,0.1,1.6-0.1,2.4-0.2c0.4,0,1.1,0.1,1.5,0
		C22.9,6,21,5.5,20.8,5.3c-0.2,0.1-0.4-0.1-0.6-0.2c-0.4-0.1-0.8,0-1.2-0.1c-0.8-0.1-1.4-0.5-2.4-0.4C17.3,4.2,18,3.7,18.5,3.1
		C18.5,3.1,18.5,3.1,18.5,3.1z M20,0.2c-0.9,0.3-1.7,0.8-2.5,1.2c-0.3,0.6-1,0.8-1.5,1.3c-0.2,0.2-0.3,0.5-0.5,0.7
		C15.3,3.6,15,3.8,14.8,4C14.5,4.4,14.3,5,14,5.5c0.5-0.3,1.2-0.3,1.6-0.7c0.2-0.1,0.3-0.4,0.5-0.5C16.5,4,17,3.9,17.3,3.6
		c0.5-0.4,0.8-1,1.3-1.5c0.3-0.2,0.6-0.5,0.9-0.8C19.8,1,20.4,0.7,20,0.2C20,0.2,20,0.2,20,0.2z M29.8,0.9c-0.2-0.1-0.4-0.2-0.6-0.1
		C29.3,0.8,29.6,1,29.8,0.9z M29.5,1.2c0-0.1,0-0.1,0-0.1c-0.1,0-0.1-0.1-0.1,0C29.4,1.1,29.4,1.2,29.5,1.2z M29.7,1.2
		c0.2,0,0.6,0.1,0.8,0C30.4,1,29.9,1.1,29.7,1.2z M29.8,1.5c0,0.1,0.1,0.2,0.2,0.3c0,0.1,0.1,0,0,0c0-0.1,0.1-0.1,0.1-0.2
		C29.9,1.6,29.8,1.5,29.8,1.5c0.2-0.2,0.8,0.2,1.2,0c-0.3-0.1-0.9-0.2-1.3-0.1C29.7,1.4,29.7,1.5,29.8,1.5z M22.9,1.9
		c0.1,0,0.4-0.2,0.3-0.3C23.2,1.7,23,1.7,22.9,1.9z M32.8,2.9c-0.8-0.6-1.3-1.5-2.6-1.2c0.4,0.1,1.1,0,1.4,0.3c-0.2,0-0.3-0.1-0.5,0
		c0.1,0.3,0.7,0.1,0.8,0.4c-0.5,0-0.9-0.2-1.5-0.2c0.4,0.3,1.7,0.1,1.9,0.5c-0.4-0.1-1-0.2-1.5-0.1c0.6,0.2,1.5,0.1,2,0.4
		c-0.4,0.1-1.1-0.1-1.5,0c0.5,0.3,1.8,0,2,0.4c-0.7,0-1.4-0.2-2-0.2c0.6,0.3,1.9,0.1,2.3,0.6C33,3.6,32,3.5,31.4,3.5
		c0.4,0.2,0.8,0.3,1.2,0.6c0.3,0.2,0.4,0.5,0.8,0.7c0.4,0.2,1,0,1.3,0.4c-0.2,0.1-0.4-0.1-0.6,0c0.2,0.1,0.5,0.1,0.7,0.1
		C35,5.5,35,5.9,35.3,6.1c-0.1-0.7-0.6-1.1-0.9-1.7c-0.1,0-0.1,0.1-0.2,0.1c-0.4-0.3-1.3-0.1-1.5-0.5c0.7,0,1.2,0.1,1.6,0.3
		C34,3.7,32.4,4.3,32,3.6c0.8,0,1.2,0.3,1.9,0.3C33.7,3.6,33.3,3.2,32.8,2.9z M35.7,7.5c-0.6-0.7-1.2-1.4-1.7-2.1
		c-0.7-0.2-1.1-0.9-1.8-1.3c-0.4-0.2-0.9-0.3-1.3-0.5c-0.4-0.2-0.8-0.5-1.2-0.7c-0.4-0.2-0.9-0.3-1.4-0.4c-0.6-0.3-1-0.7-1.7-0.7
		c0,0-0.1,0-0.1,0.1c0,0,0.1,0,0,0C26.7,2,26.9,2,26.9,2.2c0.9,0.6,1.7,1.4,2.3,2.3c0.5,0.1,0.7,0.5,1,0.8c0.4,0.3,0.9,0.4,1.2,0.8
		c0.4,0,0.7,0.3,1.1,0.4c0.5,0.2,1,0.2,1.5,0.4c1.4,0.4,2.5,1.2,3.8,1.6C37.1,8,36.5,7.7,35.7,7.5z M30.4,1.9c0,0.1,0.4,0.1,0.6,0.1
		C30.9,1.9,30.5,1.9,30.4,1.9z M10.4,5.6c0.1-0.4,0.2-1.1,0-1.5c0-0.2,0.1-0.5-0.1-0.7C9.7,3.9,10.2,5,10.4,5.6z M38,8.3
		C38,8.2,38,8.3,38,8.3c0.2,0.4,0.7,0.6,1.2,0.8c0-0.5-0.2-0.8-0.2-1.3c-0.4-0.5-1.5-0.5-1.5-1.2c0.5,0.3,1,0.7,1.6,0.9
		c0-0.2-0.2-0.2-0.4-0.3c-0.3-0.5-1.2-0.4-1.3-1.1c0.5,0.4,1.1,0.7,1.7,1c0-0.5-0.3-0.8-0.3-1.3c-0.6-0.5-0.8-1.3-1.6-1.7
		c0,0.3,0.4,0.2,0.4,0.4c-0.2,0.1-0.3-0.2-0.4-0.1C37.5,4.8,37.9,4.7,38,5c-0.2,0-0.3-0.2-0.6-0.2c0.1,0.4,0.8,0.3,1,0.7
		c-0.4-0.2-1.1-0.3-1.2-0.7c0-0.1,0.2-0.3,0-0.4C37,5.7,37.5,6.7,37.7,8c0.1,0.9,1,1.2,1.7,1.6C39.1,9,38.1,9,37.9,8.3
		C38,8.2,37.8,8,37.8,7.8C38,7.9,38.4,8,38.2,8.2c0.3,0,0.8,0.2,0.9,0.6C38.7,8.7,38.4,8.5,38,8.3z M10.2,6c0-0.7,0-1.4-0.4-1.7
		C9.9,4.7,10,5.5,10.2,6z M8.5,7.1c0,0.4,0.3,0.7,0.4,1.1c0-0.6-0.4-1-0.2-1.5C8.9,6.9,8.8,7.4,9,7.6c0.1-0.3-0.3-0.8-0.1-1.2
		c0.2,0.2,0.2,0.8,0.4,1c0.1-0.6-0.5-1.1-0.1-1.5c0.1,0.4,0.1,0.8,0.4,1.1C9.5,6.4,9.2,6,9.4,5.4c0.2,0.2,0.1,0.8,0.4,0.9
		c0.1-0.5-0.5-1-0.1-1.4c0.1,0.5,0.3,1,0.3,1.6c0.1-0.7,0-1.5-0.3-1.9C9.4,5.3,8.4,6.4,8.5,7.1z M29.9,5.4c-0.9,0-2.2-0.4-3.1-0.4
		c-0.4,0-0.6,0.1-0.7,0.4c0.5,0.3,1,0.6,1.5,0.9c0.3,0.1,0.6,0.5,0.9,0.6c0.2,0.1,0.4,0,0.6,0.1c0.2,0.1,0.3,0.2,0.5,0.3
		c0.6,0.3,1.6,0.5,2.3,0.5c0.8,0.1,1.7,0.1,2.6,0c0.1-0.1-0.3-0.2-0.2-0.4c0.2,0.1,0.3,0.3,0.6,0.3c0.1,0-0.1-0.2,0-0.2
		c0.3,0.1,0.6,0.3,0.9,0.2C33.8,7,31.1,7,29.9,5.4z M14,5.3c0-0.1-0.1-0.2-0.3-0.2C13.7,5.2,13.8,5.3,14,5.3z M13.5,5.4
		c0.1,0,0.1,0.1,0.3,0C13.8,5.2,13.5,5.2,13.5,5.4z M12.1,7.4c-0.1,0-0.2,0-0.3,0c0.2,0.2,0,0.3-0.1,0.5c0,0.1,0,0.2,0.1,0.2
		c0-0.1-0.1-0.2,0-0.2c0.2,0.1,0.4,0.1,0.3,0.3c0.1,0,0.1,0,0.2,0c0.1-0.1,0-0.3,0-0.4c-0.2,0-0.4,0-0.4-0.2c0.5,0,0.6-0.4,0.9-0.8
		c0.4-0.4,1-0.8,0.3-1.3C12.9,6.2,12.6,7,12.1,7.4z M34.5,5.7c0-0.1-0.1-0.1-0.1-0.2C34.4,5.7,34.5,5.7,34.5,5.7z M34.9,6.1
		c0-0.1-0.1-0.3-0.2-0.2C34.7,5.9,34.8,6.1,34.9,6.1z M13.6,6.6c0.2,0,0.5-0.1,0.6,0c0,0.2-0.2,0.1-0.1,0.2c0.1,0,0.2,0,0.3,0
		c0-0.2,0-0.3-0.1-0.4C14.1,6.3,13.7,6.3,13.6,6.6z M35.9,6.7c0,0.2,0.1,0.5,0.3,0.4c0-0.1-0.2-0.3-0.1-0.4c0.2,0,0.2,0.1,0.3,0.1
		C36.5,6.5,36.1,6.6,35.9,6.7z M8.7,8.7c0-0.5-0.1-0.9-0.3-1.1C8.4,8,8.6,8.3,8.7,8.7z M13,8c-0.7,0.6-1.3,1.2-2,1.7
		c0.2,0,0.5,0,0.8,0C12.5,9.1,13.1,8.4,14,8c-0.2,0.2-0.5,0.5-0.9,0.8c-0.3,0.2-0.8,0.5-0.8,0.7c0.2,0.1,0.1-0.1,0.1-0.1
		c0.5-0.3,0.9-0.7,1.4-1C14,8.2,14.3,7.9,14.6,8c-0.5,0.5-1.2,0.9-1.7,1.5c0.4-0.1,0.9-0.2,1.5-0.3c0.5-0.1,1.5-0.2,1.2-0.5
		c0.2-0.2,0.5-0.2,0.6-0.5c-0.8-0.2-1.5-0.3-2.5-0.3c-0.2,0.5-0.8,0.6-1.2,0.9C12.2,9,12,9.5,11.4,9.5c0.7-0.6,1.4-1.2,2.2-1.7
		c-0.2-0.1-0.5,0-0.7,0C12.8,8,13,7.9,13,8z M33.1,8c-0.4-0.1-1-0.1-1.5-0.1C31.9,8.1,32.7,8.1,33.1,8z M10.4,9.1
		C10.4,9.1,10.4,9.1,10.4,9.1c-0.3,0.1-0.5,0.3-0.7,0.6c0.6-0.4,1.4-0.8,1.8-1.4c-0.1-0.1-0.1-0.2-0.2-0.2c-0.1,0.2-0.3,0.3-0.4,0.5
		c0.2,0,0.2-0.3,0.5-0.3C11.2,8.6,10.9,8.9,10.4,9.1z M15.9,8.7c0.3,0,0.5-0.2,0.6-0.4C16.2,8.2,16.1,8.5,15.9,8.7z M11.6,8.5
		c-0.2,0.4-0.9,0.6-1,0.9c0.4-0.3,0.8-0.5,1.2-0.9C11.7,8.5,11.7,8.5,11.6,8.5z M11.9,8.5c-0.2,0.5-1,0.7-1.2,1.1
		c0.4-0.4,1-0.5,1.3-1.1C12,8.5,12,8.5,11.9,8.5z M8.6,8.9c0-0.1,0-0.4-0.2-0.4C8.4,8.7,8.5,8.8,8.6,8.9z M38.1,9.1
		c0.1,0.2,0.4,0.4,0.7,0.6c0.2,0.2,0.5,0.5,0.7,0.4c-0.3-0.3-1-0.7-1.5-1.1C38,9,38,9.1,38.1,9.1z M36.1,9.4c0.1,0,0.1-0.1,0.1-0.2
		c-0.1,0-0.2,0-0.2,0.1C36,9.3,36.1,9.3,36.1,9.4c-0.4,0.1-0.4-0.3-0.6-0.4C35.3,9.3,35.8,9.6,36.1,9.4z M12.8,9.5
		C12.8,9.5,12.7,9.5,12.8,9.5C12.8,9.5,12.8,9.5,12.8,9.5z M39.4,11.4c0.1,0.2,0.3,0.5,0.6,0.4c-0.6-0.6-1.2-1.2-1.5-2
		c0.4,0.3,0.6,0.7,1.2,0.8c0-0.1-0.2-0.2-0.2-0.3c-0.6-0.1-0.8-0.6-1.2-0.8C38.4,10.3,39,10.9,39.4,11.4z M6.3,10.2
		c0-0.2,0-0.3,0-0.4c-0.1,0-0.1-0.1-0.1,0C6.2,9.9,6.1,10.2,6.3,10.2z M7.4,10.1C7.3,9.8,7.8,10,7.8,9.8C7.6,9.6,7,10,7.4,10.1z
		 M43.4,10.6C43.4,10.6,43.4,10.6,43.4,10.6c0.2,0.2,0.4,0.6,0.6,0.7c-0.1-0.3-0.2-0.7-0.1-1c-0.2,0-0.1-0.2-0.3-0.2
		c0,0.2,0.1,0.2,0.1,0.3c-0.1,0.1-0.2-0.1-0.3-0.1c0,0.3,0.3,0.3,0.3,0.5C43.7,10.8,43.6,10.6,43.4,10.6
		C43.5,10.6,43.4,10.6,43.4,10.6c0-0.1-0.1-0.1-0.1-0.2c0.1-0.2,0.2-0.4,0.3-0.6c-0.3,0-0.3,0.5-0.3,0.8
		C43.3,10.6,43.4,10.6,43.4,10.6z M9.3,10.1c0.4,0,0.9,0,1.2,0.1c-0.5,0.2-1.3-0.1-1.5,0.2c0.4,0,0.7,0,1,0.1c0,0.1,0,0.2,0,0.3
		c0.8,0.2,1.7,0.7,2.8,0.8c0.7,0.1,1.3-0.1,1.7-0.2c0.6-0.2,1.5-0.2,1.7-0.7C13.8,10.6,11.4,9.2,9.3,10.1z M5.3,10.9
		c0.1,0,0.2,0.1,0.1,0.2c-0.1,0-0.1-0.2-0.2-0.1c-0.1,0.7,0.4,1,0.3,1.6c-0.1-0.4-0.2-0.8-0.3-1.2c-0.7,0.4-0.2,1.1,0,1.7
		c0.1,0.4,0.2,0.7,0.3,0.9c0.6-0.5,0.2-1.7,0.2-2.4c0.1,0.4,0.1,0.8,0.3,1.1c0.2,0,0.1-0.2,0.2-0.3c-0.1,0-0.1,0.1-0.2,0
		c0-0.2-0.2-0.6,0-0.7c0,0.2,0,0.4,0.2,0.5c0.2-0.7-0.1-1.5-0.2-2.1c0.2,0.1,0,0.5,0.3,0.6c0-0.4-0.1-0.8-0.3-1.1
		C5.8,10.2,5.5,10.5,5.3,10.9z M39.8,11c0-0.2-0.2-0.2-0.4-0.3c-0.1-0.1-0.3-0.4-0.5-0.4C39.1,10.6,39.3,10.9,39.8,11z M43.1,12.1
		c-0.1-0.1-0.1-0.2-0.3-0.3c0,0.5,0.5,0.7,0.5,1c-0.2-0.1-0.2-0.4-0.5-0.4c0.2,0.4,0.2,0.8,0.8,0.8c0.1-0.4,0.2-0.9,0.3-1.5
		c-0.4-0.2-0.9-0.5-0.7-0.9c-0.2,0-0.2,0.3-0.3,0.5c0.2,0.4,0.5,0.6,0.7,1c-0.4-0.1-0.5-0.8-0.8-0.7C42.9,11.7,43.1,11.9,43.1,12.1z
		 M44,11.7c-0.1-0.3-0.5-0.5-0.7-0.8C43.5,11.3,43.7,11.5,44,11.7z M40,11.4c-0.1-0.2-0.4-0.4-0.6-0.4C39.5,11.2,39.7,11.4,40,11.4z
		 M44.4,11.4c-0.2,0.2-0.2,0.5-0.3,0.8c0.2,0,0-0.5,0.3-0.4C44.4,11.6,44.4,11.6,44.4,11.4c0.1-0.1,0.2-0.3,0.1-0.4
		C44.5,11.2,44.4,11.2,44.4,11.4z M41.4,11.4c-0.2,0-0.1,0.1-0.3,0.1c0,0,0,0,0-0.1c0.1-0.2,0.3-0.2,0.4-0.3
		C40.9,10.8,41.1,12.2,41.4,11.4z M45,11.4c0-0.1,0-0.3-0.2-0.3C44.8,11.2,44.9,11.3,45,11.4z M7.4,11.3c-0.5,1.1-1.2,2-1.7,3.1
		c-0.1,0.1-0.2,0-0.3,0.1c0.1,0.7-0.4,1.2-0.5,1.7c-0.1,0.6-0.1,1.5,0,2.1C5,19,5.4,19.7,5.1,20.5c0,0.1-0.2,0.1-0.2,0.2
		c0.2,0.4-0.1,1,0.1,1.3c0.1-0.7,0.2-1.5,0.3-2.2c0.1-0.7,0.2-1.6,0.6-1.9c0,0.3-0.3,0.5-0.2,0.9c0.4-0.9,0.5-1.8,0.9-2.7
		c0.1-0.3,0.3-0.5,0.4-0.8C7,15,7,14.9,7,14.7c0.1-0.5,0.4-0.9,0.5-1.5c0.1-0.6,0.1-1.1,0.3-1.7C7.6,11.4,7.6,11.3,7.4,11.3z
		 M4.3,12.7C4.3,12.7,4.3,12.7,4.3,12.7c-0.5-0.1-0.6-0.7-1.1-0.8c0.4,0.5,0.9,0.9,1.3,1.3C4.5,13,4.4,12.8,4.3,12.7
		c0-0.2-0.1-0.5-0.2-0.6c0,0.1,0,0.1-0.1,0.1c-0.2-0.3-0.5-0.5-0.7-0.7c0,0.1,0,0.2,0,0.2C3.7,12,4.1,12.2,4.3,12.7z M45.1,11.9
		c0-0.1-0.1-0.3-0.2-0.2C45,11.7,45,11.9,45.1,11.9z M45.2,12.6c-0.1-0.4-0.4-0.5-0.5-0.9c0,0-0.1,0-0.1,0
		C44.8,12,44.9,12.4,45.2,12.6z M41,11.8c-0.1,0.3,0,0.7,0.1,0.9c0.1-0.2,0.1-0.6,0.3-0.9C41.3,11.8,41,11.8,41,11.8z M41.8,16.4
		c0.1,0.1,0.2,0.2,0.3,0.4c0,0.3,0.1,0.3,0.2,0.5c0,0.1,0,0.2,0,0.3c0.2,0.4,0.4,0.9,0.7,1.4c0.4,0.7,0.8,1.2,0.7,2.4
		c-0.1,0-0.2,0-0.2,0.1c0,0.4-0.1,0.7-0.2,1c0.7-0.5,0.3-1.9,0.7-2.7c0.1,0.5-0.2,1.1-0.1,1.6c0.2-1,0.7-2.2,0.6-3.2
		c0-0.1-0.1-0.3-0.1-0.4c0-0.2,0-0.4,0-0.7c-0.1-0.4-0.3-0.8-0.5-1.2c-0.6-1.2-1.3-2.2-1.7-3.5c-0.3-0.1-0.3-0.6-0.6-0.7
		C41.3,13.3,41.6,15,41.8,16.4z M40.3,12.4c0-0.3-0.1-0.5-0.5-0.5C39.9,12.2,40.1,12.4,40.3,12.4z M45.3,13.3
		C45.2,13.4,45.4,13.3,45.3,13.3c-0.1-0.5-0.5-0.8-0.7-1.1C44.7,12.6,45,12.9,45.3,13.3z M4.7,13.8c-0.6-0.4-0.8-1-1.5-1.2
		c0.3,0.8,1.3,0.8,1.5,1.7c-0.6-0.3-0.8-1-1.5-1.2c0.2,0.5,0.9,0.5,0.9,1.1c0.3,0.1,0.7,0.3,0.6,0.7c-0.5-0.4-0.9-1-1.5-1.3
		c0,0.2,0.3,0.3,0.4,0.5c0.1,0.1,0.2,0.3,0.3,0.4c0.2,0.2,0.7,0.3,0.8,0.7c0.1,0.5-0.4,0.9-0.1,1.5c0.2-0.9,0.4-2,0.2-3.1
		c-0.5-0.4-1-0.8-1.5-1.2C3.5,13,4.5,13,4.7,13.8z M45.4,13.9c-0.3-0.4-0.6-0.9-0.9-1.3C44.7,13.1,45,13.7,45.4,13.9z M43.6,14
		c0-0.2-0.2-0.2-0.3-0.4c0.1-0.5-0.4-0.6-0.5-0.9C43,13.3,43.2,13.8,43.6,14z M40.7,12.8c0.2,0.2,0.3,0.5,0.5,0.6
		C41.1,13.2,41,12.8,40.7,12.8z M43.8,13.6c0-0.3,0.2-0.6,0.1-0.8C43.8,13,43.7,13.3,43.8,13.6z M39.4,13.2
		c-0.3,0.5,0.6,0.9,0.8,0.4c-0.1-0.1-0.2,0.2-0.4,0.1c0-0.2-0.1-0.3,0-0.4c0.5-0.1,0.8,0.2,1.1,0.3C40.9,12.9,39.8,12.9,39.4,13.2z
		 M44.5,13.1c0.3,0.6,0.5,1.2,1,1.5c-0.2-0.6-0.7-0.9-0.8-1.5C44.6,13.2,44.5,13.1,44.5,13.1C44.4,13.1,44.4,13.1,44.5,13.1z
		 M45.5,15.8c-0.2-0.9-0.9-1.7-1.5-2.4C44.5,14.2,45.1,14.9,45.5,15.8z M7,17.1C7,17.1,7,17.1,7,17.1c-0.2,0-0.3,0.3-0.3,0.2
		c0.1-0.4,0.1-0.9,0.4-1.2c0.1,0,0,0,0,0c-0.2,0.1,0-0.1-0.1-0.1c-0.3,0.6-0.4,1.3-0.6,2.1c-0.1,0,0,0.2,0,0c0,0,0,0,0,0
		c0.6-0.7,2.1-0.8,3-1.4c0.5-0.4,0.7-1,1.5-1.1c0.6-0.7,1.6-1,2.2-1.8c-1.3,0-2.4,0.7-3.7,0.9c-0.8,0.7-2,1.1-2.3,2.2
		c0.3,0,0.3-0.5,0.5-0.4C7.5,16.7,7.2,16.8,7,17.1z M40.1,14.1c0.8,0.1,1.2,0.9,1.2,1.7c-0.3,0-0.7-0.3-1-0.2c0.3,0.2,0.8,0.1,1,0.4
		c-0.2,0-0.6-0.2-0.8-0.1c0.2,0.2,0.6,0.2,1,0.3c0.1-0.9-0.2-1.4-0.3-2.1c-0.2-0.1-0.4-0.1-0.5-0.4C40.4,13.8,40.2,13.9,40.1,14.1z
		 M5.1,14.4c0-0.2,0-0.5-0.1-0.7C5,13.9,5,14.4,5.1,14.4z M39,14.2C39,14.4,39.1,14.2,39,14.2c0-0.2-0.1-0.5-0.3-0.4
		C38.9,14,38.9,14.2,39,14.2z M4.4,15.1C4.4,15.1,4.5,15.1,4.4,15.1c-0.3-0.4-0.8-1-1.2-1C3.7,14.3,4,14.8,4.4,15.1z M44.1,14.1
		c0.2,0.4,0.5,0.8,0.8,1.2c0.2,0.4,0.6,0.8,0.5,1.3c-0.4-0.7-0.8-1.4-1.4-2c0.4,0.7,0.6,1.6,0.9,2.5c0.1,0.3,0.1,0.6,0.3,0.7
		c0.1-0.2-0.4-0.8-0.3-1.2c0.2,0.3,0.2,0.6,0.4,0.8c0.1-0.1,0-0.2,0-0.4c0.1,0,0,0,0,0c-0.3-0.2-0.8-0.9-0.7-1.4
		c0.3,0.4,0.5,0.9,0.8,1.2c0.1-0.2,0.1-0.4,0.2-0.6C45.1,15.5,44.7,14.7,44.1,14.1C44.2,13.9,44,14.1,44.1,14.1z M4.4,15.6
		c-0.3-0.5-0.8-0.9-1.2-1.1C3.5,14.9,4,15.2,4.4,15.6z M39.6,15.2c0-0.2-0.3-0.2-0.2-0.4c0.1,0,0.2,0.1,0.2,0
		c-0.1,0-0.2-0.1-0.3-0.1C39.3,14.9,39.4,15.1,39.6,15.2z M3.3,14.9c0.3,0.4,0.7,0.6,1.1,1C4.1,15.5,3.7,15,3.3,14.9z M41.7,17.5
		c-0.3-0.7-1.2-1-1.7-1.5c-1-0.2-1.7-0.9-2.9-0.8c0,0.1,0,0.1,0,0.1c0,0.2,0.2,0.2,0.3,0.3c0.5,1,1.3,1.7,2.1,2.5
		c0.2,0,0.2,0.1,0.3,0c1.2,0.7,2.7,1.2,3.5,2.3c-0.3-0.6-1-1.1-1.2-1.7c0.3,0.2,0.4,0.7,0.8,0.9c-0.3-0.7-0.9-1-0.9-1.9
		C41.9,17.7,41.8,17.6,41.7,17.5z M4.3,16.2c-0.2-0.4-0.5-0.7-0.9-0.9C3.6,15.7,4,15.8,4.3,16.2z M7.1,15.9
		C7,15.9,7.1,15.9,7.1,15.9C7.2,15.9,7,15.7,7.1,15.9z M4.2,16.4C4.2,16.4,4.2,16.3,4.2,16.4c-0.1-0.2-0.3-0.6-0.6-0.5
		C3.7,16,3.9,16.2,4.2,16.4z M4.3,16.9c-0.2-0.3-0.4-0.6-0.7-0.7C3.7,16.5,4,16.7,4.3,16.9z M41.5,16.9c0-0.1-0.1-0.1-0.1-0.2
		c0.1-0.1,0.2,0.1,0.2,0c-0.1-0.1-0.4-0.1-0.6-0.2C41.1,16.7,41.3,16.8,41.5,16.9z M3.8,17c0.2,0,0.3,0.1,0.4,0.2
		C4.1,17,4,16.8,3.8,16.7C3.8,16.8,3.9,16.9,3.8,17z M4.5,17C4.3,17.1,4.5,17.3,4.5,17C4.6,16.9,4.4,16.7,4.5,17z M1.8,19.2
		c0.1,2.1,1.1,3.5,2,4.8c0.3,0.4,0.8,0.9,1,1.3c0.1,0.2,0.1,0.3,0.1,0.5c0.2,0.5,0.6,0.8,0.8,1.3c0.3,0.7,0.2,1.5,0.9,1.9
		c-0.1-0.6-0.7-1.3-0.6-2c0-0.1,0.1-0.2,0.2-0.3c0.1-0.2,0-0.7,0.4-0.6c0.2,0.1,0,0.3,0,0.6c0.6-0.2,0.2-0.8-0.2-0.7
		c-0.4,0-0.4,0.5-0.6,0.8c-0.3-1-0.4-2.5,0-3.4c0,0.5-0.2,1.2-0.1,1.7C6.1,24.6,6,24,6.3,23.4c0.1-0.1,0.3-0.2,0.3-0.4
		c0.2-0.4,0.3-0.9,0.6-1.4C7.6,21.1,8,20.8,8,20.1c0.3-0.3,0.3-0.7,0.5-1.2c0.1-0.1,0.6-1.2,0-1.1c-0.1,0-0.4,0.4-0.6,0.6
		c-0.3,0.3-0.5,0.4-0.6,0.6c-0.2,0.2-0.2,0.5-0.3,0.7c-0.4,0.6-1,0.9-1.3,1.5c-0.6,1.3-0.6,3.3-0.3,5c-0.4-0.5-0.4-1.3-0.5-2.1
		c-0.1-1-0.5-1.7-0.6-2.5c-0.8-1.4-1.3-3.2-2.4-4.4C1.7,17.7,1.8,18.8,1.8,19.2z M4.1,17.5C4.1,17.6,4.2,17.5,4.1,17.5
		c0-0.1-0.1-0.3-0.2-0.2C4,17.3,4,17.4,4.1,17.5z M0.8,19.3c-0.1-0.3-0.3-0.4-0.6-0.5C0.2,19.1,0.6,19.1,0.8,19.3z M5.7,19.3
		c0.2-0.2,0.7-0.4,1.1-0.3C6.6,18.6,5.6,18.9,5.7,19.3z M41.9,20.5c0.1-0.2,0.3-0.3,0.6-0.3c0-0.2-0.2-0.2-0.3-0.2
		c-0.2-0.3-0.5-0.6-0.8-0.8C41.5,19.6,41.8,20,41.9,20.5z M0.2,19.2c0.3,0.3,0.5,0.5,1,0.6C0.9,19.6,0.6,19.2,0.2,19.2z M1.1,19.4
		C1.1,19.4,1.1,19.4,1.1,19.4c0-0.1,0-0.2-0.1-0.2C1,19.3,0.9,19.4,1.1,19.4z M44.9,25.1c0.8-1,1-2.5,1.5-3.9
		c0.2-0.7,0.6-1.2,0.5-1.9c0,0,0,0-0.1,0c-0.6,0.7-1.3,1.5-2,2.3c-0.6,0.7-1.3,1.6-1.5,2.5c-0.1,0.6-0.1,1.2-0.3,1.8
		c-0.1,0.4-0.4,0.6-0.4,1.1C43.8,26.6,44.1,25.6,44.9,25.1z M6.3,19.6c0.1,0,0.3,0,0.3-0.1c-0.3,0.1-0.1-0.2-0.3-0.2
		C6.2,19.4,6.3,19.5,6.3,19.6z M5.9,19.4c-0.3,0.4-0.6,1-0.5,1.8c0.4-0.4,0.7-0.9,1-1.4C6.1,19.8,6.2,19.4,5.9,19.4z M10.3,19.6
		c-0.1-0.1,0.1-0.2,0-0.2C10.2,19.5,10.2,19.6,10.3,19.6z M8.9,19.9c-0.2,0.6-0.8,0.7-1,1.3c0.2,0.4,0.2,1,0.2,1.5
		c0.5-0.4-0.3-1.4,0.2-1.8c0,0.7,0.2,1.4,0.1,2c0.4-0.4,0.8-0.9,1-1.3c-0.1,0.1-0.1,0.3-0.3,0.2c0.2-0.5-0.2-1.4,0.1-1.9
		c0.2,0.3,0,1,0.2,1.3c0.2-0.6-0.3-1.2,0.1-1.5c0.2,0.3,0.1,0.9,0.3,1.2c0-0.5,0-1-0.2-1.4C9.4,19.7,9.2,19.9,8.9,19.9z M0.3,19.8
		c0.4,0.1,0.8,0.4,1.2,0.4c-0.4-0.2-0.8-0.4-1.2-0.6C0.3,19.6,0.3,19.7,0.3,19.8z M5,20.1c0,0,0.1-0.3,0-0.2C5,19.9,4.9,20.1,5,20.1
		z M1.4,20.6c-0.2-0.3-0.7-0.5-1.1-0.5C0.6,20.3,1.1,20.4,1.4,20.6z M42.1,20.7c0.4-0.3,0.9,0.1,1,0.4
		C43.3,20.3,42.2,19.9,42.1,20.7z M48.1,20.3c-0.3,0.5-1.1,0.8-1.2,1.4c0.1-0.1,0.2-0.3,0.3-0.3c0.1,0.5,0.2,1,0.5,1.4
		c0-0.6-0.5-1.1-0.3-1.5c0.2,0.3,0.1,0.9,0.5,1.1c-0.1-0.5-0.3-0.8-0.4-1.2c0.1-0.1,0.1-0.2,0.2-0.2c0.1,0.3,0.1,0.6,0.3,0.8
		c0,0.1,0.3-0.1,0.1-0.2c-0.2,0-0.3-0.4-0.4-0.7c0.1,0,0.1-0.1,0.2-0.1c0.1,0.2,0.1,0.6,0.3,0.7c0.1-0.3-0.2-0.5-0.2-0.8
		c0-0.1,0.1-0.1,0.2-0.1c0.1,0.2,0,0.4,0.1,0.6c0.1-0.1,0.1-0.4,0.1-0.5c-0.1-0.1-0.1,0.1-0.2,0c0-0.1-0.1-0.2,0-0.2
		c0.1,0,0,0.2,0.2,0.1C48.6,20.3,48.3,20.4,48.1,20.3z M0.7,20.6c0-0.1-0.2-0.3-0.3-0.2C0.4,20.5,0.5,20.6,0.7,20.6z M1.6,21.1
		c-0.2-0.3-0.4-0.4-0.8-0.4C1,20.9,1.4,20.9,1.6,21.1z M0.4,20.9c0.6,0.1,1,0.4,1.5,0.6c-0.4-0.4-1-0.6-1.5-0.8
		C0.3,20.8,0.4,20.8,0.4,20.9z M42.3,21.2c-0.1,0-0.2,0-0.2,0.1c0,0.3,0.3,0.3,0.5,0.4c0.1,0.3,0.1,0.6,0.3,0.7
		c0-0.4,0.2-0.9-0.2-1.1C42.7,21.2,42.5,21.5,42.3,21.2c0.1-0.1,0.2-0.2,0.1-0.3c0,0-0.1,0-0.1,0C42.3,21,42.3,21.1,42.3,21.2z
		 M0.6,21.2c0.6,0.1,0.8,0.6,1.4,0.6c-0.4-0.3-0.9-0.5-1.5-0.7C0.5,21.2,0.5,21.3,0.6,21.2z M7.9,23.2c0-0.7,0-1.3-0.1-1.9
		C7.5,21.7,7.8,22.7,7.9,23.2z M0.6,21.5C0.6,21.5,0.6,21.5,0.6,21.5c0.5,0.3,1.1,0.6,1.8,0.8C1.9,22,1.3,21.7,0.6,21.5z M47.5,23
		c0-0.5-0.2-1.1-0.4-1.2C47.2,22.2,47.4,22.6,47.5,23z M2.2,22.6c-0.3-0.3-0.7-0.5-1.1-0.6C1.4,22.3,1.8,22.5,2.2,22.6z M6.5,23.9
		c0,0.2,0.3,0.6-0.1,0.7c-0.1-0.2,0.1-0.5,0-0.6c-0.1,0.2-0.3,0.4-0.2,0.6c0,0,0.1-0.1,0.1-0.1c0.1,0.2-0.1,0.3,0,0.4
		c0.3-0.3,0.7-0.5,1-0.9c-0.1-0.6,0-1.3,0-1.8C7.2,22.9,6.5,23.3,6.5,23.9z M7.7,23.7c0.1,0,0.4-0.2,0.3-0.3
		C7.7,23.4,7.8,23.7,7.7,23.7c0,0-0.1,0-0.1,0c0-0.5,0.2-1.1-0.1-1.4c0,0.5,0,1.1,0.1,1.6C7.5,23.8,7.6,23.8,7.7,23.7z M2.9,23.2
		c-0.2-0.3-0.6-0.3-0.9-0.4c-0.3-0.1-0.6-0.3-1-0.4c0,0-0.1,0-0.1,0C1.5,22.7,2.3,23.1,2.9,23.2z M1.3,23c0.7,0.1,1.2,0.5,1.9,0.7
		c0-0.3-0.3-0.2-0.5-0.3c-0.5-0.2-1-0.5-1.5-0.6C1.2,22.9,1.3,22.9,1.3,23z M39.8,22.9c0-0.1,0-0.1-0.1-0.1
		C39.7,22.9,39.7,23,39.8,22.9z M3.6,24.2c0,0,0,0.1,0,0.1c-0.7,0-1.4-0.7-2-0.6c0,0,0,0.1,0.1,0.1c0,0.1,0.1,0.2,0.2,0.3
		c0.6,0.1,1.2,0.6,1.9,0.6c-0.7-0.3-1.5-0.5-2-0.9c0.7,0.1,1.4,0.5,2.1,0.7C3.8,24.4,3.7,24.3,3.6,24.2c-0.1-0.2-0.2-0.3-0.3-0.4
		c0-0.1-0.1,0,0,0c-0.6,0.2-1.2-0.6-1.9-0.5c0,0.3,0.2,0.1,0.3,0.2c0.5,0.2,0.9,0.5,1.6,0.5C3.4,24,3.5,24.1,3.6,24.2z M3.6,25.1
		c-0.1-0.1-0.4-0.1-0.3-0.2c0.3,0,0.5,0.3,0.8,0.2C3.6,25,3,24.6,2.4,24.6C2.7,24.8,3.2,25.2,3.6,25.1z M4.1,24.8
		c0-0.1-0.1-0.2-0.1-0.1C4.1,24.7,4,24.8,4.1,24.8z M38.8,25.3C38.8,25.3,38.8,25.3,38.8,25.3c0,0.1-0.2,0.2-0.1,0.3
		C38.8,25.5,38.8,25.4,38.8,25.3c0.1-0.2,0.2-0.1,0.3-0.1C39,25.1,39,25,38.8,25C38.8,25.1,38.8,25.1,38.8,25.3z M8.6,26.8
		c-0.2,0.5-0.1,1-0.3,1.4c-0.1,0.3-0.2,0.6-0.4,0.9c0,1.3-0.1,2.7,0.6,3.5c0-0.6-0.5-0.9-0.4-1.4c0.2,0.1,0.2,0.4,0.4,0.5
		C8.2,30.3,9,29.3,9,28.2c0-0.5-0.1-0.9,0-1.4c0-0.1-0.1,0.1-0.2,0c0.1-0.2,0.1-0.5,0.3-0.6c0,0.3,0,0.4,0,0.6c0.2,0,0-0.4,0.2-0.3
		c0.1,0.3-0.1,0.5-0.2,0.6c0.1,1.6-0.5,3-0.3,4.3c0.1-0.3,0.1-0.9,0.4-0.8C9,31,8.6,31.6,8.9,32.2c0.3-1.4,1.3-2.6,1.1-4.2
		c-0.1,0.5,0,1.1-0.3,1.5c0.1-0.7,0.1-1.6,0.2-2.2c-0.5-0.5-0.1-1.8-0.7-2.2C8.9,25.6,8.8,26.4,8.6,26.8z M39.1,25.7
		c-0.1,0-0.1-0.2-0.3-0.2c0.1,0.2,0.3,0.4,0.5,0.6c-0.1-0.2,0-0.5-0.2-0.7C39.2,25.5,39.2,25.7,39.1,25.7z M38.5,26.3
		C38.6,26.3,38.6,26.2,38.5,26.3c0.2,0.3,0.7,0.4,0.7,0.9c-0.3-0.2-0.5-0.5-0.8-0.8c-0.1,0.5-0.3,1-0.4,1.6c0.2,0.3,0.6,0.6,0.6,0.9
		c-0.3-0.2-0.4-0.6-0.7-0.8c0,0.3-0.1,0.4-0.1,0.7c0.3,0.2,0.4,0.7,0.8,0.9c0.2-1.1,0.7-2.1,0.7-3.2c0,0.1,0,0.1-0.1,0.1
		c-0.1-0.4-0.5-0.5-0.7-0.9c0-0.1,0.2-0.2,0-0.3C38.6,25.9,38.4,26.2,38.5,26.3z M36.8,35.8c-0.1,0.2-0.3,0.3-0.4,0.5
		c0.6-0.4,1.1-1.1,1.8-1.6c0.2-0.2,0.5-0.2,0.5-0.5c-0.4,0.3-0.6,0.6-1,0.9c1.3-1.4,3.2-3.1,3-5.7c-0.1-0.9-0.4-1.8-0.4-3
		c-0.2-0.1-0.2-0.4-0.5-0.4c-0.5,0.9-0.3,1.9-0.7,3.2c-0.4,1.4-0.5,2.8-0.3,4.5c-1,1.2-2.3,2.2-3.3,3.3
		C36.1,36.6,36.4,36.2,36.8,35.8z M39.4,26.5c-0.1-0.1,0-0.3-0.1-0.3c0,0.1,0,0.2,0,0.2c-0.2-0.2-0.3-0.4-0.5-0.5
		C38.9,26.1,39,26.5,39.4,26.5z M40.9,31.7c0.2,0.1,0.2-0.2,0.5-0.1c0.2-0.2,0.4-0.4,0.7-0.5c0.4-0.6,1.1-0.8,1.7-1.3
		c0.8-0.6,1.2-1.6,2.1-2.1c0.2-0.6,1.5-1,0.9-1.7c-1.5,0.7-2.5,1.9-3.9,2.8c-0.1,0-0.1,0-0.2,0c-0.9,0.7-1.8,1.5-2,3
		C40.7,31.8,40.9,32,40.9,31.7z M6.4,26.5c0-0.1,0.1-0.1,0-0.2C6.3,26.4,6.3,26.5,6.4,26.5z M3.1,26.7c0.6,1.1,1,2.2,1.7,3.1
		c0.5,0.6,0.9,1.2,1.5,1.8c0.6,0.6,1.4,0.9,2,1.6C8.8,33.7,9,34.4,9.5,35c0.5,0.6,0.9,1.1,1.5,1.6c-0.4-0.6-0.8-1.2-1.2-1.7
		c-0.2-0.3-0.4-0.5-0.6-0.7C8.7,33.5,8.3,32.7,8,32c-0.4-0.7-0.7-1.5-1.1-2.2c-0.4-0.6-1-1-1.3-1.6c-1-0.4-1.3-1.5-2.5-1.7
		C3.1,26.6,3.1,26.7,3.1,26.7z M6.3,27c0-0.1,0-0.2,0-0.2c-0.5,0.4,0.1,1.3,0.3,1.6c-0.2-0.8,0.5-1.2,0.4-1.7
		C7,26.9,6.5,26.9,6.3,27z M42.5,27.1c0.1,0,0.2-0.1,0.1-0.1C42.6,27,42.4,27,42.5,27.1z M41.4,27.5c0.1,0,0.2,0,0.2-0.2
		c-0.1,0-0.1-0.1-0.2,0C41.4,27.4,41.3,27.4,41.4,27.5z M41.4,27.9c0-0.2,0.3-0.2,0.3-0.4C41.5,27.4,41.3,27.7,41.4,27.9z M9.9,27.6
		C9.8,27.9,9.9,27.5,9.9,27.6L9.9,27.6z M6.8,27.9c0.3,0.2,0.5,0.6,0.7,0.9c-0.1-0.4-0.4-0.7-0.7-1C6.8,27.8,6.8,27.8,6.8,27.9z
		 M7.9,28.1c0.1,0.1,0.1-0.3,0-0.3C7.9,27.9,7.9,28,7.9,28.1z M7.5,33C7.5,33.1,7.5,33,7.5,33c0-0.4-1.2,0.1-1.2-0.4
		c0.3,0,0.7,0.1,0.9,0.1c-0.7-0.5-1.3-1.1-1.9-1.6c-0.3,0.1-1,0-1.2-0.1c0.4,0,0.8,0,1.2,0c-0.1-0.4-0.9-0.1-1.1-0.3
		c0.2,0,0.6,0.1,0.8,0c-0.2-0.2-0.8-0.1-1-0.2c0.2-0.1,0.6,0.1,0.8,0c-0.2-0.3-0.4-0.7-0.9-0.8c-0.1-0.5-0.9-0.4-1.2-0.6
		C2.7,29,3,29.1,3.1,29c-0.2-0.1-0.3-0.3-0.4-0.4c-0.4-0.1-0.9-0.6-1.3-0.3c0.8,0.8,1.6,1.5,2.3,2.4C3.9,31,4,31.3,4.3,31.6
		c0.4,0.5,1.2,0.8,1.7,1.1c0.6,0.3,1.4,0.6,2,0.8c-0.1-0.4-0.8-0.2-1-0.6C7.2,32.9,7.3,33,7.5,33z M7.4,29.1
		c-0.1-0.4-0.4-0.6-0.6-0.9C6.9,28.5,7.1,28.8,7.4,29.1z M7.1,28.9c-0.2-0.1-0.2-0.4-0.4-0.4C6.7,28.7,6.9,29,7.1,28.9z M41.2,29.5
		c0.2,0,0.3-0.4,0.1-0.4C41.3,29.1,41.2,29.3,41.2,29.5z M38.6,30.1c-0.1-0.4-0.4-0.6-0.6-0.9C38.1,29.6,38.2,30,38.6,30.1z
		 M7.3,29.8c0-0.2-0.2-0.3-0.3-0.2C7.1,29.6,7.1,29.8,7.3,29.8z M38.2,31.9c0.1,0.3,0.2,0.8,0.6,0.7c-0.1-0.4-0.5-0.4-0.5-0.9
		c0.1,0.1,0.1,0.3,0.4,0.3c-0.1-0.2,0-0.5,0-0.8c-0.3-0.1-0.6-0.5-0.6-0.8c0.2,0.2,0.2,0.5,0.6,0.6c0-0.5-0.8-0.7-0.6-1.2
		c0.1,0.3,0.3,0.6,0.6,0.8c0-0.5-0.4-0.7-0.6-1C37.8,30.6,38,31.3,38.2,31.9z M7.2,30C7.1,30.2,7.3,30,7.2,30C7.1,30,7.1,30,7.2,30z
		 M9.1,31.8c0.2-0.5,0.6-1.1,0.6-1.7C9.6,30.7,9.1,31.2,9.1,31.8z M45.6,30.1c-0.3,0.2-0.6,0.6-0.6,0.9
		C45.2,30.7,45.5,30.5,45.6,30.1C45.7,30.1,45.6,30.1,45.6,30.1z M10.3,32.9c0.6,0.3,0.9,0.9,1.5,1.3c0-0.5-0.6-0.5-0.7-1
		c-0.3-0.2-0.6-0.3-0.7-0.7c0.4,0.4,1.1,0.7,1.2,1.2c0.2-0.3,0-0.7,0.1-1.1c-0.2,0,0,0.2-0.2,0.2c-0.3-0.4-0.8-0.7-1-1.1
		c0.4,0.2,0.6,0.6,1,0.9c-0.1-0.5-0.8-0.7-0.9-1.1c0.4,0.2,0.6,0.6,0.9,0.8c-0.1-0.8-0.5-1.4-0.9-1.9C10.6,31.1,10.4,32.1,10.3,32.9
		z M34.5,36.7c0,0.2-0.2,0.2-0.2,0.4c0.4-0.3,0.4-0.9,0.8-1.1c-0.1-0.1-0.1-0.1,0-0.2c0.5-1.2,0.8-2.6,1.4-3.7
		c0-0.1-0.1,0.1-0.1-0.1c0.3,0,0.3-0.3,0.5-0.4c-0.1,0.7-0.8,1.1-0.8,1.9c0-0.1,0.1-0.2,0.1-0.2c-0.3,1-0.8,2.1-1,3.1
		c0.2-0.2,0.4-0.5,0.7-0.7c-0.2,0.4-0.6,0.5-0.7,0.9c0.2,0,0.2-0.3,0.3-0.2c-0.2,0.4-0.6,0.5-0.8,0.9c0.5-0.1,0.9-0.7,1.1-1.2
		c0.2-0.4,0.4-0.9,0.6-1.3c0.5-1.4,0.4-3.1,0.7-4.4c-0.2,0.6-0.4,1.2-1,1.4c0.3-0.3,0.8-0.6,0.7-1.1c-0.3,0.2-0.4,0.5-0.6,0.7
		c-0.6,0.7-1.1,1.6-1.4,2.7c-0.4,1.4-0.6,2.9-1.4,4C34,37.8,34,37,34.5,36.7z M13.4,32.8C13.3,33,13.5,32.8,13.4,32.8
		c0-0.4-0.3-0.8-0.5-1.1c-0.2-0.3-0.2-0.7-0.5-0.9c-0.2,0.5-0.1,1.2-0.5,1.6c0.2,1.3-0.2,2.6,0.3,3.6c0.1,0.2,0.2,0.3,0.3,0.4
		c0.2,0.5,0.3,0.9,0.5,1.3c0.2,0.4,0.4,0.7,0.6,1.1c-1.4-0.6-2.5-2-4.1-2.6C9.1,36,8.6,36,8.2,35.9c-1.2-0.3-2.4-1-3.8-1.1
		c0,0.1-0.1,0.2-0.1,0.3c0.8,0.4,1.3,1,1.9,1.5c0.6,0.5,1.4,0.8,2.3,1.1c1.3,0.5,2.9,0.5,4.2,0.9c0.4,0.1,0.7,0.4,1.2,0.5
		c0.5,0.2,1.1,0.3,1.5,0.4c0.5,0.2,1,0.4,1.5,0.4c0-0.2-0.3-0.1-0.4-0.3c-0.1,0-0.3,0-0.4,0c-0.9-0.6-1.9-0.5-2.3-1.3
		c-0.4-0.7,0.1-1.5,0.1-2.4c0-0.5-0.2-1.1-0.2-1.7c0-0.9-0.4-1.6-0.5-2.4C13.1,32.3,13.3,32.5,13.4,32.8z M44.7,31.4
		C44.7,31.4,44.7,31.4,44.7,31.4L44.7,31.4z M40.5,33.4c-0.2,0.3-0.9,0.2-0.9,0.6c0.3-0.2,0.8-0.3,1.1-0.5
		C40.5,33.5,40.5,33.4,40.5,33.4c0.3-0.4,0.8-0.7,0.8-1.2C41,32.5,40.6,32.9,40.5,33.4z M40,33.5c0.3-0.3,0.6-0.7,0.8-1.1
		c0,0,0,0-0.1,0C40.5,32.8,40,33.1,40,33.5z M38.6,33c0-0.1,0-0.2-0.1-0.2C38.5,33,38.6,33,38.6,33z M10.3,33.4
		c0.6,0.3,1,0.9,1.5,1.3c0-0.1,0.1-0.4,0-0.4c0,0.1,0,0.1-0.1,0.1c-0.5-0.3-0.8-1-1.4-1.2C10.3,33.2,10.3,33.3,10.3,33.4z
		 M33.4,34.2c-0.2,0.1-0.4,0.3-0.6,0.3c0.1-0.3,0.4-0.4,0.6-0.7c-0.8,0.5-1.4,1.3-1.9,2.2c0.6-0.3,1.1-1,1.8-1.2
		c0,0.3-0.2,0.1-0.3,0.2c-0.4,0.6-1.4,0.9-1.7,1.5c0.5-0.5,1.3-1,1.9-1.3c-0.3,0.6-1,0.8-1.5,1.2c-0.2,0.1-0.3,0.4-0.4,0.5
		c-0.2,0.2-0.7,0.2-0.6,0.6c0.8-0.6,1.5-1.4,2.4-1.8c-0.8,0.7-1.6,1.4-2.6,2c-0.1,0.3-0.3,0.5-0.4,0.9c0.2-0.3,0.7-0.4,1-0.6
		c0.6-0.4,1-1.1,1.7-1.3c0-0.1,0.1-0.1,0.1-0.2c-1,0.5-1.6,1.3-2.5,1.8c0-0.1,0.1-0.2,0.1-0.3c1.1-0.5,1.7-1.4,2.7-1.8
		c0.1-0.8,0.5-1.5,0.4-2.4C33.4,33.7,33.4,34,33.4,34.2z M11.8,35c-0.4-0.5-0.9-0.9-1.3-1.3c-0.1,0-0.1,0-0.1,0
		C10.8,34.2,11.3,34.6,11.8,35z M6.7,34.3c0.1,0,0.2,0,0.2-0.1c-0.1,0-0.2-0.2-0.3,0C6.7,34.2,6.7,34.3,6.7,34.3
		c-0.5-0.1-0.7,0.3-1.2,0.2c0.1-0.3,0.6-0.2,0.8-0.4c-0.4,0-1.1-0.5-1.3-0.1c0.3,0,0.5-0.2,0.7,0c-0.2,0.1-0.4,0.2-0.6,0.1
		c0.2,0.4,0.5,0.6,0.8,0.8c0.5-0.3,1.2-0.3,1.8-0.5c-0.1,0-0.2-0.1-0.3-0.1c-0.1,0,0,0.1-0.1,0.1c-0.6,0-1,0.3-1.5,0.2
		C6.1,34.5,6.4,34.4,6.7,34.3z M10.2,34.3c0-0.1,0-0.2-0.2-0.2C10.1,34.1,10,34.3,10.2,34.3z M10.5,34.4c0.5,0.1,0.8,0.8,1.3,1
		c-0.3-0.5-0.8-0.9-1.3-1.3C10.5,34.2,10.5,34.3,10.5,34.4z M33,34.3c0.1,0,0.3-0.1,0.2-0.2C33.1,34.2,33,34.2,33,34.3z M39.1,34.4
		c0.2,0,0.4-0.1,0.5,0c0,0.1,0,0.2,0,0.3C40.1,34.5,39.2,33.9,39.1,34.4z M10.1,34.8c0.3,0.3,0.4,0.7,0.7,0.9c0-0.3-0.4-0.6-0.2-1
		c0.1,0.3,0.2,0.7,0.3,0.9c0,0,0-0.1,0.1-0.1c0.3,0.4,0.7,0.8,1.2,1.1c-0.4-0.7-1.2-0.9-1.5-1.7c0.5,0.4,0.8,0.8,1.3,1.2
		c-0.1-0.3-0.4-0.5-0.6-0.8c-0.3-0.3-0.6-0.6-1-0.8C10.4,34.8,10.2,34.8,10.1,34.8z M6.3,35c0.6-0.1,1.2-0.3,1.8-0.5
		C7.3,34.6,6.8,34.7,6.3,35z M9,35.5c-0.3,0-0.7,0.1-0.8,0.3C8.6,35.8,8.8,35.6,9,35.5c0.2-0.1,0.6,0.1,0.4,0.2c0.1,0,0.3,0.1,0.3,0
		c-0.5-0.2-0.5-0.9-1.1-0.9c-0.2,0-0.7,0.1-1,0.2C7.3,35,7,35,6.8,35.2c0.8,0.1,1.6-0.7,2.1-0.2c-0.5,0.1-1.2,0.1-1.5,0.4
		c0.6,0,1.2-0.5,1.7-0.2c-0.6,0-0.9,0.2-1.3,0.4c0.5,0.1,1.1-0.6,1.5-0.2C9.2,35.4,9.1,35.4,9,35.5z M10.9,35.7
		C10.9,35.7,10.9,35.7,10.9,35.7L10.9,35.7z M8.9,35.9c0.3,0,0.3,0.2,0.6,0.1c0-0.2-0.3,0-0.3-0.2c0,0,0.1-0.1,0.1-0.1
		C9.1,35.7,8.9,35.7,8.9,35.9z M12.3,37.1c-0.3-0.4-0.6-0.7-1.1-1C11.4,36.6,11.9,36.8,12.3,37.1z M32.3,37.8
		C32.2,37.8,32.2,37.9,32.3,37.8c-0.1,0.1-0.1,0.1-0.1,0.2c-0.9,0.5-1.7,1-2.5,1.7c-0.1,0,0,0,0,0c0.6-0.2,0.9-0.7,1.6-0.9
		c-0.2,0.3-0.7,0.4-0.9,0.7c0.7-0.3,1.4-0.7,1.7-1.5C32.2,38,32.2,37.9,32.3,37.8C32.3,37.9,32.3,37.8,32.3,37.8
		c0.3-0.5,0.7-1,0.9-1.7c-0.3,0.1-0.2,0.5-0.4,0.7c-1,0.5-1.6,1.4-2.7,1.8c0,0.1-0.1,0.2-0.2,0.2c0,0.5-0.5,0.6-0.5,1
		c0.8-1,2-1.4,2.9-2.2C32.4,37.7,32.3,37.7,32.3,37.8z M18.5,38c0-0.1,0.1-0.1,0.2-0.1c0,0.1,0,0.1,0,0.1c0.1,0,0.1-0.1,0.3,0
		c0.4-0.5,1.7-0.7,2.5-0.4c-0.1,0.1-0.2,0.2-0.1,0.3c0.2,0,0.2-0.3,0.3-0.2c0,0.1-0.2,0.1-0.2,0.3c0.4,0.9,0.9,1.8,1.3,2.6
		c0.2,0,0.3-0.1,0.3-0.2c-0.1,0-0.2,0.2-0.3,0.1c0.1-0.2,0.4-0.2,0.5-0.4c-0.2,0-0.4,0.4-0.6,0.3c0.1-0.3,0.7-0.4,0.7-0.7
		c-0.2,0.2-0.5,0.5-0.9,0.5c0.2-0.3,0.7-0.5,0.8-0.8c-0.3,0.2-0.5,0.5-0.8,0.5c0.2-0.4,0.7-0.5,0.9-0.8c-0.5,0.1-0.6,0.6-1.1,0.6
		c0.2-0.3,0.7-0.4,0.9-0.8c-0.4,0.1-0.6,0.6-1,0.6c0.2-0.4,0.7-0.5,0.9-0.8c-0.4,0.1-0.6,0.5-1,0.6c0.2-0.4,0.8-0.5,0.9-1
		c-0.4,0.1-0.6,0.7-1,0.7c0.2-0.4,0.9-0.6,0.9-1c-0.4,0.2-0.5,0.6-1,0.7c0.3-0.4,0.7-0.5,0.9-0.9c-0.4,0.1-0.6,0.7-1.1,0.7
		c0.2-0.3,0.8-0.5,0.9-0.9c-0.1,0.1-0.2,0.1-0.3,0.2c0.2-0.2,0.4-0.3,0.3-0.7C20.9,36.3,18.8,36.8,18.5,38z M26.4,36.6
		c0,0.2-0.4,0.1-0.4,0.3c0.8,0.5,1.9,0.7,2.5,1.4c0.3,0,0.5,0.1,0.6-0.1c-0.1,0-0.2,0-0.2-0.1c0-0.1,0.2,0,0.2-0.2
		C28.6,37.1,27.6,36.8,26.4,36.6z M12.3,37.5C12.3,37.5,12.3,37.5,12.3,37.5c-0.2-0.3-0.4-0.5-0.7-0.7C11.6,37.2,12,37.3,12.3,37.5z
		 M12.6,37.3c0,0,0-0.1,0-0.1c0,0-0.1,0-0.1,0C12.4,37.3,12.5,37.3,12.6,37.3z M7,37.8c-0.3,0-0.6,0-0.6,0.3c0,0.1,0.2,0.1,0.3,0.2
		c0-0.3,0.6-0.6,0.7-0.3c-0.2,0.1-0.6,0.2-0.6,0.4c0.4,0,0.8-0.7,1.1-0.2c-0.3,0-0.7,0.2-0.7,0.4C7.6,38.7,8,38,8.4,38.3
		c-0.3,0.1-0.7,0.2-0.8,0.5c0.6,0.1,0.8-0.7,1.3-0.4C8.6,38.5,8.2,38.6,8,39c0.1,0.1,0.2,0,0.3,0c0.2-0.4,0.7-0.4,1-0.7
		c-1-0.1-1.7-0.5-2.5-0.7C6.8,37.7,7.1,37.6,7,37.8z M6.2,37.8c0.2,0,0.4,0,0.4-0.2C6.5,37.7,6.3,37.7,6.2,37.8z M20.5,37.7
		c0.3,1.5,1,2.5,2.1,3.2c-0.5-1.2-1.1-2.1-1.7-3.2C20.7,37.7,20.5,37.6,20.5,37.7z M27.1,38c-0.2,0.6-0.7,0.9-0.9,1.5
		c0.6-0.1,0.9-0.3,1.5-0.3c0.1-0.3,0.2-0.6,0.5-0.8C28.1,37.9,27.5,37.8,27.1,38z M26.3,38.1c0,0,0.1,0,0.1,0c0,0,0-0.1,0-0.1
		C26.4,38,26.4,38,26.3,38.1C26.3,38,26.3,38,26.3,38.1z M38.5,39c-0.7-0.3-1.7-0.5-2.5-0.7c-1.2-0.3-2.6,0-3.5,0.5
		c0.6,0,1-0.2,1.5-0.2c-0.4,0.1-0.7,0.3-1,0.4c1.5,0,2.8,0.2,4.1,0.4c-1.5,0.1-2.7-0.3-4.1-0.2c-0.2,0.2-0.6,0.1-0.7,0.4
		c0.4,0,0.7-0.3,1.1-0.2c-0.5,0.5-1.6,0.1-2.2,0.3c1.6,0,3.3,0.6,5.1,0.5c0.8-0.1,1.8-0.2,2.4-0.3c0.5-0.1,1.3,0.1,1.4-0.4
		C39.6,39.2,39.1,39.2,38.5,39z M8.5,39.1c0.1,0,0.4,0.2,0.5,0c0,0-0.1,0-0.1,0c0.3-0.2,0.7-0.6,1.2-0.5c-0.3,0.2-0.9,0.2-1,0.6
		c1,0.2,2.3,0,3.2-0.2c-0.1-0.1,0.2-0.2,0-0.2c-0.3,0.1-0.6,0.3-0.9,0.3c0.1-0.2,0.3-0.1,0.3-0.3c-0.5,0-0.6,0.3-1,0.4
		c0.2-0.2,0.6-0.3,0.8-0.5c-0.5,0-1,0.3-1.3,0.6c-0.1,0-0.2,0-0.2,0c0.3-0.3,0.8-0.3,1-0.6c-0.6,0-1.2-0.2-1.8-0.1
		C9.4,38.7,8.7,38.7,8.5,39.1z M37.6,38.5c0,0,0.1,0,0.1,0c0-0.1,0-0.1-0.1-0.1C37.6,38.5,37.6,38.5,37.6,38.5z M28.6,38.6
		c0.2,0,0.2,0.1,0.3,0C28.7,38.5,28.6,38.5,28.6,38.6z M25.7,38.6c-0.1,0-0.3-0.1-0.3,0C25.5,38.6,25.7,38.7,25.7,38.6z M15.6,38.7
		c-0.2,0.1-0.3,0-0.6,0C15,39,15.6,39,15.6,38.7z M28.7,38.9c0.2,0,0.2,0.1,0.3,0.1c0-0.1,0-0.2,0-0.2C29,38.9,28.6,38.8,28.7,38.9z
		 M25.2,38.9C25,38.9,25.1,39,25.2,38.9L25.2,38.9z M19.9,39C19.7,39,19.9,39.1,19.9,39C20,39,19.9,38.9,19.9,39z M25.3,39.2
		c-0.2,0-0.2-0.1-0.3,0C25,39.2,25.3,39.3,25.3,39.2z M31.6,39.4c0.2,0,0.3-0.1,0.3-0.2C31.7,39.3,31.6,39.3,31.6,39.4z M31.8,39.6
		c0.3,0,0.6-0.1,0.7-0.3C32.2,39.3,31.9,39.3,31.8,39.6z M26.7,39.6c0.4-0.1,0.7-0.2,1.2-0.1C27.7,39.2,27,39.5,26.7,39.6z
		 M19.5,39.6c0.2,0,0.3-0.1,0.4-0.2C19.7,39.4,19.6,39.4,19.5,39.6z M19.9,39.7c-0.1,0-0.2,0.1-0.3,0c0.4,0.6,1.2,1,1.8,1.2
		c0.1-0.2,0.4-0.3,0.6-0.2c0,0.1,0.2,0,0,0c-0.2-0.4-0.5,0.2-0.8,0.1c0.1-0.2,0.4-0.2,0.6-0.4c-0.3,0-0.6,0.4-0.9,0.2
		c0.2-0.2,0.5-0.2,0.6-0.4c-0.4,0-0.5,0.4-0.9,0.2c0.1-0.1,0.4-0.2,0.6-0.3c-0.3,0-0.5,0.3-0.8,0.2c0.1-0.2,0.4-0.1,0.5-0.3
		c-0.2,0-0.4,0.3-0.7,0.2c0.1-0.2,0.4-0.2,0.6-0.4c-0.4,0-0.5,0.4-0.8,0.2c0,0,0,0,0-0.1c0.1-0.1,0.3-0.1,0.4-0.2
		c-0.2,0-0.3,0.1-0.5,0.2c0-0.1-0.1,0-0.1-0.1C19.7,39.7,19.9,39.8,19.9,39.7c0.2,0,0.4-0.1,0.5-0.2C20.2,39.5,20,39.6,19.9,39.7z
		 M25.8,39.6c0.1,0,0.2,0,0.2-0.2C25.9,39.4,25.8,39.5,25.8,39.6z M28.4,39.5C28.5,39.6,28.5,39.3,28.4,39.5L28.4,39.5z M23.7,39.8
		c0-0.1,0-0.3-0.1-0.3C23.6,39.6,23.5,39.8,23.7,39.8z M28.6,39.5C28.7,39.6,28.6,39.5,28.6,39.5L28.6,39.5z M28.7,39.6
		c0.1,0,0.1,0,0.1-0.1C28.8,39.5,28.8,39.5,28.7,39.6C28.8,39.5,28.7,39.5,28.7,39.6z M24.7,39.6c0,0.1,0.3,0.1,0.3,0
		C24.9,39.7,24.8,39.6,24.7,39.6z M28.8,39.8c-0.4-0.1-1-0.2-1.5-0.1C27.7,39.7,28.5,39.9,28.8,39.8z M29.8,40.1
		c0.3-0.1,0.6-0.2,0.7-0.4C30.2,39.7,29.9,39.8,29.8,40.1z M26.7,39.8c0.4,0.2,1.2,0,1.5,0.3c-0.8,0.1-1.3-0.3-2-0.1
		c0.5,0.1,1.1,0,1.5,0.3c-0.3,0-0.7-0.2-1,0c0.7,0.1,1.8,0.2,2-0.3C28,40.1,27.3,39.6,26.7,39.8z M24.7,40c0.1,0,0.3,0.1,0.4,0
		C25,39.9,24.7,39.8,24.7,40z M27.6,40.7c0-0.1,0.1,0,0-0.1c-0.6,0.1-1-0.1-1.3-0.3c0,0.2,0.1,0.4,0.2,0.5c0.1,0.1,0.4,0,0.6,0.1
		c-0.3,0.1-0.9,0-1,0.3c1.7,0.1,3-1.1,4.9-0.9c-0.9,0.2-1.4,0.7-2.4,0.8c0.5,0.3,0.9,0.4,1.7,0.5c0.9,0.1,1.8,0.5,2.8,0.6
		c0.9,0.1,1.7-0.1,2.5-0.1c0.2,0,0.5,0.1,0.6-0.1c-0.1,0-0.4,0.1-0.5,0c0-0.1,0.1,0,0.1-0.1c-0.3,0-0.7,0.4-0.9,0.2
		c0.4-0.1,0.8-0.6,1.2-0.2c-0.3-0.4-0.8-0.6-1.4-0.9c-0.1,0.2-0.3,0.2-0.6,0.2c-0.6,0.2-1.3,0.7-2,0.7c0.8-0.4,1.6-0.7,2.4-1
		c-0.5-0.3-1.3-0.4-2.1-0.4c-0.6,0.2-1.6,0.7-2.3,0.9c-0.1,0-0.4,0.1-0.6,0c0.5-0.1,0.9-0.3,1.4-0.5c0.4-0.2,0.9-0.3,1.2-0.6
		C30.6,39.9,29,40.5,27.6,40.7z M13.7,40.8c-0.7,0.3-1.5,0.5-2.3,0.9c-0.1,0.2-0.2,0.3-0.3,0.4c0.9,0.1,1.8,0.1,2.7,0.2
		c1.1,0,1.7-0.1,2.4-0.4c0.9-0.4,1.3-0.3,1.8-0.7c-0.3-0.1-0.3,0.1-0.6,0.2c-0.6,0-1-0.1-1.4-0.2c0.4-0.3,1.1,0.3,1.5,0
		c-0.5-0.1-0.9-0.3-1.3-0.2c-0.3,0-0.6,0.3-0.9,0.4c-0.3,0.1-0.6,0.2-0.9,0.3c-0.2,0,0.1,0.1,0,0.1c-0.2,0-0.3-0.1-0.5,0
		c-0.2,0.1,0.2,0.1,0.1,0.2c-0.2,0-0.3-0.1-0.5-0.1c-0.1,0-0.1,0.2-0.2,0.2c-0.1-0.2-0.6,0-0.7-0.1c1.4-0.3,2.6-0.7,3.9-1.1
		c-0.4-0.2-1-0.1-1.4-0.2c0.4-0.3,1.3,0.2,1.6-0.1c-0.2-0.1-0.6,0-0.8-0.1c0.1,0,0.2,0,0.2-0.1C15.1,40.1,14.4,40.5,13.7,40.8z
		 M26,40.8c0.2,0,0.1-0.2,0-0.2C26,40.7,26,40.7,26,40.8z M28.2,41c0.5,0,1.1-0.2,1.1-0.4C29,40.8,28.5,40.9,28.2,41z M16.8,40.8
		c0.3,0.1,0.9,0.2,1.2,0.2C17.7,40.9,17.3,40.7,16.8,40.8z M25.9,41c0-0.1,0-0.2-0.1-0.2C25.8,40.9,25.7,41,25.9,41z M21.5,41
		c0.1,0,0.4,0.1,0.3-0.1C21.8,40.9,21.6,41,21.5,41z M18.3,41.2C18.3,41.2,18.3,41.2,18.3,41.2c0.1-0.1,0.1-0.1,0.1-0.2
		c0,0-0.1,0-0.1,0C18.3,41.1,18.3,41.2,18.3,41.2z M21,41.4c0-0.1-0.1-0.1-0.3-0.1C20.7,41.4,20.9,41.4,21,41.4z M20,42.4
		c-0.1,0,0.1,0.2-0.1,0.2c-0.5,0.1-0.9,0.2-1.3,0.4c0.2,0.1,0.4-0.1,0.6,0c0.7-0.4,1.9-0.6,2.7-1.1C21.2,42,20.6,42.1,20,42.4z
		 M25.6,42.1c0.1,0.1,0.1-0.2,0-0.1C25.6,42,25.6,42,25.6,42.1z M28.1,42.7c-0.5-0.2-1.1-0.6-1.7-0.6C26.9,42.2,27.5,42.6,28.1,42.7
		z M26.6,42.3c-0.1,0-0.2-0.1-0.3-0.1C26.3,42.3,26.6,42.3,26.6,42.3z M25.8,43c0.1,0,0.1,0.2,0.3,0.1c0-0.1-0.2-0.2,0-0.3
		c-0.1-0.2-0.2-0.3-0.3-0.5C25.6,42.7,25.9,42.8,25.8,43z M19.4,42.6c0.1,0,0.2,0,0.2-0.1C19.5,42.5,19.5,42.5,19.4,42.6z
		 M30.9,42.6c-0.4-0.1-1,0.1-1.6,0.1c-0.3,0-0.6-0.1-0.8,0c-0.5,0.2-0.8,1.2-1.3,1.4c-0.4-0.2-0.7-0.5-1.2-0.7
		c-0.2,0.2-0.5,0.4-0.9,0.4c0.4,0.5,1,0.9,1.5,1.3c0.7,0,1.1-0.3,1.8-0.3c0.3-0.4,0.7-0.8,1-1.2c0.6-0.2,1.6,0,2-0.5
		c-0.3-0.2-0.9-0.2-1.2-0.4c0.6-0.1,1,0.3,1.4,0.3C31.4,42.9,31.1,42.8,30.9,42.6z M26.4,42.8c0,0.1,0.2,0.1,0.2,0.2
		c-0.1,0.1-0.4,0.1-0.4,0.3c0.4,0.1,0.7,0.5,1.2,0.3c0-0.2,0.2-0.3,0.3-0.5C27.1,43.2,26.9,42.7,26.4,42.8z M24.2,43.3
		c0.1,0,0.2,0,0.2,0C24.3,43.3,24.2,43.2,24.2,43.3z M30.6,43.8c0.2,0.1,0.3,0.1,0.5,0.1c0-0.1-0.1-0.1,0-0.1c0.2,0,0.3,0.2,0.4,0
		c-0.1,0-0.2,0-0.2-0.2C31,43.6,30.7,43.6,30.6,43.8z M15.8,43.8c0.2-0.1,0.4,0.1,0.5,0C16.2,43.8,15.8,43.6,15.8,43.8z M14.6,44.1
		c0.4,0,0.7-0.1,0.9-0.2C15.2,43.9,14.8,43.9,14.6,44.1z M15.1,44.2c0.2,0,0.3,0.1,0.5,0.2c0-0.1-0.1-0.1-0.2-0.2
		c0.2-0.1,0.6-0.1,0.7-0.2C15.8,44,15.3,43.9,15.1,44.2z M31.3,44.2c0.2-0.1,0.4-0.1,0.6-0.2C31.6,44.1,31.3,44.1,31.3,44.2z
		 M34.5,44.5c-0.1-0.2-0.7-0.3-0.9-0.2C33.9,44.3,34,44.5,34.5,44.5z M29.6,44.9c0.4-0.2,0.9,0.2,1,0.3c-0.3,0-0.6-0.3-0.9-0.2
		c0,0,0.2,0,0.1,0.1c-0.2,0-0.3-0.3-0.4-0.1c0.1,0.1,0.2,0.2,0.4,0.3c0.1,0,0.1-0.1,0.2-0.1c0.2,0.1,0.4,0.2,0.6,0.2
		c0.2-0.2,0.5-0.4,0.4-0.8c-0.1,0.1-0.3-0.1-0.4,0c0.1,0.1,0.2,0,0.2,0.2c-0.2,0-0.3-0.1-0.5-0.1c0,0.2,0.4,0.1,0.4,0.3
		c-0.3,0-0.6-0.1-0.8-0.3c0-0.1,0.3,0,0.3-0.1c-0.2-0.1,0.2-0.3,0-0.4C30.1,44.5,29.9,44.7,29.6,44.9z M32.7,44.4
		C32.7,44.4,32.8,44.4,32.7,44.4c0.3,0,0.4,0.1,0.7,0C33.4,44.2,32.9,44.3,32.7,44.4z M13.5,44.6c0.2,0,0.5,0.1,0.6,0
		c-0.2,0-0.4-0.1-0.6-0.1C13.5,44.5,13.5,44.6,13.5,44.6c-0.1,0-0.3-0.1-0.4-0.1c0.1,0.2,0.5,0.3,0.7,0.3
		C13.7,44.7,13.5,44.7,13.5,44.6z M33.1,44.6c0.1-0.1-0.2-0.1-0.2,0C33,44.6,33,44.6,33.1,44.6z M15.9,44.8c0.2,0,0.5,0.1,0.6-0.2
		C16.2,44.7,15.9,44.7,15.9,44.8z M32.7,44.9c0.2,0,0.5,0.1,0.5-0.1C33.1,44.8,32.8,44.7,32.7,44.9z M16,45.2
		C16,45.3,16,45.3,16,45.2c0.3,0,0.7-0.2,0.8-0.4C16.5,45,16.2,45,16,45.2z M15.6,45.2c0.1,0,0.3-0.1,0.3-0.2
		C15.7,45,15.6,45,15.6,45.2z M16.6,45.2c0,0.2,0.2,0.2,0.5,0.2c0-0.2,0.2-0.2,0.3-0.3c-0.3,0-0.5,0.3-0.6,0.1
		c0.1-0.1,0.3-0.1,0.3-0.2C16.9,45,16.8,45.1,16.6,45.2z M29.6,45.3c-0.1-0.1-0.2-0.1-0.4-0.2C29.3,45.2,29.5,45.5,29.6,45.3z
		 M29.3,45.5c0-0.2-0.1-0.2-0.3-0.2C29.1,45.4,29.2,45.4,29.3,45.5z M29.6,45.8c-0.1,0.1-0.2,0.1-0.2,0.2c0.3,0.1,0.6,0.1,0.7-0.2
		c0.2-0.1,0.4-0.1,0.4-0.3c-0.2-0.1-0.4-0.1-0.6-0.2C29.9,45.5,29.7,45.6,29.6,45.8z M17.3,45.4c0.2,0.2,0.4,0.2,0.7,0.3
		C17.8,45.5,17.4,45.4,17.3,45.4z M29,45.6c0.1,0,0.1,0,0.2,0c0,0,0-0.1,0-0.1C29.1,45.5,29,45.5,29,45.6C29,45.5,29,45.5,29,45.6z
		 M16.2,45.8c0,0,0.1,0,0.1,0c0,0,0-0.1,0-0.1C16.3,45.7,16.2,45.7,16.2,45.8z M29.7,46.3c0-0.1-0.1-0.2-0.3-0.2
		C29.5,46.3,29.6,46.3,29.7,46.3z M29.5,46.4C29.5,46.6,29.7,46.4,29.5,46.4C29.4,46.4,29.4,46.5,29.5,46.4z"/>
	<path fill="#8B2224" d="M17.5,2.3C17.6,2.3,17.6,2.3,17.5,2.3c0.5-0.4,0.9-0.8,1.3-1.2c0,0,0,0,0,0c0.1,0,0,0,0,0c0,0,0,0,0,0
		c0,0-0.1,0-0.1,0c0.1-0.3,0.4-0.4,0.7-0.4c-0.2,0.4-0.7,0.7-1,0.9c-0.2,0.2-0.4,0.4-0.6,0.7c-0.3,0.4-0.8,0.6-1.3,0.9
		c-0.4,0.3-0.7,0.7-1.1,0.9C16.1,3.5,16.8,2.9,17.5,2.3z"/>
	<path fill="#8B2224" d="M18.5,1.2c-0.1,0.1,0,0.3-0.2,0.3C18.1,1.3,18.3,1,18.5,1.2z"/>
	<path fill="#8B2224" d="M21.1,1.3c0,0.1-0.1,0.1-0.2,0.1C20.9,1.3,21,1.3,21.1,1.3z"/>
	<path fill="#8B2224" d="M17.8,1.6c0,0.1-0.1,0.2-0.1,0.3C17.5,1.9,17.6,1.5,17.8,1.6z"/>
	<path fill="#8B2224" d="M18.5,1.8c-0.1,0.2-0.3,0.4-0.4,0.4C18.2,2,18.4,1.9,18.5,1.8z"/>
	<path fill="#8B2224" d="M20.9,1.9c-0.4,0.7-1.1,1.6-1.8,2.2c0.4-0.7,1.2-1.4,1.7-2.2C20.9,1.9,20.9,1.9,20.9,1.9z"/>
	<path fill="#8B2224" d="M17.6,2.3C17.5,2.3,17.5,2.3,17.6,2.3c-0.1,0-0.1,0-0.2,0C17.5,2.2,17.5,2,17.7,2
		C17.7,2.1,17.6,2.1,17.6,2.3z"/>
	<path fill="#8B2224" d="M22.6,2c0.1,0.1-0.1,0.1-0.1,0.2C22.3,2.1,22.6,2.1,22.6,2z"/>
	<path fill="#8B2224" d="M17,2.1c0.2,0.2-0.1,0.6-0.3,0.7C16.9,2.6,16.9,2.3,17,2.1z"/>
	<path fill="#8B2224" d="M18.5,4.3c0.6-0.8,1.1-1.6,2-2.2C19.8,2.8,19.4,3.7,18.5,4.3z"/>
	<path fill="#8B2224" d="M27.7,2.3C27.6,2.3,27.6,2.2,27.7,2.3L27.7,2.3z"/>
	<path fill="#8B2224" d="M27.7,2.3c0.6,0.3,1.3,0.3,1.5,0.9c1.6,1.2,3.4,2.3,5.2,3.3c-0.8-0.2-1.5-0.7-2.2-1.1
		c-0.7-0.4-1.4-0.9-2.2-1.3c0,0,0,0,0,0c-0.2-0.2-0.4-0.3-0.6-0.4c0,0,0,0,0,0c-0.3-0.3-0.5-0.5-0.7-0.8C28.1,2.8,27.9,2.6,27.7,2.3
		C27.7,2.3,27.7,2.3,27.7,2.3z"/>
	<path fill="#8B2224" d="M17.5,4.5c0.5-0.7,1.2-1.2,1.6-2c0.1,0,0.2,0,0.3-0.1c0,0,0.1,0,0.1,0c-0.2,0.4-0.6,0.7-0.9,1.1
		C18.3,3.8,18.1,4.4,17.5,4.5z"/>
	<path fill="#8B2224" d="M18,2.5c-0.1,0.1-0.3,0.2-0.5,0.2C17.6,2.6,17.7,2.5,18,2.5z"/>
	<path fill="#8B2224" d="M16.4,2.7c0.2,0.2-0.1,0.5-0.2,0.7C16.1,3.1,16.3,2.9,16.4,2.7z"/>
	<path fill="#8B2224" d="M18.5,3.1C18.5,3,18.6,3,18.5,3.1L18.5,3.1z"/>
	<path fill="#8B2224" d="M15.8,3.2c0.1,0.1,0,0.4-0.1,0.5C15.5,3.6,15.7,3.3,15.8,3.2z"/>
	<path fill="#8B2224" d="M17.3,3.2c0,0.2-0.2,0.1-0.4,0.2c-0.2,0.1-0.4,0.3-0.6,0.2C16.5,3.4,16.8,3.3,17.3,3.2z"/>
	<path fill="#8B2224" d="M30,3.5c0.2,0.2,0.4,0.3,0.6,0.6C30.2,4,30.1,3.8,30,3.5z"/>
	<path fill="#8B2224" d="M29.3,3.6C29.3,3.6,29.4,3.6,29.3,3.6c0,0.1,0,0.1,0,0.1c-0.2,0-0.2-0.1-0.4-0.1C29,3.5,29.2,3.5,29.3,3.6z
		"/>
	<path fill="#8B2224" d="M14.7,4.7c0-0.5,0.2-0.7,0.6-0.9C15.3,4.3,14.9,4.4,14.7,4.7z"/>
	<path fill="#8B2224" d="M16.4,3.9c0.1,0.1,0,0.2-0.2,0.2C16.2,4,16.3,4,16.4,3.9z"/>
	<path fill="#8B2224" d="M31.1,4.1C31,4,31.1,3.9,31.1,4.1L31.1,4.1z"/>
	<path fill="#8B2224" d="M30,4.1C30,4.1,30,4.1,30,4.1c0,0.1,0,0.1,0,0.1c-0.3,0-0.4,0-0.6,0c0-0.1-0.1-0.1-0.1-0.1
		C29.4,3.9,29.8,4,30,4.1z"/>
	<path fill="#8B2224" d="M10.2,4.1c0.2,0.2,0.3,0.6,0.3,1.1C10.2,4.9,10.3,4.4,10.2,4.1z"/>
	<path fill="#8B2224" d="M16,4.1c-0.1,0.1-0.3,0.2-0.5,0.2C15.5,4.1,15.9,4.1,16,4.1z"/>
	<path fill="#8B2224" d="M31.1,4.1c0.3,0.2,0.5,0.4,0.6,0.7C31.4,4.6,31.2,4.4,31.1,4.1z"/>
	<path fill="#8B2224" d="M18.5,4.3C18.5,4.3,18.4,4.3,18.5,4.3L18.5,4.3z"/>
	<path fill="#8B2224" d="M32,4.3c0.1,0,0.2,0.1,0.1,0.2C32,4.5,32,4.4,32,4.3z"/>
	<path fill="#8B2224" d="M33.1,4.5c0.5-0.1,0.9,0.2,1.4,0.2C34,4.9,33.4,4.7,33.1,4.5z"/>
	<path fill="#8B2224" d="M12.6,4.6c0.2,0.3-0.3,0.7-0.4,0.9c0.1,0.1,0.1-0.3,0.3-0.2c0,0.2-0.2,0.3-0.3,0.4c-0.1,0-0.1,0-0.2,0
		C11,6.5,10.5,7.8,9.6,8.7c0.1-0.4,0.5-0.9,0.8-1.3c0-0.2-0.2-0.8,0.1-0.9c0.1,0.1,0,0.4,0,0.6c0.4,0,0.2-0.7,0.4-1.1
		C11,6.1,11.1,6.4,11,6.6c0.4-0.1,0.2-0.8,0.5-1.1c0,0.2,0,0.4,0,0.5C11.9,5.8,12.3,5.1,12.6,4.6z"/>
	<path fill="#8B2224" d="M15.6,4.6c-0.1,0.3-0.6,0.3-0.8,0.5C14.7,4.8,15.1,4.6,15.6,4.6z"/>
	<path fill="#8B2224" d="M30.4,4.6c0.1,0.1-0.1,0.2-0.2,0.3c-0.1,0-0.2-0.1-0.3-0.2C30.2,4.7,30.2,4.6,30.4,4.6z"/>
	<path fill="#8B2224" d="M30.6,4.7c0-0.1,0.4-0.1,0.3,0C30.8,4.7,30.6,4.7,30.6,4.7z"/>
	<path fill="#8B2224" d="M14.7,4.7c-0.1,0.2-0.3,0.3-0.4,0.5C14.3,5.1,14.6,4.8,14.7,4.7z"/>
	<path fill="#8B2224" d="M32.9,4.9C33,4.9,33.1,5,33.1,5.1C33,5.1,32.9,5,32.9,4.9z"/>
	<path fill="#8B2224" d="M17.4,5c-0.1,0-0.2,0-0.3,0C17.1,4.9,17.4,4.8,17.4,5z"/>
	<path fill="#8B2224" d="M32.4,4.9c0.1,0.1,0.3,0.2,0.3,0.3C32.4,5.3,32.4,5.1,32.4,4.9z"/>
	<path fill="#8B2224" d="M31.6,5.1c-0.1,0.1-0.6,0-0.7,0.2c-0.1,0-0.2-0.1-0.3-0.2C30.8,5,31.4,5,31.6,5.1z"/>
	<path fill="#8B2224" d="M37.3,5c0.3,0.1,0.3,0.5,0.8,0.4c0.2,0.3,0.7,0.2,0.7,0.6c-0.4-0.2-0.8-0.5-1.2-0.7
		c0.2,0.4,0.9,0.5,1.3,0.9c-0.5-0.1-1-0.5-1.5-0.7C37.3,5.4,37.3,5.2,37.3,5z"/>
	<path fill="#8B2224" d="M11.8,5.1c0.1,0,0.1,0,0.1,0c0,0.2-0.1,0.3-0.2,0.4C11.7,5.5,11.9,5.3,11.8,5.1z"/>
	<path fill="#8B2224" d="M15.9,5.2c1.4,0,2.6,0.6,4.3,0.4c0-0.2-0.5,0-0.6-0.1c0.4-0.3,0.8,0.1,1.2,0.2C19.1,6,17.3,5.6,15.9,5.2z"
		/>
	<path fill="#8B2224" d="M18.3,5.2c-0.1,0.1-0.3,0.2-0.5,0.2C17.9,5.2,18.1,5.1,18.3,5.2z"/>
	<path fill="#8B2224" d="M15.9,5.3c0.2,0,0.3,0.1,0.4,0.2C16.2,5.6,15.9,5.5,15.9,5.3z"/>
	<path fill="#8B2224" d="M19.1,5.4c-0.1,0.1-0.2,0.1-0.4,0.1C18.8,5.4,19,5.3,19.1,5.4z"/>
	<path fill="#8B2224" d="M15.7,5.6c-0.3,0-0.5,0-0.7-0.1C15.1,5.3,15.7,5.3,15.7,5.6z"/>
	<path fill="#8B2224" d="M16.7,5.4c0.4,0.1,0.7,0.3,0.9,0.4C17.3,5.9,16.9,5.6,16.7,5.4z"/>
	<path fill="#8B2224" d="M32.2,5.6c-0.3-0.2-0.4,0-0.6,0.2c-0.1,0-0.3,0-0.3-0.2C31.6,5.5,32.1,5.3,32.2,5.6z"/>
	<path fill="#8B2224" d="M30.4,6.6c-0.4-0.3-0.8-0.6-1.2-1C29.8,5.8,30.1,6.2,30.4,6.6z"/>
	<path fill="#8B2224" d="M27.8,6c-0.2,0-0.3-0.2-0.5-0.2C27.5,5.5,27.7,5.9,27.8,6z"/>
	<path fill="#8B2224" d="M28.6,5.6c0.7,0.5,1.3,1.1,2,1.7c-0.4-0.1-0.7-0.6-1.1-0.9C29.1,6.2,28.8,5.9,28.6,5.6z"/>
	<path fill="#8B2224" d="M29,5.7c0.5,0.2,1,0.7,1.3,1.1C29.8,6.5,29.4,6.1,29,5.7z"/>
	<path fill="#8B2224" d="M29.8,5.6c0.6,0.3,1,0.9,1.8,1.1c0.2,0.4,0.8,0.7,0.9,1c-0.7-0.1-0.7-0.9-1.3-1c0.1,0.4,0.8,0.6,0.9,1
		c-0.3,0-0.5-0.3-0.6-0.4C30.9,6.7,30.3,6.2,29.8,5.6z"/>
	<path fill="#8B2224" d="M33.4,5.6c0.1,0.1,0.2,0.2,0.3,0.3C33.5,5.9,33.4,5.8,33.4,5.6z"/>
	<path fill="#8B2224" d="M28.9,6.6c-0.5-0.2-0.7-0.6-1.2-0.9C28.2,5.8,28.6,6.3,28.9,6.6z"/>
	<path fill="#8B2224" d="M28.2,5.7c0.3-0.1,0.4,0.3,0.6,0.5c0.4,0.3,0.9,0.6,1.2,0.9C29.3,6.9,28.8,6.2,28.2,5.7z"/>
	<path fill="#8B2224" d="M18.2,5.8c0.2,0,0.2,0.1,0.3,0.2C18.5,6.1,18.3,5.9,18.2,5.8z"/>
	<path fill="#8B2224" d="M33.9,5.8c0.2,0,0.4,0.3,0.5,0.5C34.1,6.3,34,6,33.9,5.8z"/>
	<path fill="#8B2224" d="M37.3,5.8c0,0,0.1,0,0.1,0c0.5,0.4,1.1,0.6,1.5,1C38.4,6.5,37.7,6.3,37.3,5.8z"/>
	<path fill="#8B2224" d="M33,6c-0.4-0.1-0.6,0.3-0.9,0C32.2,5.9,32.7,5.8,33,6C33,6,33,6,33,6z"/>
	<path fill="#8B2224" d="M33,6C33,6,33,6.1,33,6L33,6z"/>
	<path fill="#8B2224" d="M11.8,6.3c0.1,0.1-0.3,0.4-0.5,0.4C11.4,6.5,11.7,6.4,11.8,6.3z"/>
	<path fill="#8B2224" d="M33.2,6.4c0.4,0.1,0.8,0.2,1.2,0.3C34.6,6.7,35,6.8,35,7C34.5,6.8,33.7,6.7,33.2,6.4z"/>
	<path fill="#8B2224" d="M30.4,6.6C30.5,6.6,30.5,6.6,30.4,6.6C30.5,6.6,30.4,6.6,30.4,6.6z"/>
	<path fill="#8B2224" d="M28.9,6.6C29.1,6.6,28.9,6.7,28.9,6.6L28.9,6.6z"/>
	<path fill="#8B2224" d="M30.5,6.6C30.5,6.6,30.5,6.7,30.5,6.6L30.5,6.6z"/>
	<path fill="#8B2224" d="M40.3,6.8c0.2,0,0.2,0.3,0.1,0.5C40.2,7.2,40.3,7,40.3,6.8z"/>
	<path fill="#8B2224" d="M11.8,6.9c-0.1,0.2-0.2,0.4-0.4,0.4c0-0.1,0-0.2,0-0.3C11.5,7,11.6,6.9,11.8,6.9z"/>
	<path fill="#8B2224" d="M30.7,6.9C31,7,31.4,7.3,31.6,7.6C31.1,7.6,31.1,7.1,30.7,6.9z"/>
	<path fill="#8B2224" d="M39.8,6.9C39.9,7,39.9,7.4,40,7.6C39.8,7.4,39.7,7.2,39.8,6.9z"/>
	<path fill="#8B2224" d="M32,6.9c0.4,0.1,0.7,0.5,1,0.9C32.5,7.7,32.3,7.2,32,6.9z"/>
	<path fill="#8B2224" d="M30.5,7c0.3-0.1,0.4,0.3,0.6,0.4C30.8,7.6,30.7,7.1,30.5,7z"/>
	<path fill="#8B2224" d="M11.2,7.1c-0.1,0.2-0.3,0.3-0.5,0.4C10.8,7.3,11.1,7.2,11.2,7.1z"/>
	<path fill="#8B2224" d="M37.7,7.1c0.4,0.3,1.1,0.4,1.3,0.9c-0.5-0.1-0.6-0.5-1.2-0.6C37.7,7.3,37.7,7.2,37.7,7.1z"/>
	<path fill="#8B2224" d="M32.7,7.2c0.3,0,0.5,0.4,0.7,0.6C33,7.8,32.9,7.4,32.7,7.2z"/>
	<path fill="#8B2224" d="M33.2,7.2c0.3,0.1,0.5,0.4,0.8,0.5C33.6,8,33.3,7.5,33.2,7.2z"/>
	<path fill="#8B2224" d="M33.8,7.3c0.2,0.1,0.5,0.3,0.5,0.5C34,7.7,33.9,7.5,33.8,7.3z"/>
	<path fill="#8B2224" d="M40.5,7.4c0.2,0.1,0,0.5-0.1,0.6C40.4,7.8,40.5,7.6,40.5,7.4z"/>
	<path fill="#8B2224" d="M9.8,7.5C10,7.6,9.9,8.1,9.8,8.2C9.7,7.9,9.8,7.7,9.8,7.5z"/>
	<path fill="#8B2224" d="M37.8,7.5c0.4,0.3,0.9,0.5,1.3,0.9C38.6,8.2,38,7.9,37.8,7.5z"/>
	<path fill="#8B2224" d="M10.9,7.8c0,0.2-0.2,0.3-0.3,0.2C10.5,7.9,10.7,7.9,10.9,7.8z"/>
	<path fill="#8B2224" d="M39.7,7.8C39.9,8,40.1,8.2,40,8.5C39.9,8.3,39.8,8.1,39.7,7.8z"/>
	<path fill="#8B2224" d="M10.5,8c0,0.1-0.1,0.2-0.3,0.3C10.2,8.1,10.3,8,10.5,8z"/>
	<path fill="#8B2224" d="M14.9,8.1C14.5,8.6,14,9,13.3,9.3C13.7,8.8,14.3,8.4,14.9,8.1z"/>
	<path fill="#8B2224" d="M15.2,8.2C15.3,8.2,15.2,8.2,15.2,8.2c-0.3,0.4-0.6,0.8-1.1,1C14,9,14.3,8.8,14.5,8.7
		C14.7,8.5,15,8.4,15.2,8.2z"/>
	<path fill="#8B2224" d="M9.2,9.2C9.2,9.2,9.1,9.2,9.2,9.2c0-0.4,0.1-0.7,0.3-0.9C9.6,8.7,9.3,8.9,9.2,9.2z"/>
	<path fill="#8B2224" d="M15.6,8.2C15.7,8.5,15,8.9,14.7,9C14.9,8.7,15.3,8.5,15.6,8.2z"/>
	<path fill="#8B2224" d="M40.7,8.2c0.1,0.1-0.1,0.7-0.2,0.8C40.4,8.7,40.6,8.5,40.7,8.2z"/>
	<path fill="#8B2224" d="M39.7,8.6c0.2,0.2,0.4,0.4,0.4,0.8c-0.2-0.1-0.1-0.5-0.4-0.5C39.7,8.8,39.7,8.7,39.7,8.6z"/>
	<path fill="#8B2224" d="M10.1,8.8C9.9,9,9.6,9.2,9.4,9.4C9.5,9.1,9.8,8.6,10.1,8.8z"/>
	<path fill="#8B2224" d="M40.9,8.8c0.2,0,0.1,0.4,0.1,0.6c-0.1,0-0.1-0.1-0.2-0.1c-0.2,0.1,0,0.6-0.3,0.7
		C40.5,9.5,40.7,9.2,40.9,8.8z"/>
	<path fill="#8B2224" d="M10.4,9.1C10.4,9.2,10.4,9.2,10.4,9.1C10.4,9.1,10.4,9.1,10.4,9.1z"/>
	<path fill="#8B2224" d="M9.2,9.2c0.1,0.3-0.1,0.5-0.3,0.7C8.8,9.6,9.2,9.4,9.2,9.2z"/>
	<path fill="#8B2224" d="M39.8,9.6c0.1,0.1,0.3,0.2,0.3,0.4C39.9,9.9,39.8,9.8,39.8,9.6z"/>
	<path fill="#8B2224" d="M40.9,9.9c0.2,0.2-0.1,0.6-0.1,0.9C40.5,10.5,40.9,10.2,40.9,9.9z"/>
	<path fill="#8B2224" d="M36.8,11c-0.1,0-0.1,0.1-0.2,0c-0.2-0.2-0.3-0.5-0.5-0.7c0,0.2,0.3,0.4,0.4,0.6c-0.4-0.1-0.5-0.5-0.9-0.6
		c0-0.2,0.1-0.2,0.2-0.4c0.1,0,0.2,0.1,0.4,0C36.3,10.5,36.7,10.7,36.8,11z"/>
	<path fill="#8B2224" d="M36.4,10.1c0.5,0.1,0.6,0.6,0.9,0.9C36.9,10.8,36.6,10.5,36.4,10.1z"/>
	<path fill="#8B2224" d="M11.1,10.4c1,0.1,2,0.5,3.1,0.6C13.1,11.3,12,10.6,11.1,10.4z"/>
	<path fill="#8B2224" d="M35.3,10.4c0.3,0,0.3,0.3,0.6,0.4C35.7,10.8,35.4,10.6,35.3,10.4z"/>
	<path fill="#8B2224" d="M35,10.4c0.4,0,0.5,0.3,0.6,0.5C35.4,10.7,35.1,10.6,35,10.4z"/>
	<path fill="#8B2224" d="M40.1,10.4c0.3,0.1,0.3,0.5,0.3,0.9C40.2,11.1,40.2,10.7,40.1,10.4z"/>
	<path fill="#8B2224" d="M34.7,10.7c-0.2-0.1-0.3-0.1-0.5-0.2C34.3,10.3,34.8,10.6,34.7,10.7z"/>
	<path fill="#8B2224" d="M34.6,10.5c0.2-0.1,0.4,0.1,0.5,0.2C34.9,10.8,34.8,10.5,34.6,10.5z"/>
	<path fill="#8B2224" d="M5.5,10.5c0.1,0,0.2,0.2,0.1,0.2C5.6,10.7,5.5,10.7,5.5,10.5z"/>
	<path fill="#8B2224" d="M15.4,10.7c0.1,0,0.1,0,0.2,0C15.6,10.9,15.3,10.9,15.4,10.7z"/>
	<path fill="#8B2224" d="M5.7,10.9c0.1,0.1,0.1,0.4,0.2,0.7C5.7,11.4,5.7,11.2,5.7,10.9z"/>
	<path fill="#8B2224" d="M8.9,11.1c0,0.2,0.2,0.1,0.4,0.1c0.2,0,0.2,0.3,0.4,0.2c0.1-0.3-0.4-0.3-0.5-0.5c0.6-0.2,1.1,0.9,0.5,1.1
		c-0.3,0.1-0.6-0.2-0.6-0.6c-0.6-0.2-0.7,0.5-1,0.7C8.1,11.6,8.4,11.2,8.9,11.1z M9.5,11.5c-0.1,0-0.1-0.1-0.2,0
		C9.3,11.6,9.6,11.6,9.5,11.5z"/>
	<path fill="#8B2224" d="M8.9,11.1c0,0,0.1,0,0.1,0C9.1,11.1,9,11,8.9,11.1z"/>
	<path fill="#8B2224" d="M14.8,11.1c-0.1,0-0.1,0-0.2,0C14.6,11,14.8,11,14.8,11.1z"/>
	<path fill="#8B2224" d="M36.8,11C36.9,11,36.9,11.1,36.8,11L36.8,11z"/>
	<path fill="#8B2224" d="M8.9,11.1C8.9,11,8.9,11.1,8.9,11.1L8.9,11.1z"/>
	<path fill="#8B2224" d="M43,11.1c0.3,0.2,0.5,0.5,0.7,0.8C43.4,11.7,43.1,11.5,43,11.1z"/>
	<path fill="#8B2224" d="M34.8,11.4c-0.2,0-0.2-0.1-0.3-0.2C34.5,11.1,34.9,11.2,34.8,11.4z"/>
	<path fill="#8B2224" d="M37.6,11.3c-0.1,0-0.1-0.1-0.2-0.1C37.4,11.1,37.6,11.2,37.6,11.3z"/>
	<path fill="#8B2224" d="M35.4,11.6c-0.2,0.1-0.3-0.2-0.5-0.3C35.1,11.1,35.3,11.5,35.4,11.6z"/>
	<path fill="#8B2224" d="M38.2,11.2c0.2,0.1,0.2,0.3,0.4,0.4C38.5,11.7,38.3,11.4,38.2,11.2z"/>
	<path fill="#8B2224" d="M5.4,11.3c0.1,0,0.1,0.1,0.1,0.2C5.4,11.5,5.4,11.4,5.4,11.3z"/>
	<path fill="#8B2224" d="M35.3,11.3c0.3-0.1,0.5,0.2,0.6,0.4C35.6,11.6,35.5,11.4,35.3,11.3z"/>
	<path fill="#8B2224" d="M35.7,11.4c0.4-0.1,0.5,0.3,0.7,0.5C36.2,11.9,35.9,11.5,35.7,11.4z"/>
	<path fill="#8B2224" d="M36.5,11.4c0.4,0.1,0.6,0.4,0.8,0.7C37.1,12,36.7,11.7,36.5,11.4z"/>
	<path fill="#8B2224" d="M38,11.9c0.1-0.1,0.3,0.1,0.3,0.2C38.2,12.1,38.2,11.9,38,11.9z"/>
	<path fill="#8B2224" d="M4.9,12c0.3,0.5,0.7,1.1,0.6,1.8C5.1,13.3,5.2,12.5,4.9,12z"/>
	<path fill="#8B2224" d="M7.4,12c0.1,0,0,0.2,0,0.2C7.3,12.2,7.3,12,7.4,12z"/>
	<path fill="#8B2224" d="M43.1,12.1C43.1,12.1,43.1,12.2,43.1,12.1L43.1,12.1z"/>
	<path fill="#8B2224" d="M43.2,12.3c0.1,0.1,0.4,0.1,0.4,0.4C43.4,12.6,43.3,12.5,43.2,12.3z"/>
	<path fill="#8B2224" d="M7.4,12.7c0.1,0.1,0,0.3,0,0.4C7.2,13,7.4,12.8,7.4,12.7z"/>
	<path fill="#8B2224" d="M5.5,12.8c0.1,0.1,0.1,0.3,0.1,0.5C5.5,13.3,5.5,13,5.5,12.8z"/>
	<path fill="#8B2224" d="M7,13c0.1,0.6-0.5,1.3-0.6,1.9c0.2,0,0.3-0.5,0.6-0.4c0.1,0.2-0.2,0.1-0.3,0.2c-0.1,0.2-0.2,0.3-0.3,0.4
		c-0.1,0.1-0.2,0.1-0.3,0.1c-0.5,1-0.5,2.5-0.8,3.7c-0.2-0.2-0.2-0.6-0.3-0.9c0.2,0,0.1,0.3,0.3,0.3c0.1-0.4,0.1-0.6,0.1-1.1
		C5.6,15.5,6.6,14.6,7,13z"/>
	<path fill="#8B2224" d="M41.8,13.1c0.2,0,0.1,0.4,0.1,0.5C41.7,13.6,41.8,13.3,41.8,13.1z"/>
	<path fill="#8B2224" d="M6.5,13.3c0.1,0,0.2,0.1,0.1,0.2C6.4,13.6,6.5,13.5,6.5,13.3z"/>
	<path fill="#8B2224" d="M43.5,18C43.6,18,43.6,18,43.5,18c-0.5-1.5-1.2-2.8-1.5-4.5c0.5,0.8,0.6,1.7,0.9,2.6c0.4,1.1,1.1,1.9,1,3.1
		c-0.2-0.8-0.6-1.5-1.4-1.8C42.9,17.3,43.4,17.7,43.5,18z"/>
	<path fill="#8B2224" d="M6.3,13.7c0.2,0,0.2,0.3,0.1,0.4C6.2,14.1,6.1,13.8,6.3,13.7z"/>
	<path fill="#8B2224" d="M8.4,13.8c-0.2,0.5-0.3,1.5-0.8,1.7C7.8,14.9,8.1,14.3,8.4,13.8z"/>
	<path fill="#8B2224" d="M8.7,16.1c-0.9,0.3-1.4,1.2-2,1.5c0-0.2,0.2-0.3,0.3-0.5c0,0,0,0,0,0c0.7-0.4,1.2-0.9,1.7-1.4
		c0-0.2,0-0.4,0.3-0.4c0,0.2-0.3,0.4-0.2,0.6c0.1-0.1,0.3-0.1,0.4-0.3c-0.1-0.1,0.3-0.7,0.4-0.7c-0.1,0.3-0.2,0.5-0.3,0.7
		c-0.1,0,0,0,0,0c0.4-0.1,0.6-0.4,1-0.5c0.1-0.2,0.2-0.4,0.4-0.4c0,0.1-0.1,0.2-0.1,0.2c0.2,0,0.2-0.1,0.3-0.1
		c0.2-0.5,0.9-0.7,1.5-0.7c-0.3,0.3-0.9,0.4-1.1,0.8c0-0.1-0.1-0.1-0.2-0.1C10.2,15.2,9.4,15.6,8.7,16.1z M11.2,14.6
		c0.1,0,0.2,0,0.2-0.1C11.3,14.5,11.2,14.5,11.2,14.6z"/>
	<path fill="#8B2224" d="M6.2,14.6c-0.1-0.1-0.3-0.1-0.3-0.3C6.1,14.2,6.3,14.3,6.2,14.6z"/>
	<path fill="#8B2224" d="M10.2,14.6c0,0.1-0.1,0.2-0.2,0.1C10,14.7,10.1,14.6,10.2,14.6z"/>
	<path fill="#8B2224" d="M42.8,14.6c0.2,0,0.1,0.5,0,0.6C42.7,15.1,42.9,14.9,42.8,14.6z"/>
	<path fill="#8B2224" d="M41.9,14.7c0.1,0,0.1,0.1,0.3,0.1c0,0.1-0.1,0.1-0.2,0.1C41.9,14.8,41.9,14.8,41.9,14.7z"/>
	<path fill="#8B2224" d="M5.7,14.7c0.2,0.1,0.3,0.2,0.3,0.4C5.8,15.1,5.8,15,5.6,15C5.5,14.9,5.6,14.8,5.7,14.7z"/>
	<path fill="#8B2224" d="M10,14.9c0,0.1-0.1,0.2-0.2,0.2C9.9,15,9.9,14.9,10,14.9z"/>
	<path fill="#8B2224" d="M43.2,15.2c0.2,0.3,0,0.7,0,1.1C43,16,43.2,15.5,43.2,15.2z"/>
	<path fill="#8B2224" d="M10.6,15.3c-0.1,0.2-0.4,0.1-0.6,0.2C10,15.3,10.4,15.3,10.6,15.3z"/>
	<path fill="#8B2224" d="M42,15.3c0.2,0,0.4,0.1,0.4,0.2C42.2,15.6,42,15.5,42,15.3z"/>
	<path fill="#8B2224" d="M5.4,15.4c0.3,0,0.4,0.4,0.3,0.6C5.7,15.7,5.3,15.6,5.4,15.4z"/>
	<path fill="#8B2224" d="M6.6,15.4c0,0.1,0,0.2,0,0.2c-0.1,0-0.1-0.1-0.1-0.2C6.5,15.4,6.6,15.4,6.6,15.4z"/>
	<path fill="#8B2224" d="M6.3,15.5C6.4,15.7,6.2,16,6,16.1C6,15.8,6.2,15.7,6.3,15.5z"/>
	<path fill="#8B2224" d="M8.2,15.7C8.3,15.8,8.2,16,8,16C8,15.8,8.2,15.8,8.2,15.7z"/>
	<path fill="#8B2224" d="M8.7,16.1c0.5-0.1,0.9-0.2,1.3-0.4c-0.3,0.4-1.2,0.4-1.6,0.6C8.5,16.2,8.6,16.2,8.7,16.1z"/>
	<path fill="#8B2224" d="M38.5,15.9c0.1-0.1,0.2,0.1,0.2,0.2C38.6,16.1,38.6,15.9,38.5,15.9z"/>
	<path fill="#8B2224" d="M41.5,18.3C41.5,18.2,41.5,18.2,41.5,18.3c-0.2-0.3-0.6-0.4-1-0.5c0-0.1,0.2,0,0.3,0
		c-0.1-0.4-0.7-0.4-1.2-0.5c0-0.1,0.2,0,0.3,0c-0.2-0.3-0.7-0.3-1.1-0.4c0-0.1,0.1,0,0.1-0.1c-0.3-0.2-0.7-0.3-0.9-0.7
		c1,0.5,2.2,1,2.9,1.9c0.4,0.1,0.7,0.3,0.9,0.7C41.7,18.4,41.7,18.3,41.5,18.3z"/>
	<path fill="#8B2224" d="M43.6,15.9c0.1,0.4-0.1,0.9,0,1.4C43.3,17,43.5,16.3,43.6,15.9z"/>
	<path fill="#8B2224" d="M5.2,16c0.2,0.1,0.4,0.3,0.3,0.6C5.4,16.4,5.2,16.3,5.2,16z"/>
	<path fill="#8B2224" d="M39.3,16.1c0.2,0.1,0.3,0.3,0.4,0.5C39.4,16.5,39.3,16.3,39.3,16.1z"/>
	<path fill="#8B2224" d="M42.1,16.1c0.1,0,0.3,0,0.3,0.2C42.3,16.3,42.1,16.3,42.1,16.1z"/>
	<path fill="#8B2224" d="M6.3,16.2c-0.1,0.1,0,0.3-0.2,0.3C6.1,16.4,6.1,16.3,6.3,16.2z"/>
	<path fill="#8B2224" d="M40,16.4C39.9,16.4,39.9,16.3,40,16.4L40,16.4z"/>
	<path fill="#8B2224" d="M6,16.4c0.1,0.2-0.1,0.3-0.2,0.5C5.7,16.7,5.9,16.5,6,16.4z"/>
	<path fill="#8B2224" d="M40,16.4c0.2,0.1,0.3,0.4,0.4,0.6C40.1,16.9,40,16.7,40,16.4z"/>
	<path fill="#8B2224" d="M9.2,16.5c-0.1,0.2-0.3,0.3-0.5,0.3c0-0.1,0.1-0.1,0-0.2c-0.4,0-0.5,0.2-0.9,0.2
		C8.1,16.5,8.6,16.5,9.2,16.5z"/>
	<path fill="#8B2224" d="M38.7,16.7c0,0.2-0.2,0.2-0.2,0C38.7,16.7,38.6,16.6,38.7,16.7z"/>
	<path fill="#8B2224" d="M40.7,16.7c0.2,0,0.3,0.1,0.3,0.2c-0.1,0-0.1,0-0.1,0c0.1,0.3,0.3,0.4,0.4,0.7
		C40.9,17.6,40.8,17.1,40.7,16.7z"/>
	<path fill="#8B2224" d="M42.3,16.7c0.1,0.1,0.3,0.1,0.3,0.2c-0.1,0-0.1,0.1-0.2,0C42.4,16.9,42.3,16.8,42.3,16.7z"/>
	<path fill="#8B2224" d="M43.9,16.7c0.1,0.3-0.1,0.7,0,1.1C43.6,17.5,43.9,17,43.9,16.7z"/>
	<path fill="#8B2224" d="M5.1,16.8c0.2,0.1,0.3,0.3,0.3,0.6C5.2,17.3,5,17.2,5.1,16.8z"/>
	<path fill="#8B2224" d="M8.1,17c-0.2,0.2-0.6,0.3-0.9,0.4C7.4,17.1,7.7,17,8.1,17z"/>
	<path fill="#8B2224" d="M6.2,17c0,0.1,0,0.2-0.1,0.2C6,17.1,6.1,17,6.2,17z"/>
	<path fill="#8B2224" d="M5.9,17.1c0.1,0.2-0.2,0.5-0.2,0.7C5.5,17.5,5.8,17.3,5.9,17.1z"/>
	<path fill="#8B2224" d="M38.9,17.2c0.1,0,0.4-0.1,0.5,0C39.4,17.4,38.8,17.4,38.9,17.2z"/>
	<path fill="#8B2224" d="M41.7,17.5c0,0.1,0.1,0.2-0.1,0.2c-0.1,0-0.2-0.2-0.1-0.3C41.6,17.4,41.6,17.6,41.7,17.5z"/>
	<path fill="#8B2224" d="M5.3,17.6C5.3,17.5,5.3,17.9,5.3,17.6L5.3,17.6z"/>
	<path fill="#8B2224" d="M39.5,17.7c0.1,0,0.2,0,0.3,0C39.8,17.9,39.4,17.9,39.5,17.7z"/>
	<path fill="#8B2224" d="M44,17.7c0.2,0.1,0.1,0.5-0.1,0.4C43.9,17.9,44,17.9,44,17.7z"/>
	<path fill="#8B2224" d="M41.6,17.8c0.1,0.1,0.2,0.1,0.2,0.3C41.7,18,41.6,18,41.6,17.8z"/>
	<path fill="#8B2224" d="M40.7,18.1c-0.1,0.2-0.4,0.2-0.6,0.1C40.2,18.1,40.5,18,40.7,18.1z"/>
	<path fill="#8B2224" d="M41.5,18.2C41.5,18.3,41.5,18.3,41.5,18.2c-0.1,0.1-0.4,0-0.5-0.2C41.2,18,41.3,18.2,41.5,18.2z"/>
	<path fill="#8B2224" d="M43.2,18.4c-0.2,0-0.2-0.1-0.3-0.2C42.9,18.1,43.2,18.2,43.2,18.4z"/>
	<path fill="#8B2224" d="M2.1,18.3c0.4,1.1,0.8,2.3,1.3,3.3c0.2,1.3,1.2,2,1.3,3.3c-0.3-0.2-0.4-0.6-0.6-0.9
		c0.1,0.1,0.3,0.2,0.4,0.2c-0.3-0.7-0.8-1.3-1-2.1c-0.2-0.2-0.7-0.1-0.7-0.5C3,21.8,3.2,21.9,3.4,22C3.2,20.7,2.1,19.9,2.1,18.3z"/>
	<path fill="#8B2224" d="M40.9,18.6c0.1-0.1,0.5,0,0.6,0.1C41.2,18.8,41,18.6,40.9,18.6z"/>
	<path fill="#8B2224" d="M43.5,18.5c0.1,0.1,0.3,0.1,0.3,0.4C43.6,18.8,43.5,18.7,43.5,18.5z"/>
	<path fill="#8B2224" d="M2.4,18.6c0.2,0.2,0.4,0.3,0.5,0.6C2.6,19.1,2.5,18.9,2.4,18.6z"/>
	<path fill="#8B2224" d="M41.7,18.6c0.1,0,0.1,0.1,0.2,0.1C41.9,18.8,41.7,18.7,41.7,18.6z"/>
	<path fill="#8B2224" d="M44.2,18.6c0.2,0.3,0,0.6,0,0.9C44.1,19.3,44.1,18.8,44.2,18.6z"/>
	<path fill="#8B2224" d="M8,18.8c0,0.7-0.6,1.4-0.9,2c-0.3,0.5-0.7,1-0.9,1.4c-0.1,0.2,0,0.5-0.3,0.6c0.2-0.7,0.5-1.3,0.9-1.8
		c0.1-0.7,0.6-1,0.9-1.6c0-0.1-0.1,0.1-0.1,0C7.6,19.1,7.9,19,8,18.8z"/>
	<path fill="#8B2224" d="M41.9,19c0.1-0.1,0.4,0,0.4,0.2C42.1,19.2,42,19.1,41.9,19z"/>
	<path fill="#8B2224" d="M43.4,19c0.3,0.1,0.4,0.4,0.5,0.7C43.6,19.6,43.5,19.3,43.4,19z"/>
	<path fill="#8B2224" d="M7.3,19.5c0.2,0,0.2,0.3,0,0.3C7.3,19.7,7.3,19.6,7.3,19.5z"/>
	<path fill="#8B2224" d="M2.8,19.6C3.1,19.7,3,20,3,20.3C2.8,20.2,2.9,19.8,2.8,19.6z"/>
	<path fill="#8B2224" d="M2.2,19.6c0.1,0,0.3,0.2,0.2,0.3C2.3,19.9,2.2,19.8,2.2,19.6z"/>
	<path fill="#8B2224" d="M40.2,20.6c-0.2,0.2-0.5-0.1-0.7-0.1c0.2,0.3,0.7,0.3,1,0.6c-0.4,0-0.9-0.2-1.2-0.4c0.1-0.2,0-0.4,0-0.7
		c0.2,0,0.2,0.2,0.4,0.2c0,0.1-0.1,0.1-0.1,0.1C39.7,20.4,40,20.5,40.2,20.6z"/>
	<path fill="#8B2224" d="M6.9,20c0.1,0,0.2,0.2,0.1,0.3C6.9,20.3,6.9,20.1,6.9,20z"/>
	<path fill="#8B2224" d="M3.3,20.1c0.1,0.1,0.2,0.2,0.2,0.3c-0.1,0-0.1-0.1-0.1-0.1c-0.1,0.2,0.1,0.5,0,0.6
		C3.1,20.8,3.2,20.3,3.3,20.1z"/>
	<path fill="#8B2224" d="M46.3,20.2c0.3,0.2-0.2,0.4-0.3,0.6C45.9,20.5,46.2,20.4,46.3,20.2z"/>
	<path fill="#8B2224" d="M7.6,20.2c0.2,0,0,0.2,0,0.3C7.4,20.6,7.5,20.2,7.6,20.2z"/>
	<path fill="#8B2224" d="M8.9,20.2c0.2,0.2,0,0.7,0.1,1.1c0,0.3,0.3,0.7,0,0.9C8.8,21.6,8.7,20.8,8.9,20.2z"/>
	<path fill="#8B2224" d="M2.3,20.3c0.3,0.1,0.5,0.2,0.5,0.4c-0.2,0-0.2-0.2-0.5-0.2C2.4,20.5,2.2,20.4,2.3,20.3z"/>
	<path fill="#8B2224" d="M6.5,20.5c0,0,0.1,0,0.1,0c0,0.1,0,0.2,0,0.2C6.5,20.7,6.5,20.6,6.5,20.5z"/>
	<path fill="#8B2224" d="M8.6,20.5c0.1,0.4,0.4,1.9,0,2.1C8.5,22,8.3,21.1,8.6,20.5z"/>
	<path fill="#8B2224" d="M46.1,20.7C46.1,20.7,46.2,20.7,46.1,20.7L46.1,20.7z"/>
	<path fill="#8B2224" d="M6.6,20.8c0.2,0,0.1,0.4-0.1,0.4C6.5,21,6.6,20.9,6.6,20.8z"/>
	<path fill="#8B2224" d="M46.1,20.8C46.2,20.7,46.2,20.8,46.1,20.8c0,0.7-0.5,1.1-0.8,1.7c-0.8,1.4-1.2,3.2-2.4,4.2
		c0.5-0.9,1.2-1.8,1.7-2.8c0.2-0.5,0.4-1.1,0.7-1.5C45.5,21.7,45.9,21.3,46.1,20.8z"/>
	<path fill="#8B2224" d="M39.3,20.9c0.5,0.1,0.9,0.3,1.2,0.6c-0.4,0.2-0.7-0.4-1.2-0.4C39.3,21,39.3,20.9,39.3,20.9z"/>
	<path fill="#8B2224" d="M45.8,20.9c0.1,0.1,0,0.3-0.1,0.3C45.6,21.1,45.6,20.9,45.8,20.9z"/>
	<path fill="#8B2224" d="M6.1,21c0.2,0,0.2,0.2,0.2,0.4C6.2,21.4,6.1,21.2,6.1,21z"/>
	<path fill="#8B2224" d="M3.7,21c0.2,0,0.3,0.1,0.3,0.2C3.8,21.3,3.6,21.3,3.7,21z"/>
	<path fill="#8B2224" d="M2.5,21.1c0.2,0,0.4,0.1,0.5,0.3c0,0.1-0.3,0-0.3,0.1C2.5,21.4,2.6,21.2,2.5,21.1z"/>
	<path fill="#8B2224" d="M7.1,21.1c0,0.1-0.1,0.2-0.2,0.2C6.8,21.3,6.9,21.1,7.1,21.1z"/>
	<path fill="#8B2224" d="M39.4,21.1c0.4,0.3,0.9,0.4,1.2,0.7C40.1,21.7,39.4,21.6,39.4,21.1z"/>
	<path fill="#8B2224" d="M3.6,21.2c0.2,0.1,0.1,0.4,0.1,0.7C3.5,21.8,3.5,21.4,3.6,21.2z"/>
	<path fill="#8B2224" d="M41.5,21.2c0.3,1.1,0.7,2.3,0.8,3.5C42.1,23.5,41.6,22.5,41.5,21.2z"/>
	<path fill="#8B2224" d="M39.4,21.5c0.4,0.2,0.8,0.4,1.2,0.7C40.2,22.1,39.5,22,39.4,21.5z"/>
	<path fill="#8B2224" d="M5.8,21.7c0.2,0.1,0,0.4,0.1,0.7c-0.1,0-0.2-0.1-0.3-0.2C5.7,22,5.8,21.9,5.8,21.7z"/>
	<path fill="#8B2224" d="M45,21.7c0.1,0,0.1,0.1,0.1,0.2C45,21.9,45,21.8,45,21.7z"/>
	<path fill="#8B2224" d="M4,21.9c0,0,0.1,0,0.1,0c0,0.1,0.1,0.2,0.1,0.3c-0.1,0-0.1-0.1-0.2,0c0,0.1,0.1,0.2,0,0.4
		C3.7,22.5,4,22.1,4,21.9z"/>
	<path fill="#8B2224" d="M6.7,21.9c0.2,0,0,0.2,0,0.3c-0.2,0-0.2,0-0.4,0.1C6.3,22,6.6,22.1,6.7,21.9z"/>
	<path fill="#8B2224" d="M39.5,21.9c0.4,0.2,0.9,0.4,1.2,0.7C40.2,22.5,39.7,22.3,39.5,21.9z"/>
	<path fill="#8B2224" d="M45.8,22.1c0.2,0.2-0.1,0.3-0.2,0.4C45.5,22.3,45.7,22.2,45.8,22.1z"/>
	<path fill="#8B2224" d="M44.6,22.2c0.3,0.1,0.2,0.6,0.1,0.8C44.7,22.7,44.5,22.4,44.6,22.2z"/>
	<path fill="#8B2224" d="M39.6,22.3c0.4,0.1,0.9,0.3,1.2,0.7C40.4,22.7,39.8,22.7,39.6,22.3z"/>
	<path fill="#8B2224" d="M3.6,22.7c-0.1,0.1-0.4,0-0.4-0.2C3.3,22.4,3.6,22.5,3.6,22.7z"/>
	<path fill="#8B2224" d="M41.4,22.5c0.1,0.1,0.2,0.1,0.2,0.3C41.5,22.8,41.4,22.5,41.4,22.5z"/>
	<path fill="#8B2224" d="M4.3,22.7c0.2,0.2,0.3,0.7,0.3,1.1C4.4,23.5,4.2,23.2,4.3,22.7z"/>
	<path fill="#8B2224" d="M42.2,22.7c0.2,0.1,0,0.2,0,0.4C42.1,23.1,42.2,22.9,42.2,22.7z"/>
	<path fill="#8B2224" d="M5.5,22.8c0.3,0.2,0,0.7,0,1C5.3,23.5,5.6,23.2,5.5,22.8z"/>
	<path fill="#8B2224" d="M6.4,22.8c0.1,0,0,0.2,0,0.3C6.1,23,6.2,23.2,6,23.2C6,23,6.2,22.9,6.4,22.8z"/>
	<path fill="#8B2224" d="M44.2,22.9c0.2,0.1,0.1,0.3,0.2,0.5C44.2,23.3,44.1,23.1,44.2,22.9z"/>
	<path fill="#8B2224" d="M7,23c0.1,0.3,0.3,1,0,1.1C7,23.9,6.9,23.3,7,23z"/>
	<path fill="#8B2224" d="M46.4,23c0.1,0.4,0.5,1,0.3,1.4C46.6,24,46.3,23.6,46.4,23z"/>
	<path fill="#8B2224" d="M3.6,23.2c0.2,0,0.4,0.1,0.4,0.4C3.8,23.5,3.6,23.4,3.6,23.2z"/>
	<path fill="#8B2224" d="M42.5,23.2c0.1,0.2-0.1,0.4-0.1,0.6C42.3,23.6,42.5,23.4,42.5,23.2z"/>
	<path fill="#8B2224" d="M45.4,23.2c0.2,0.1-0.1,0.3,0,0.5C45.1,23.7,45.4,23.3,45.4,23.2z"/>
	<path fill="#8B2224" d="M41.9,23.7c-0.1-0.1-0.3-0.1-0.3-0.3C41.8,23.5,41.9,23.6,41.9,23.7z"/>
	<path fill="#8B2224" d="M6.8,23.5c0.1,0.3,0.3,1-0.1,0.9C6.7,24.1,6.6,23.8,6.8,23.5z"/>
	<path fill="#8B2224" d="M45.1,23.5c0,0.1-0.1,0.2-0.2,0.2C44.9,23.6,44.9,23.5,45.1,23.5z"/>
	<path fill="#8B2224" d="M44.4,23.6c0.1,0.1,0,0.2,0,0.3C44.3,23.8,44.4,23.6,44.4,23.6z"/>
	<path fill="#8B2224" d="M6,23.6c0.1,0.2-0.1,0.5-0.1,0.7C5.7,24.1,5.9,23.8,6,23.6z"/>
	<path fill="#8B2224" d="M46.2,23.6c0.2,0.2,0.3,0.6,0.2,1C46.2,24.4,46,23.9,46.2,23.6z"/>
	<path fill="#8B2224" d="M41.9,23.7C42,23.7,41.9,23.8,41.9,23.7L41.9,23.7z"/>
	<path fill="#8B2224" d="M43.8,23.8c0.1,0.2,0.2,0.7,0.1,1C43.9,24.5,43.7,24.1,43.8,23.8z"/>
	<path fill="#8B2224" d="M42.7,24C42.8,24,42.8,24,42.7,24c0.1,0.1,0.1,0.1,0.1,0.2c0,0-0.1,0-0.1,0C42.7,24.1,42.7,24,42.7,24z"/>
	<path fill="#8B2224" d="M40.2,24c0.4,0.2,0.6,0.5,1,0.7C40.9,24.7,40.4,24.4,40.2,24z"/>
	<path fill="#8B2224" d="M45.1,24c0.2,0.1-0.1,0.3-0.1,0.4C44.9,24.4,45,24.1,45.1,24z"/>
	<path fill="#8B2224" d="M41.7,24.2c0.1,0.1,0.3,0.3,0.3,0.4C41.9,24.5,41.8,24.4,41.7,24.2z"/>
	<path fill="#8B2224" d="M46,24.2c0.2,0.1,0.3,0.7,0.1,0.9c-0.2-0.1-0.2-0.3-0.3-0.5C45.9,24.4,45.9,24.3,46,24.2z"/>
	<path fill="#8B2224" d="M44.7,24.4c0,0.1-0.1,0.1-0.2,0.1C44.6,24.4,44.6,24.4,44.7,24.4z"/>
	<path fill="#8B2224" d="M40.4,24.6c0.2-0.1,0.3,0.2,0.5,0.3c-0.1,0.1-0.3-0.1-0.5-0.2C40.5,24.6,40.5,24.6,40.4,24.6z"/>
	<path fill="#8B2224" d="M45.6,24.7c0.2,0,0.2,0.4,0.1,0.6C45.5,25.4,45.5,24.8,45.6,24.7z"/>
	<path fill="#8B2224" d="M42.6,24.8c0.1,0.2,0,0.7-0.1,0.8C42.5,25.3,42.5,25,42.6,24.8z"/>
	<path fill="#8B2224" d="M43.5,24.9c0.2,0.1,0.1,0.5-0.1,0.4C43.5,25.3,43.5,25.1,43.5,24.9z"/>
	<path fill="#8B2224" d="M41.4,25.1c-0.1,0-0.2-0.1-0.3-0.1C41.2,24.9,41.3,25.1,41.4,25.1C41.4,25.1,41.4,25.1,41.4,25.1z"/>
	<path fill="#8B2224" d="M42,25c0.2,0,0.1,0.3,0.2,0.4C41.9,25.4,42,25.2,42,25z"/>
	<path fill="#8B2224" d="M44.3,25.2c-0.1,0.2-0.2,0.3-0.4,0.4C44,25.4,44.1,25.3,44.3,25.2z"/>
	<path fill="#8B2224" d="M42.2,26.6c0.1-0.3,0-1.1,0.1-1.3C42.3,25.7,42.5,26.4,42.2,26.6z"/>
	<path fill="#8B2224" d="M44.5,25.9c0.2,0,0.2,0.1,0.2,0.2c0,0.1-0.1,0.2-0.2,0.2C44.4,26.1,44.4,26,44.5,25.9z"/>
	<path fill="#8B2224" d="M43.7,26.7c-0.1,0-0.1,0-0.1,0.1C43.7,26.8,43.7,26.8,43.7,26.7c0.2,0,0.2-0.1,0.3-0.1
		c-0.3,0.4-0.8,0.5-1.1,0.9c0.4-0.6,0.8-0.9,1.4-1.3c0.1,0,0,0.2,0,0.2C44.1,26.5,43.9,26.6,43.7,26.7z"/>
	<path fill="#8B2224" d="M38.5,26.7c0.3,0.3,0.6,0.5,0.7,1C38.9,27.5,38.5,27.3,38.5,26.7z"/>
	<path fill="#8B2224" d="M40,26.9c0.2,0.4,0,1,0,1.4C39.8,27.8,40,27.4,40,26.9z"/>
	<path fill="#8B2224" d="M9.4,27.1c0.2,0.1,0,0.5-0.2,0.5C9.1,27.3,9.3,27.3,9.4,27.1z"/>
	<path fill="#8B2224" d="M8.6,27.1c0.1,0,0.1,0.1,0.1,0.2C8.6,27.3,8.6,27.2,8.6,27.1z"/>
	<path fill="#8B2224" d="M45.2,27.1c0,0.1,0,0.2-0.1,0.3c-0.1,0-0.1-0.1-0.1-0.1C45,27.2,45.1,27.2,45.2,27.1z"/>
	<path fill="#8B2224" d="M39,28.1c-0.3-0.1-0.3-0.5-0.6-0.6c0.1,0.4,0.5,0.5,0.6,1c-0.3-0.1-0.3-0.5-0.6-0.6
		c-0.1,0.4,0.5,0.5,0.5,0.9c-0.3-0.2-0.5-0.5-0.7-0.8c0.1-0.3,0.1-0.5,0.2-0.8C38.7,27.4,38.8,27.7,39,28.1z"/>
	<path fill="#8B2224" d="M45.8,27.2c0.1,0.3-0.3,0.4-0.4,0.6C45.3,27.6,45.7,27.5,45.8,27.2z"/>
	<path fill="#8B2224" d="M39.8,27.3c0.1,0.2-0.1,0.4,0,0.7C39.6,27.8,39.8,27.5,39.8,27.3z"/>
	<path fill="#8B2224" d="M44.8,27.4c0.2,0.1,0.1,0.3-0.1,0.3C44.7,27.6,44.8,27.5,44.8,27.4z"/>
	<path fill="#8B2224" d="M4.1,27.6C4,27.6,4.1,27.5,4.1,27.6L4.1,27.6z"/>
	<path fill="#8B2224" d="M40.9,31.7c-0.1,0-0.2,0-0.2,0c1.3-1.6,3-2.8,4.6-4.2C44.1,29.1,42.1,30,40.9,31.7z"/>
	<path fill="#8B2224" d="M4.1,27.6c0.4,0.4,0.7,0.9,1,1.3c0.3,0.4,0.8,0.8,1.2,1.2c0.3,0.4,0.6,0.9,0.9,1.3c0.3,0.4,0.6,0.9,1,1.3
		c-0.1,0.2-0.3-0.2-0.5-0.2c-0.5-0.8-1.1-1.6-1.6-2.4c-0.5-0.7-1.3-1.2-1.7-2C4.3,27.9,4.1,27.8,4.1,27.6z"/>
	<path fill="#8B2224" d="M8.6,27.7c0.2,0.2,0.4,0.5,0.3,0.9c-0.1-0.2,0-0.6-0.3-0.6C8.5,27.8,8.6,27.8,8.6,27.7z"/>
	<path fill="#8B2224" d="M9.5,27.7c-0.1,0.3-0.2,0.4-0.3,0.7C9.1,28.2,9.3,27.8,9.5,27.7z"/>
	<path fill="#8B2224" d="M44.4,27.8c0.1,0.1,0,0.3-0.1,0.3C44.3,27.9,44.4,27.9,44.4,27.8z"/>
	<path fill="#8B2224" d="M4.3,28.1c0,0.1,0.1,0.1,0,0.2c-0.2,0-0.2-0.2-0.2-0.3C4.3,28,4.3,28.1,4.3,28.1z"/>
	<path fill="#8B2224" d="M39,28.1C39.1,28.1,39,28.1,39,28.1L39,28.1z"/>
	<path fill="#8B2224" d="M40.3,28.1c0.1,0.1-0.1,0.2-0.1,0.3C40.1,28.4,40.1,28.1,40.3,28.1z"/>
	<path fill="#8B2224" d="M39.7,28.2c0.1,0,0.1,0.1,0.1,0.2C39.7,28.3,39.6,28.3,39.7,28.2z"/>
	<path fill="#8B2224" d="M45,28.2c0,0.1-0.1,0.1-0.2,0.1C44.8,28.2,44.9,28.2,45,28.2z"/>
	<path fill="#8B2224" d="M8.4,28.3c0.2,0.1,0.3,0.4,0.3,0.6c-0.2-0.1-0.1-0.3-0.4-0.3C8.3,28.4,8.4,28.4,8.4,28.3z"/>
	<path fill="#8B2224" d="M38,28.5c0.3,0.3,0.5,0.6,0.6,1C38.4,29.2,38,29,38,28.5z"/>
	<path fill="#8B2224" d="M40,28.5c0.1,0.3,0,0.7-0.2,0.9C39.8,29.1,39.9,28.8,40,28.5z"/>
	<path fill="#8B2224" d="M43.5,28.6c0.1,0.1,0,0.4-0.1,0.4c0-0.1,0.1-0.2,0-0.2C43.3,28.6,43.5,28.7,43.5,28.6z"/>
	<path fill="#8B2224" d="M2.7,28.8c-0.2,0-0.4,0-0.4-0.2C2.4,28.6,2.7,28.6,2.7,28.8z"/>
	<path fill="#8B2224" d="M9.4,28.7C9.4,29,9.1,29.2,9,29.5C8.9,29.2,9.2,28.9,9.4,28.7z"/>
	<path fill="#8B2224" d="M44.6,28.7c0,0.1-0.2,0.1-0.3,0.1C44.3,28.7,44.5,28.7,44.6,28.7z"/>
	<path fill="#8B2224" d="M40.3,28.9C40.3,28.8,40.4,28.8,40.3,28.9L40.3,28.9z"/>
	<path fill="#8B2224" d="M8.2,28.9c0.3,0.1,0.4,0.4,0.4,0.8C8.5,29.4,8.3,29.1,8.2,28.9z"/>
	<path fill="#8B2224" d="M39.4,28.9c0.2,0,0.2,0.2,0.2,0.4C39.5,29.2,39.3,29.1,39.4,28.9z"/>
	<path fill="#8B2224" d="M40.3,28.9c0,0.4-0.3,0.5-0.3,0.9C39.9,29.4,40.1,29,40.3,28.9z"/>
	<path fill="#8B2224" d="M4.7,28.9c0.1,0,0.1,0.1,0.2,0.1c0,0.1-0.1,0-0.2,0C4.7,29,4.7,28.9,4.7,28.9z"/>
	<path fill="#8B2224" d="M5.6,28.9c0,0,0.1,0,0.1,0.1c-0.1,0.1-0.1,0.1-0.1,0.4C5.5,29.2,5.6,29.1,5.6,28.9z"/>
	<path fill="#8B2224" d="M42.9,28.9c0.2,0.1,0,0.4,0,0.5C42.8,29.3,42.8,29,42.9,28.9z"/>
	<path fill="#8B2224" d="M42.5,29.2c0,0.2,0,0.4,0,0.5C42.2,29.7,42.2,29.2,42.5,29.2z"/>
	<path fill="#8B2224" d="M3,29.5c0.1-0.1,0.6-0.1,0.6,0.1C3.4,29.6,3.2,29.5,3,29.5z"/>
	<path fill="#8B2224" d="M5,29.5c0-0.1,0.2,0,0.2,0C5.2,29.6,5.1,29.6,5,29.5C5.1,29.5,5.1,29.5,5,29.5z"/>
	<path fill="#8B2224" d="M8.1,29.5c0.2,0.2,0.3,0.4,0.4,0.7c-0.2-0.1-0.1-0.4-0.4-0.4C8,29.7,8.1,29.6,8.1,29.5z"/>
	<path fill="#8B2224" d="M42,29.6c0,0.2-0.1,0.3-0.1,0.4C41.8,29.9,41.7,29.6,42,29.6z"/>
	<path fill="#8B2224" d="M6.2,29.6c0.1,0,0.2,0.1,0.2,0.2C6.3,29.8,6.1,29.8,6.2,29.6z"/>
	<path fill="#8B2224" d="M39.2,29.6c0.2,0,0.2,0.2,0.2,0.4c-0.1,0-0.1-0.1-0.2-0.1C39.2,29.7,39.2,29.7,39.2,29.6z"/>
	<path fill="#8B2224" d="M9.2,29.7c0.1,0.2-0.1,0.5-0.3,0.6C8.9,30,9.1,29.9,9.2,29.7z"/>
	<path fill="#8B2224" d="M40.4,29.7c0.2,0.1,0.1,0.6-0.1,0.6C40.3,30,40.3,29.8,40.4,29.7z"/>
	<path fill="#8B2224" d="M43.5,29.8c-0.1,0.2-0.2,0.2-0.4,0.2C43.1,29.8,43.3,29.8,43.5,29.8z"/>
	<path fill="#8B2224" d="M4.2,30c-0.2-0.1-0.8,0-0.9-0.1C3.6,29.8,4.1,29.7,4.2,30z"/>
	<path fill="#8B2224" d="M45,29.9c0,0.1-0.1,0.1,0,0.2c-0.1,0-0.1,0-0.1-0.1C44.9,29.9,45,29.9,45,29.9z"/>
	<path fill="#8B2224" d="M5.7,30.2c-0.1,0-0.3,0-0.3,0C5.5,30,5.8,30,5.7,30.2z"/>
	<path fill="#8B2224" d="M41.4,30c0.2,0.3,0.1,0.9-0.3,1c0.1-0.2,0.3-0.5,0.1-0.7C41.2,30.2,41.4,30.2,41.4,30z"/>
	<path fill="#8B2224" d="M4.1,30.2c-0.1,0-0.3,0-0.4,0C3.7,30,4.1,30,4.1,30.2z"/>
	<path fill="#8B2224" d="M40,30.1c0.2,0-0.1,0.3-0.1,0.4C39.8,30.3,40,30.2,40,30.1z"/>
	<path fill="#8B2224" d="M4.2,30.1c0.2,0,0.4,0,0.4,0.2C4.4,30.3,4.2,30.3,4.2,30.1z"/>
	<path fill="#8B2224" d="M39.4,30.2c0.2,0,0.1,0.1,0.1,0.2C39.5,30.4,39.5,30.2,39.4,30.2z"/>
	<path fill="#8B2224" d="M39.7,30.2c0.1,0.7-0.1,1.4-0.2,2c-0.1,0.4-0.1,0.9-0.4,1C39.5,32.4,39.5,31.2,39.7,30.2z"/>
	<path fill="#8B2224" d="M41.8,30.2C41.8,30.2,41.9,30.2,41.8,30.2L41.8,30.2z"/>
	<path fill="#8B2224" d="M41.8,30.2c0,0.1,0,0.1,0,0.2C41.7,30.4,41.8,30.3,41.8,30.2C41.8,30.2,41.8,30.2,41.8,30.2z"/>
	<path fill="#8B2224" d="M8,30.3c0.2,0.1,0.3,0.3,0.3,0.6c-0.1-0.1-0.2-0.3-0.4-0.4C8,30.4,8.1,30.4,8,30.3z"/>
	<path fill="#8B2224" d="M44.2,30.3c-0.1,0.5-0.5,0.9-0.9,1.3c-0.3,0.4-0.5,1-1,1.3C42.9,32,43.5,31.1,44.2,30.3z"/>
	<path fill="#8B2224" d="M44.7,30.4C44.8,30.4,44.8,30.4,44.7,30.4c-0.3,0.6-0.5,1.3-1,1.7C43.8,31.5,44.4,30.9,44.7,30.4z"/>
	<path fill="#8B2224" d="M6,30.6c0.2,0,0.3,0.1,0.4,0.3C6.1,30.9,6,30.8,6,30.6z"/>
	<path fill="#8B2224" d="M39.1,30.6c0.2,0.2,0.3,0.5,0.3,0.8C39.2,31.2,39.2,30.9,39.1,30.6z"/>
	<path fill="#8B2224" d="M42.5,30.6c-0.1,0.2-0.3,0.3-0.6,0.4C42,30.8,42.2,30.6,42.5,30.6z"/>
	<path fill="#8B2224" d="M10.9,30.6c0.2,0.1,0.2,0.3,0.3,0.4C11,31,10.8,30.8,10.9,30.6z"/>
	<path fill="#8B2224" d="M40.3,30.6c0.2,0,0,0.1,0,0.2C40.2,30.8,40.3,30.7,40.3,30.6z"/>
	<path fill="#8B2224" d="M6.8,30.6c0.3,0.3,0.4,0.6,0.6,0.9C7.1,31.3,6.9,31.1,6.8,30.6z"/>
	<path fill="#8B2224" d="M43.7,30.6c-0.3,0.4-0.6,0.9-0.9,1.3c-0.3,0.4-0.4,1-1,1.2c0.4-0.5,0.7-1,1.1-1.6
		C43.1,31.2,43.3,30.8,43.7,30.6z"/>
	<path fill="#8B2224" d="M43,31C43.1,31,43.1,31,43,31c-0.2,0.4-0.3,0.8-0.6,1c-0.2,0.5-0.5,1-0.9,1.1C41.9,32.4,42.5,31.7,43,31z"
		/>
	<path fill="#8B2224" d="M38.1,31.1c0.2,0.2,0.4,0.3,0.5,0.7C38.3,31.6,38.1,31.5,38.1,31.1z"/>
	<path fill="#8B2224" d="M10.9,31.2c0.3,0,0.6,0.3,0.6,0.7C11.2,31.7,11.1,31.4,10.9,31.2z"/>
	<path fill="#8B2224" d="M41.6,31.3c-0.1,0.1-0.2,0.2-0.3,0.3C41.2,31.4,41.4,31.3,41.6,31.3z"/>
	<path fill="#8B2224" d="M5.6,31.5c-0.4,0-0.7-0.1-1.1,0C4.7,31.3,5.5,31.2,5.6,31.5z"/>
	<path fill="#8B2224" d="M6.7,31.4c0.2,0.1,0.3,0.3,0.4,0.4C6.9,31.8,6.8,31.5,6.7,31.4z"/>
	<path fill="#8B2224" d="M40,31.5c0.1,0.2-0.2,0.7-0.3,0.8C39.7,32,39.8,31.6,40,31.5z"/>
	<path fill="#8B2224" d="M39.1,31.6c0.2,0.1,0.1,0.5,0.1,0.7C39,32.2,39.1,31.7,39.1,31.6z"/>
	<path fill="#8B2224" d="M6,31.8c-0.3,0.1-0.9,0.1-1.2,0C5.1,31.7,5.7,31.6,6,31.8z"/>
	<path fill="#8B2224" d="M6.3,32.1c-0.2,0.2-0.8,0.1-1.1,0C5.5,32,6,32,6.3,32.1z"/>
	<path fill="#8B2224" d="M10.5,32.2c0.5,0.1,0.8,0.7,1.2,1.1c-0.2,0.1-0.4-0.3-0.6-0.4C10.9,32.6,10.7,32.3,10.5,32.2z"/>
	<path fill="#8B2224" d="M36.1,32.1c0,0.2-0.2,0.2-0.3,0.3C35.7,32.3,36,32.1,36.1,32.1z"/>
	<path fill="#8B2224" d="M36.7,32.3c0.1,0.2,0,0.4-0.2,0.4C36.5,32.5,36.6,32.5,36.7,32.3z"/>
	<path fill="#8B2224" d="M6.8,32.5c-0.1,0.1-0.8,0.1-1,0C6,32.3,6.6,32.3,6.8,32.5z"/>
	<path fill="#8B2224" d="M36.1,32.4C36.1,32.3,36.2,32.4,36.1,32.4L36.1,32.4z"/>
	<path fill="#8B2224" d="M36.1,32.4c-0.1,0.2-0.4,0.4-0.6,0.5C35.6,32.6,35.9,32.5,36.1,32.4z"/>
	<path fill="#8B2224" d="M39.1,32.5c0.1,0.1-0.1,0.2,0,0.3C39,32.8,39.1,32.6,39.1,32.5z"/>
	<path fill="#8B2224" d="M12.5,32.7C12.5,32.7,12.5,32.8,12.5,32.7c0.5,1.3,0.2,2.8,0.6,4.1c0.1,0.4,0.4,0.7,0.3,1.1
		C12.5,36.7,12.9,34.3,12.5,32.7z"/>
	<path fill="#8B2224" d="M36.6,32.7c0.2,0.1-0.2,0.4-0.3,0.4C36.3,32.9,36.6,32.9,36.6,32.7z"/>
	<path fill="#8B2224" d="M35.9,32.9c-0.1,0.2-0.4,0.3-0.6,0.5C35.3,33.1,35.7,33,35.9,32.9z"/>
	<path fill="#8B2224" d="M36.2,33.2C36.1,33,36.3,33.2,36.2,33.2L36.2,33.2z"/>
	<path fill="#8B2224" d="M36.7,33.1c0,0.1-0.1,0.2-0.2,0.2C36.5,33.2,36.5,33.1,36.7,33.1z"/>
	<path fill="#8B2224" d="M12.9,33.3c0.2,0,0.1,0.3,0,0.2C12.8,33.4,12.9,33.4,12.9,33.3z"/>
	<path fill="#8B2224" d="M35.7,33.3c0,0.3-0.5,0.4-0.6,0.7C35,33.7,35.5,33.5,35.7,33.3z"/>
	<path fill="#8B2224" d="M36.5,33.4c0.1,0.4-0.4,0.4-0.5,0.7C36,33.8,36.4,33.6,36.5,33.4z"/>
	<path fill="#8B2224" d="M36.5,33.8c0.1,0.3-0.4,0.4-0.6,0.7C35.9,34.2,36.4,34.1,36.5,33.8z"/>
	<path fill="#8B2224" d="M13.2,33.9c0.2,0.1-0.1,0.4-0.2,0.5C13,34.2,13.2,34.1,13.2,33.9z"/>
	<path fill="#8B2224" d="M35.4,34C35.4,33.9,35.5,34,35.4,34L35.4,34z"/>
	<path fill="#8B2224" d="M35.4,34c-0.1,0.2-0.3,0.2-0.4,0.4C35,34.2,35.2,34,35.4,34z"/>
	<path fill="#8B2224" d="M6.1,34c-0.1,0.1-0.3,0.2-0.5,0.2C5.7,34.1,5.9,34,6.1,34z"/>
	<path fill="#8B2224" d="M36.3,34.2c0.1,0.3-0.4,0.4-0.6,0.7C35.7,34.6,36.2,34.5,36.3,34.2z"/>
	<path fill="#8B2224" d="M35.3,34.3c0.2,0.3-0.4,0.4-0.5,0.7C34.7,34.6,35.3,34.5,35.3,34.3z"/>
	<path fill="#8B2224" d="M33.4,34.4c0,0.2-0.1,0.2-0.1,0.3c-0.5-0.2-0.6,0.4-1.1,0.5C32.4,34.9,33,34.5,33.4,34.4z"/>
	<path fill="#8B2224" d="M42.9,34.4c-0.3,0.9-1.4,1.3-2,2c-1-0.2-1.7,0.3-2.4,0.1c0.5-0.4,1.7-0.2,2.3-0.4c0.2-0.6,1-0.9,1.4-1.4
		c-0.8-0.1-1.6,0-2.2,0.3c0-0.1,0.2-0.1,0.1-0.3C41.1,34.4,42,34.4,42.9,34.4z M41.3,35.7C41.2,35.7,41.3,35.7,41.3,35.7
		c0.4-0.3,0.8-0.5,1.1-0.9C42,35,41.6,35.3,41.3,35.7z"/>
	<path fill="#8B2224" d="M15.6,38.2c-0.3-0.5-0.3-1.3-0.5-1.9c-0.2-0.7-0.5-1.2-0.6-1.8c0.2,0.3,0.4,0.6,0.6,1
		c0.6,0.3,1.3,0.5,1.8,0.8c-0.6,0-1-0.5-1.7-0.7c-0.1,0.2,0,0.7,0.2,0.8c-0.2,0.6,0.2,1.4,0.4,1.9C15.8,38.3,15.8,38.2,15.6,38.2z"
		/>
	<path fill="#8B2224" d="M35.7,35.2c0.2-0.2,0.4-0.5,0.6-0.7C36.2,34.8,36,35.1,35.7,35.2z"/>
	<path fill="#8B2224" d="M41.4,34.7c-0.3,0.4-0.6,0.8-1,1c-0.1,0.1-0.2,0.4-0.5,0.3c0.4-0.5,0.9-0.9,1.4-1.3
		C41.4,34.7,41.4,34.7,41.4,34.7z"/>
	<path fill="#8B2224" d="M41.9,34.7C41.9,34.7,42,34.7,41.9,34.7L41.9,34.7z"/>
	<path fill="#8B2224" d="M40.9,34.7C41,34.7,41,34.8,40.9,34.7c-0.5,0.4-0.7,1-1.3,1.3c0-0.3,0.3-0.5,0.6-0.7
		C40.4,35.2,40.7,35,40.9,34.7z"/>
	<path fill="#8B2224" d="M41.9,34.7c-0.5,0.4-0.8,0.9-1.4,1.2C40.8,35.5,41.3,34.9,41.9,34.7z"/>
	<path fill="#8B2224" d="M34.8,35.2c0.1-0.2,0.3-0.3,0.4-0.5C35.3,35,35,35.1,34.8,35.2z"/>
	<path fill="#8B2224" d="M15.3,34.9c0.3-0.1,0.6,0.2,0.8,0.3C15.8,35.3,15.6,34.9,15.3,34.9z"/>
	<path fill="#8B2224" d="M13.3,34.9c0.2,0,0.1,0.1,0.1,0.2c-0.3-0.1-0.2,0.6-0.3,0.7C13,35.7,13.2,35.2,13.3,34.9z"/>
	<path fill="#8B2224" d="M40.3,34.9C40.3,34.9,40.3,34.9,40.3,34.9c-0.4,0.5-0.7,1-1.3,1.3C39.4,35.7,39.8,35.3,40.3,34.9z"/>
	<path fill="#8B2224" d="M37.7,35C37.7,35.1,37.7,35,37.7,35L37.7,35z"/>
	<path fill="#8B2224" d="M15.3,35c0.1,0,0.2,0.1,0.3,0.1C15.5,35.2,15.3,35.1,15.3,35z"/>
	<path fill="#8B2224" d="M36.1,35c0.1,0.3-0.4,0.5-0.6,0.7C35.5,35.4,36,35.4,36.1,35z"/>
	<path fill="#8B2224" d="M39.8,35.1c-0.4,0.3-0.7,0.9-1.2,1.1C38.9,35.8,39.2,35.4,39.8,35.1z"/>
	<path fill="#8B2224" d="M35.7,35.2C35.7,35.3,35.6,35.2,35.7,35.2L35.7,35.2z"/>
	<path fill="#8B2224" d="M32.1,35.2c0,0.1-0.1,0.2-0.3,0.3C31.8,35.4,31.9,35.2,32.1,35.2z"/>
	<path fill="#8B2224" d="M34.8,35.2C34.8,35.3,34.7,35.3,34.8,35.2L34.8,35.2z"/>
	<path fill="#8B2224" d="M35,35.2c0.1,0,0,0.1,0,0.2c-0.2,0.1-0.3,0.2-0.5,0.3C34.7,35.5,35,35.5,35,35.2z"/>
	<path fill="#8B2224" d="M15.9,35.4c0.2-0.1,0.5,0,0.5,0.2C16.2,35.5,16,35.5,15.9,35.4z"/>
	<path fill="#8B2224" d="M15.4,35.4c0.2-0.1,0.5,0.2,0.7,0.2C15.8,35.7,15.6,35.4,15.4,35.4z"/>
	<path fill="#8B2224" d="M37.3,35.4C37.3,35.4,37.3,35.4,37.3,35.4C37.4,35.4,37.4,35.4,37.3,35.4z"/>
	<path fill="#8B2224" d="M37.3,35.5C37.3,35.4,37.3,35.4,37.3,35.5C37.3,35.4,37.3,35.5,37.3,35.5z"/>
	<path fill="#8B2224" d="M37.3,35.5c-0.1,0.1-0.2,0.2-0.3,0.3C37,35.6,37.1,35.5,37.3,35.5z"/>
	<path fill="#8B2224" d="M38.3,35.6c0.1,0.3-0.4,0.8-0.9,0.9C37.8,36.2,38.1,35.9,38.3,35.6z"/>
	<path fill="#8B2224" d="M36.9,35.7C36.9,35.8,36.9,35.8,36.9,35.7C36.8,35.8,36.9,35.8,36.9,35.7z"/>
	<path fill="#8B2224" d="M34.9,35.8c0,0.2-0.2,0.2-0.3,0.3C34.5,36,34.7,35.9,34.9,35.8z"/>
	<path fill="#8B2224" d="M37.7,35.9c0.1,0.2-0.3,0.6-0.6,0.7C37.2,36.3,37.4,36.1,37.7,35.9z"/>
	<path fill="#8B2224" d="M16.2,36.3c-0.3-0.1-0.5-0.2-0.8-0.3C15.7,35.9,15.9,36.2,16.2,36.3z"/>
	<path fill="#8B2224" d="M6.6,36c0.5-0.1,0.7,0.3,1,0.5c0.6,0.4,1.5,0.5,2.3,0.8c0.8,0.2,1.6,0.5,2.3,0.8C10.4,37.5,8,37.1,6.6,36z"
		/>
	<path fill="#8B2224" d="M13.4,36c0.2,0.3-0.1,0.7,0,1C13.1,36.8,13.3,36.3,13.4,36z"/>
	<path fill="#8B2224" d="M15.4,36.3c0.4,0,0.9,0.2,1.2,0.5C16.3,36.7,15.8,36.5,15.4,36.3z"/>
	<path fill="#8B2224" d="M34.7,36.2c0.1,0.1-0.1,0.2,0,0.3c-0.1,0-0.1,0-0.2,0C34.4,36.3,34.6,36.4,34.7,36.2z"/>
	<path fill="#8B2224" d="M16.2,36.3c0.3,0.1,0.8,0.1,0.9,0.5C16.8,36.6,16.4,36.5,16.2,36.3z"/>
	<path fill="#8B2224" d="M40,36.6c-0.2,0.2-0.3,0.5-0.6,0.5C39.6,36.9,39.6,36.6,40,36.6z"/>
	<path fill="#8B2224" d="M40.9,36.6c-0.1,0.1-0.2,0.3-0.4,0.3C40.6,36.8,40.7,36.6,40.9,36.6z"/>
	<path fill="#8B2224" d="M34.5,36.7C34.5,36.6,34.6,36.6,34.5,36.7L34.5,36.7z"/>
	<path fill="#8B2224" d="M39.4,36.7c0,0.1-0.1,0.1-0.3,0.1C39.1,36.7,39.3,36.6,39.4,36.7z"/>
	<path fill="#8B2224" d="M41.7,36.6c0,0.1-0.1,0.1-0.2,0.1C41.4,36.6,41.6,36.7,41.7,36.6z"/>
	<path fill="#8B2224" d="M42.2,36.6c0,0.1-0.2,0.1-0.3,0.1C41.9,36.6,42.1,36.6,42.2,36.6z"/>
	<path fill="#8B2224" d="M38.3,36.8c0.1,0.2-0.3,0.2-0.4,0.4C37.8,37,38.2,36.9,38.3,36.8z"/>
	<path fill="#8B2224" d="M41.7,36.8c-0.4,0.3-1.2,0.3-1.7,0.4C40.3,37,41.1,37,41.7,36.8z"/>
	<path fill="#8B2224" d="M22.3,36.9c0,0,0.1,0,0.1,0c0,0.1,0,0.2-0.2,0.2C22.2,37,22.3,37,22.3,36.9z"/>
	<path fill="#8B2224" d="M39,36.9c0,0.1-0.2,0.2-0.3,0.1C38.8,37,38.9,36.9,39,36.9z"/>
	<path fill="#8B2224" d="M37.5,37c-0.1,0.1-0.2,0.2-0.4,0.3C37.2,37.1,37.3,37,37.5,37z"/>
	<path fill="#8B2224" d="M32.5,37c0.2,0-0.1,0.3-0.1,0.4c-0.9,0.5-1.8,1.3-2.6,1.8C30.5,38.2,31.8,37.9,32.5,37z"/>
	<path fill="#8B2224" d="M22.2,37.1c0,0.1-0.1,0.1-0.2,0.1C22,37.1,22.1,37.1,22.2,37.1z"/>
	<path fill="#8B2224" d="M40.9,37.2c-0.1,0.1-0.3,0.2-0.5,0.2C40.5,37.2,40.8,37.2,40.9,37.2z"/>
	<path fill="#8B2224" d="M36.4,37.2c-0.1,0.1-0.3,0.2-0.4,0.2C36,37.3,36.2,37.2,36.4,37.2z"/>
	<path fill="#8B2224" d="M36.8,37.5c0.8-0.2,1.9-0.1,2.7-0.3c-0.2,0.3-0.7,0.1-1,0.2C38,37.4,37.4,37.6,36.8,37.5z"/>
	<path fill="#8B2224" d="M40,37.4c0,0.1-0.3,0.2-0.4,0.1C39.6,37.4,39.8,37.5,40,37.4z"/>
	<path fill="#8B2224" d="M22,37.5c0,0,0.1,0,0.1,0c0,0.1-0.1,0.1-0.1,0.2C21.9,37.7,22,37.6,22,37.5z"/>
	<path fill="#8B2224" d="M36.5,37.6c-0.1,0.1-0.2,0.1-0.3,0.1C36.2,37.6,36.4,37.5,36.5,37.6z"/>
	<path fill="#8B2224" d="M36.8,37.5C36.8,37.6,36.8,37.6,36.8,37.5L36.8,37.5z"/>
	<path fill="#8B2224" d="M35,37.7c0,0.1-0.1,0.1-0.3,0.1C34.7,37.7,34.9,37.7,35,37.7z"/>
	<path fill="#8B2224" d="M37.8,37.7c0.1,0,0.1,0.1,0.3,0.1c-0.1,0.1-0.1,0-0.3,0.1C37.7,37.8,37.8,37.8,37.8,37.7z"/>
	<path fill="#8B2224" d="M36.9,37.8c-0.1,0.1-0.6,0.1-0.7,0C36.5,37.7,36.8,37.7,36.9,37.8z"/>
	<path fill="#8B2224" d="M31.8,38.4C31.8,38.3,31.8,38.4,31.8,38.4L31.8,38.4z"/>
	<path fill="#8B2224" d="M31.7,38.4C31.7,38.4,31.7,38.4,31.7,38.4C31.8,38.4,31.8,38.4,31.7,38.4z"/>
	<path fill="#8B2224" d="M31.7,38.4c0,0.1-0.1,0.1-0.2,0.2C31.5,38.5,31.6,38.5,31.7,38.4z"/>
	<path fill="#8B2224" d="M35.2,38.5c-0.4,0.2-0.9,0.3-1.4,0.4C34.2,38.7,34.6,38.6,35.2,38.5z"/>
	<path fill="#8B2224" d="M10.8,38.6c-0.2,0.2-0.5,0.2-0.7,0.4c-0.2,0.1-0.3,0.3-0.5,0.2C9.9,38.9,10.3,38.7,10.8,38.6z"/>
	<path fill="#8B2224" d="M31.5,38.6C31.5,38.6,31.4,38.6,31.5,38.6L31.5,38.6z"/>
	<path fill="#8B2224" d="M35.9,38.6c0,0.1-0.1,0.1-0.2,0.1C35.7,38.6,35.8,38.6,35.9,38.6z"/>
	<path fill="#8B2224" d="M35.3,38.7c0.1,0.1-0.6,0.4-0.9,0.3C34.6,38.8,35.1,38.9,35.3,38.7z"/>
	<path fill="#8B2224" d="M36.2,38.7c-0.1,0.2-0.6,0.3-1,0.4C35.4,38.8,35.8,38.8,36.2,38.7z"/>
	<path fill="#8B2224" d="M36.9,38.8c-0.3,0.2-0.7,0.3-1.2,0.3C36,38.9,36.5,38.8,36.9,38.8z"/>
	<path fill="#8B2224" d="M37.1,39c-0.1,0.2-0.4,0.1-0.6,0.2C36.4,39,36.9,39,37.1,39z"/>
	<path fill="#8B2224" d="M37.7,39.1c-0.1,0.1-0.3,0.1-0.6,0.2C37.2,39.1,37.5,39.1,37.7,39.1z"/>
	<path fill="#8B2224" d="M38.2,39.2c-0.1,0.1-0.2,0.1-0.3,0C37.9,39.1,38.1,39.1,38.2,39.2z"/>
	<path fill="#8B2224" d="M38.6,39.4c-0.3,0.1-0.7,0-1,0C37.9,39.3,38.3,39.3,38.6,39.4z"/>
	<path fill="#8B2224" d="M34,39.4c-0.2,0.2-0.5,0.3-0.8,0.3C33.4,39.6,33.6,39.4,34,39.4z"/>
	<path fill="#8B2224" d="M34.6,39.4c-0.2,0.2-0.6,0.2-0.9,0.4C33.9,39.5,34.2,39.5,34.6,39.4z"/>
	<path fill="#8B2224" d="M35,39.5c-0.1,0.3-0.5,0.3-0.8,0.4C34.4,39.7,34.8,39.6,35,39.5z"/>
	<path fill="#8B2224" d="M35.6,39.6c-0.2,0.2-0.5,0.3-0.9,0.3C35,39.8,35.2,39.6,35.6,39.6z"/>
	<path fill="#8B2224" d="M36.3,39.6c0.1,0.2-0.5,0.3-0.8,0.4C35.7,39.8,36,39.7,36.3,39.6z"/>
	<path fill="#8B2224" d="M37.1,39.7c-0.2,0.2-0.5,0.3-0.8,0.3C36.4,39.8,36.7,39.8,37.1,39.7z"/>
	<path fill="#8B2224" d="M38.1,39.7c-0.1,0.2-0.5,0.1-0.7,0.1C37.4,39.6,37.8,39.7,38.1,39.7z"/>
	<path fill="#8B2224" d="M31.7,40.3c-0.8,0.4-1.6,0.8-2.6,0.9C29.9,40.9,30.6,40.4,31.7,40.3z"/>
	<path fill="#8B2224" d="M32.8,40.5C32.9,40.5,32.9,40.5,32.8,40.5c-0.7,0.5-1.6,0.9-2.7,1.1C30.9,41.1,31.8,40.8,32.8,40.5z"/>
	<path fill="#8B2224" d="M33.6,40.6c-0.2,0.3-0.7,0.4-1,0.5c-0.5,0.2-1,0.5-1.6,0.5c0.7-0.4,1.5-0.6,2.2-1
		C33.2,40.6,33.4,40.6,33.6,40.6z"/>
	<path fill="#8B2224" d="M14.7,40.7c0.4,0,0.8,0.1,1.2,0.1C15.7,41,15,40.8,14.7,40.7z"/>
	<path fill="#8B2224" d="M27.6,40.7c0,0.1-0.1,0.1-0.1,0C27.5,40.7,27.6,40.7,27.6,40.7z"/>
	<path fill="#8B2224" d="M34.2,40.7c-0.4,0.2-0.9,0.4-1.3,0.6c-0.4,0.2-0.9,0.4-1.4,0.4c0.4-0.3,0.9-0.3,1.3-0.6
		C33.2,40.9,33.6,40.6,34.2,40.7z"/>
	<path fill="#8B2224" d="M14.2,40.8c0.4,0,0.6,0.2,1.1,0.1C15,41.1,14.4,40.9,14.2,40.8z"/>
	<path fill="#8B2224" d="M35,41.1c-0.7,0.4-1.4,0.8-2.4,0.9c0.2-0.2,0.6-0.3,1-0.5C34.2,41.3,34.6,40.9,35,41.1z"/>
	<path fill="#8B2224" d="M14.3,41.1C13.9,41.3,13.6,40.9,14.3,41.1L14.3,41.1z"/>
	<path fill="#8B2224" d="M14.7,41.2c0,0.1-0.2,0.1-0.3,0C14.5,41,14.6,41.2,14.7,41.2z"/>
	<path fill="#8B2224" d="M35.7,41.5c-0.7,0.3-1.4,0.7-2.4,0.6c0.5-0.4,1.3-0.5,1.8-0.9C35.4,41.2,35.5,41.4,35.7,41.5z M34,42
		c0.6-0.1,1-0.4,1.5-0.6C34.9,41.6,34.3,41.7,34,42z"/>
	<path fill="#8B2224" d="M13.7,41.2c0.1,0.1,0.3,0,0.4,0.1C14,41.5,13.7,41.4,13.7,41.2z"/>
	<path fill="#8B2224" d="M15.7,41.4c0.4-0.1,0.8,0.1,1.3,0C16.7,41.7,16,41.4,15.7,41.4z"/>
	<path fill="#8B2224" d="M14.9,41.6c0.5-0.1,0.9,0.1,1.5,0.1C16,42,15.3,41.6,14.9,41.6z"/>
	<path fill="#8B2224" d="M23.8,41.8c-0.2,0-0.3-0.1-0.3-0.2C23.7,41.5,23.8,41.6,23.8,41.8z"/>
	<path fill="#8B2224" d="M15.3,41.8c0-0.1,0.4-0.1,0.3,0C15.5,41.9,15.4,41.9,15.3,41.8z"/>
	<path fill="#8B2224" d="M23.7,41.8c0.1,0.1,0.1,0,0.3,0C24,41.9,23.7,42,23.7,41.8z"/>
	<path fill="#8B2224" d="M14.4,41.9C14.4,41.9,14.5,41.9,14.4,41.9C14.5,41.9,14.4,41.9,14.4,41.9z"/>
	<path fill="#8B2224" d="M24.1,42.1c0,0.2-0.3,0-0.4,0C23.7,42,24.1,42,24.1,42.1z"/>
	<path fill="#8B2224" d="M23.8,42.3c0.2,0,0.4-0.1,0.4,0.1C24,42.4,23.8,42.4,23.8,42.3z"/>
	<path fill="#8B2224" d="M25,42.4c0,0.1,0.1,0.1,0,0.2c-0.1,0-0.2,0.1-0.3,0C24.7,42.4,24.8,42.4,25,42.4z"/>
	<path fill="#8B2224" d="M23.8,42.5c0.2,0,0.4,0,0.4,0.2c-0.1,0-0.3,0-0.3,0C23.9,42.7,23.8,42.6,23.8,42.5z"/>
	<path fill="#8B2224" d="M29.5,42.7c0.7,0,1,0.4,1.5,0.4C30.5,43.3,30,42.9,29.5,42.7z"/>
	<path fill="#8B2224" d="M24.3,42.8c0,0.1-0.4,0.1-0.4,0C23.9,42.7,24.3,42.8,24.3,42.8z"/>
	<path fill="#8B2224" d="M28.5,42.9c0.3-0.1,0.6,0.1,0.8,0.2C29.1,43.2,28.8,43,28.5,42.9z"/>
	<path fill="#8B2224" d="M30.4,43.2c-0.3,0.1-0.8-0.2-1.1-0.3c-0.2-0.1-0.2-0.1,0.1-0.1C29.6,42.9,30.1,43.1,30.4,43.2z"/>
	<path fill="#8B2224" d="M28.6,43.1c0.2,0,0.1,0.2,0,0.2C28.6,43.3,28.6,43.2,28.6,43.1z"/>
	<path fill="#8B2224" d="M18.1,43.4c0.2,0.1-0.1,0.3-0.3,0.2C17.8,43.5,18,43.5,18.1,43.4z"/>
	<path fill="#8B2224" d="M18.5,43.6c0,0.1-0.2,0-0.2,0.2C18.1,43.6,18.3,43.5,18.5,43.6z"/>
	<path fill="#8B2224" d="M26.1,43.7c-0.1,0.1-0.3,0.2-0.5,0.2C25.7,43.7,25.9,43.6,26.1,43.7z"/>
	<path fill="#8B2224" d="M18.1,44.1c0.1-0.2,0.3-0.4,0.7-0.4C18.6,43.9,18.3,44,18.1,44.1z"/>
	<path fill="#8B2224" d="M19.1,43.8c-0.3,0.3-0.6,0.5-0.9,0.7C18.4,44.2,18.7,43.9,19.1,43.8z"/>
	<path fill="#8B2224" d="M26.2,43.8c0.1,0.1-0.2,0.2-0.2,0C26.1,43.9,26.1,43.8,26.2,43.8z"/>
	<path fill="#8B2224" d="M26.6,44c0-0.1-0.1,0-0.1-0.1c0.2,0,0.2,0.1,0.3,0.1C26.8,44.1,26.7,43.9,26.6,44z"/>
	<path fill="#8B2224" d="M26.6,44c0.1,0.1,0.2,0.1,0.3,0.2c-0.2,0.1-0.5-0.1-0.6-0.2C26.4,44,26.5,44,26.6,44z"/>
	<path fill="#8B2224" d="M26,44c0,0.1-0.1,0.1-0.2,0.1C25.7,44,25.9,44,26,44z"/>
	<path fill="#8B2224" d="M18.1,44.1C18.1,44.2,18,44.2,18.1,44.1L18.1,44.1z"/>
	<path fill="#8B2224" d="M26,44.1c0.2,0,0.2,0,0.3,0.1C26.3,44.4,26,44.4,26,44.1z"/>
	<path fill="#8B2224" d="M30,45.5c0.2,0,0.3,0.1,0.4,0.1C30.3,45.7,30,45.7,30,45.5z"/>
	<path fill="#8B2224" d="M30.1,45.8c-0.2,0-0.3,0-0.3-0.2C30,45.7,30.1,45.7,30.1,45.8z"/>
	<path fill="#8B2224" d="M29.6,45.8c0.1,0,0.3,0.1,0.3,0.2c-0.1,0-0.2-0.1-0.3,0C29.6,45.9,29.6,45.9,29.6,45.8z"/>
</g>
<ellipse id="pulsador" opacity="0" fill="#8B2224" cx="23.5" cy="22.5" rx="21.2" ry="21.5"/>
</svg>
