<?xml version="1.0" encoding="utf-8"?>
<!-- Generator: Adobe Illustrator 16.0.0, SVG Export Plug-In . SVG Version: 6.00 Build 0)  -->
<!DOCTYPE svg PUBLIC "-//W3C//DTD SVG 1.1//EN" "http://www.w3.org/Graphics/SVG/1.1/DTD/svg11.dtd">
<svg version="1.1" id="Capa_1" xmlns="http://www.w3.org/2000/svg" xmlns:xlink="http://www.w3.org/1999/xlink" x="0px" y="0px"
	 width="1168.441px" height="1065px" viewBox="-114.38 0 1168.441 1065" enable-background="new -114.38 0 1168.441 1065"
	 xml:space="preserve">
<g id="plano_fondo">
	<image overflow="visible" enable-background="new    " width="957" height="1065" xlink:href="sectorB_mediana.jpg" >
	</image>
</g>
<g id="puntos">
	<circle id="c5" opacity="0.6" fill="#8A2223" enable-background="new    " cx="118.376" cy="700.86" r="23.249"/>
	<circle id="c4" opacity="0.6" fill="#8A2223" enable-background="new    " cx="196.855" cy="96.362" r="23.249"/>
	<circle id="c3" opacity="0.6" fill="#8A2223" enable-background="new    " cx="535.351" cy="142.86" r="23.249"/>
	<circle id="c2" opacity="0.6" fill="#8A2223" enable-background="new    " cx="680.844" cy="886.846" r="23.249"/>
	<circle id="c1" opacity="0.6" fill="#8A2223" enable-background="new    " cx="388.358" cy="372.371" r="23.249"/>
</g>
<g id="fotos" display="none">
	<g id="f2_m" display="inline">
		<polygon fill="#8B2224" points="-40.839,242.78 -40.723,268.098 -26.113,255.212 		"/>
		<path fill="#8B2224" d="M-43.554,240.439l-0.021,29.308l-42.133-0.029l0.02-29.308l6.56,0.005l0.003-2.778l4.2,0.002l-0.003,2.778
			L-43.554,240.439L-43.554,240.439z M-45.719,242.57l-37.837-0.026l-0.007,8.789l11.567,0.008c1.715-2.196,4.396-3.583,7.4-3.581
			c2.941,0.002,5.591,1.394,7.334,3.591l11.534,0.007L-45.719,242.57L-45.719,242.57z M-64.593,249.311
			c-4.33-0.003-7.888,3.532-7.891,7.862c-0.003,4.346,3.549,7.854,7.878,7.856c4.267,0.003,7.79-3.516,7.793-7.845
			C-56.809,252.854-60.328,249.314-64.593,249.311z M-64.597,252.671c-2.487-0.001-4.589,2.017-4.591,4.504
			c-0.002,2.488,2.064,4.508,4.585,4.51c2.488,0.002,4.492-2.016,4.494-4.504C-60.106,254.694-62.108,252.673-64.597,252.671z"/>
		<g>
			<path fill="#8B2224" d="M-95.092,244.959h-0.098l-4.881,2.631l-0.709-2.892l6.142-3.276l3.23,0.002l-0.019,28.03l-3.685-0.003
				L-95.092,244.959z"/>
		</g>
	</g>
	<g id="f3_m" display="inline">
		<polygon fill="#8B2224" points="271.849,83.126 246.536,82.658 259.082,97.609 		"/>
		<path fill="#8C2224" d="M280.25,51.376l0.018,29.307l-42.134,0.025l-0.018-29.307l6.591-0.004l-0.001-2.778l4.137-0.003
			l0.001,2.778L280.25,51.376L280.25,51.376z M278.119,53.526l-37.868,0.022l0.006,8.773l11.566-0.008
			c1.743-2.197,4.394-3.589,7.364-3.59c2.974-0.003,5.623,1.387,7.369,3.583l11.566-0.007L278.119,53.526L278.119,53.526z
			 M259.188,60.292c-4.329,0.002-7.85,3.526-7.847,7.873c0.002,4.33,3.526,7.85,7.855,7.847c4.298-0.002,7.817-3.527,7.814-7.855
			C267.01,63.808,263.486,60.289,259.188,60.292z M259.19,63.635c-2.455,0.001-4.555,2.04-4.553,4.527
			c0.002,2.472,2.103,4.489,4.558,4.488c2.521-0.001,4.523-2.021,4.521-4.495C263.715,65.668,261.711,63.634,259.19,63.635z"/>
		<g>
			<path fill="#8C2224" d="M221.071,75.549c0.97,0.629,3.264,1.614,5.654,1.612c4.459-0.002,5.848-2.848,5.782-4.979
				c-0.003-3.586-3.268-5.118-6.597-5.117l-1.938,0.001l-0.002-2.601h1.938c2.521-0.002,5.687-1.297,5.685-4.334
				c-0.001-2.067-1.294-3.86-4.461-3.858c-2.067,0-4.038,0.906-5.137,1.683l-0.906-2.504c1.323-0.986,3.94-1.989,6.688-1.991
				c5.04-0.003,7.337,3.001,7.339,6.103c0.001,2.65-1.581,4.896-4.747,6.044l0.001,0.081c3.167,0.628,5.753,2.986,5.756,6.572
				c0.003,4.088-3.228,7.692-9.365,7.696c-2.845,0.001-5.365-0.918-6.657-1.742L221.071,75.549z"/>
		</g>
	</g>
	<g id="f4_m" display="inline">
		<polygon fill="#8B2224" points="736.729,870.749 760.746,862.792 743.971,852.864 		"/>
		<path fill="#8B2224" d="M764.447,864.477l9.461,27.72l-39.875,13.609l-9.461-27.719l6.208-2.119l-0.897-2.63l3.945-1.347
			l0.897,2.63L764.447,864.477L764.447,864.477z M763.124,867.198l-35.838,12.231l2.832,8.302l10.947-3.735
			c0.911-2.633,3.002-4.814,5.815-5.774s5.769-0.501,8.131,1.014l10.916-3.726l-2.835-8.301L763.124,867.198L763.124,867.198z
			 M747.387,879.705c-4.098,1.398-6.294,5.87-4.896,9.968c1.399,4.098,5.87,6.292,9.968,4.894c4.066-1.389,6.264-5.859,4.863-9.956
			C755.925,880.513,751.453,878.316,747.387,879.705z M748.467,882.871c-2.324,0.793-3.66,3.383-2.857,5.737
			c0.805,2.354,3.445,3.587,5.769,2.794c2.386-0.814,3.627-3.372,2.823-5.727C753.4,883.321,750.851,882.058,748.467,882.871z"/>
		<g>
			<path fill="#8C2224" d="M778.339,889.926l-0.739-2.103l1.772-3.534c4.273-8.402,6.021-12.683,4.743-16.515
				c-0.9-2.561-2.986-4.497-6.734-3.181c-2.316,0.815-3.794,2.652-4.608,4.036l-1.945-2.022c1.247-2.101,3.337-4.049,6.233-5.068
				c5.455-1.919,9.049,0.998,10.318,4.611c1.64,4.663-0.419,9.616-3.948,16.628l-1.359,2.566l0.028,0.077l11.338-3.986l0.999,2.834
				L778.339,889.926z"/>
		</g>
	</g>
</g>
<g id="habitaculos" display="none">
	<polyline id="hab8" display="inline" opacity="0.5" fill="#8B2224" points="575,1039 572.5,913.5 896.5,916.5 903.5,1011 
		771.5,1021.5 770.5,976.25 777,971.5 776,964.5 780.5,964 780,958 776.5,957 774,948 771.5,940.5 747.5,938.5 743.5,1023 
		723,1025.5 720,937 692.5,934.5 678,937.5 674,965.5 691.5,969 694,1028 	"/>
	<polyline id="hab2" display="inline" opacity="0.5" fill="#8B2224" points="75,219 281,215.667 281,310.333 363,310.333 363,447 
		284.333,447 282.333,472.333 79,472.333 	"/>
	<polyline id="hab3" display="inline" opacity="0.5" fill="#8B2224" points="318.333,201.667 739.666,207.667 743,544.334 
		323,549.667 323.667,477.667 393,472.333 395,276.334 318.333,275.667 	"/>
	<polyline id="hab4" display="inline" opacity="0.5" fill="#8B2224" points="318.333,591 743,587 746.999,878.333 488.999,878.333 
		486.999,874.333 478.5,874.333 478.5,869.666 469.841,867.666 465.666,861.666 458.333,858.333 444.999,860.333 443.666,867 
		423.666,859.666 392.999,861 388.999,863.666 380.333,859 366.999,856.333 367.666,870.333 363,869.666 358.999,878.333 
		318.333,878.333 	"/>
	<polyline id="peirao" display="inline" opacity="0.5" fill="#8B2224" points="158.333,182.333 166.333,34.667 200.667,34.667 
		210.667,43.667 226.667,40 358.667,64.333 361.333,86.333 356,162.333 323,163 320.333,125 316,111.667 300.333,100 
		281.667,94.333 284.333,179 279.333,182.333 	"/>
	<path id="hab5" display="inline" opacity="0.5" fill="#8B2224" d="M125.667,610.667l35,38.667l19.667,151v47l-3.667,2l-16-11.667
		c0,0-91.333,65.002-147.667-67.332S130.667,602.666,125.667,610.667z"/>
</g>
</svg>
